<?xml version="1.0" encoding="UTF-8"?>
<svg id="Capa_1" data-name="Capa 1" xmlns="http://www.w3.org/2000/svg" version="1.1" viewBox="0 0 128 128">
  <defs>
    <style>
      .cls-1 {
        fill: #ebe7d6;
      }

      .cls-1, .cls-2, .cls-3, .cls-4, .cls-5, .cls-6, .cls-7 {
        stroke-width: 0px;
      }

      .cls-2 {
        fill: #602014;
      }

      .cls-3 {
        fill: none;
      }

      .cls-4 {
        fill: #d5713b;
      }

      .cls-5 {
        fill: #74a9a0;
      }

      .cls-6 {
        fill: #aec9bc;
      }

      .cls-7 {
        fill: #dea97d;
      }
    </style>
  </defs>
  <path class="cls-3" d="M45.1,86.5c-2,6.6-.6,15.8,4.2,20.2,0-.2,0-.5.2-.7.5-2.7,2.9-4.6,5.7-4.5,2.8,0,4.3,1.5,4.7,4.7.2,1.1.2,2.3.2,3.5v.4c0,2.7.7,5.2,2.2,7.4,1.4,2.2,3.4,3.9,5.7,4.9v-.3l-.2-.3c-1.8-5.6-.5-9.5,4.4-12.8l1.5-1c1.1-.7,2.2-1.4,3.2-2.2,3.8-2.6,6.3-6.8,6.8-11.4.3-2,0-4-.6-6l-.8.6-1.6,1c-7,3.2-14.8,4.2-22.4,2.7-5-.7-9.7-2-13.2-6.2Z"/>
  <path class="cls-2" d="M27.9,45.8c-.3.6-.6,1.2-1,1.8,0-.1,0-.3,0-.4,1.4-3.5,3.3-6.5,6.1-9.1,0,0,0,0,0,0,.1-.1.3-.2.4-.3.6-.4,1.2-.8,1.5-1.4-.9.4-1.9.7-2.6,1.4-.6.3-1.1.7-1.6,1.1-.2,0-.2-.2-.2-.3,0,0,0,0,0,0,.1,0,.2-.1.2-.2,0,0,0,0,0,0,.2,0,.3-.2.4-.4,0,0,0,0,0,0,.6-.4,1.2-.7,1.6-1.2h0s0,0,0,0c.3,0,.5-.2.7-.4,0,0,0,0,0,0,3.2-1.5,6.5-2.8,9.9-3.7-2.9,0-5.6.9-8.2,2.2-.5.3-1,.7-1.7.5,1.7-1.4,3.7-2.1,5.8-2.8.2,0,.4-.1.5-.2,2.9-.6,5.9-.4,8.8-.3-.8-.3-1.7-.5-2.5-.6-2.2-.2-4.4-.4-6.6,0,0,0-.1,0-.2,0,0-.3,0-.3.3-.4,1.4-.3,2.8-.4,4.2-.4,3.6,0,7,.9,10.4,2.2.2,0,.5.3.9.1-.6-.4-1.1-.7-1.7-.9-2.5-1.1-5.1-1.8-7.7-2.3-.3-.2-.8.1-1.1-.3,1.2-.2,2.4.1,3.5.2,0,.2.2.2.4.3.6.1,1.2.2,1.7.4,2.2.6,4.2,1.6,6.3,2.6,3,1.5,5.8,3.3,8.3,5.6.2.2.3.6.9.6-.3-.4-.6-.8-.8-1.1-2.2-2.2-4.3-4.3-6.5-6.5-.1-.1-.6-.2-.3-.5.2-.2.4,0,.5.1.9.5,1.8,1.1,2.8,1.6-1.6-1.5-3.5-2.7-5.5-3.8-.3-.2-.6-.3-.9-.3-.2,0-.3,0-.3-.3,0-.3.3-.1.4,0,1.8.4,3.6,1,5.3,2.1-.5-.7-.9-1-1.5-1.3-1.2-.5-2.2-1.4-3.5-1.7,0,0,0,0,0,0-.4-.4-.9-.5-1.5-.6-.5-.2-.9-.6-1.5-.8.3-.2.7,0,.9-.1,1.3.2,2.5.5,4,.5-1.1-.5-2-.8-3-.9-1.4-.4-2.8-.5-4.3-.7.5-.4,1.1-.4,1.7-.5.6,0,1.2,0,1.9,0-1.7-.6-3.4-.7-5-.9-.4,0-.7.1-1-.2.1,0,.3-.1.4-.2,1.1-.2,2.1-.4,3.2-.4-1.5-.3-2.9-.3-4.4-.1,0,0,0,0,0,0-.1,0-.2,0-.4,0-.1,0-.6-.2-.1-.4.5-.2,1-.2,1.5-.4.5-.1,1.1,0,1.6-.4-2.1-.1-4,.2-6,.2.9-.5,1.9-.6,2.8-.9-1.5,0-2.9,0-4.3.4-.2,0-.5.3-.7,0,0,0,0,0,.1-.1.5-.3,1-.4,1.5-.8-.8,0-1.4.4-2.3.3.4-.2.7-.4,1-.6-.7.1-1.3.1-1.9.4h0s0,0,0,0c-.5,0-1,0-1.5.3-.6.1-1.2.2-1.8.3,0,0,0-.1-.1-.2,2.3-.9,4.6-1.5,7-1.7.9,0,1.8,0,2.7,0,0,0,0-.2,0-.2-1,0-2-.3-3.1-.1-.4,0-.8,0-1.2,0-.2-.1-.5,0-.6-.3,1.8-.2,3.5-.3,5.3-.1,1.6.4,3.1.7,4.7,1.1-1.3-.9-2.7-1.4-4.1-1.7-.4-.3-.8-.5-1.2-.7.6,0,1.1.1,1.7.3.5.2,1.1.3,1.6.5.6.2,1.1.4,1.7.6,1.8,1.1,3.9,1.8,5.5,3.3.1.1.2.1.3,0,.1-.1,0-.2-.1-.3-1.2-1.3-2.6-2.3-4.1-3.2,0,0,0,0,0,0,0,0-.1-.1-.2-.2-.1-.1-.3-.1-.4-.3,0,0,0,0,0,0,.2,0,.5.1.7.2,0,.1.2.2.4.2,0,0,0,0,0,0,0,.1.1.2.3.1,0,0,0,0,0,0,1.1.7,2.1,1.4,3.2,2.2.6.4,1,.9,1.6,1.2,0,0,0,0,0,0,0,.1.1.2.2.2,0,0,0,0,0,0,1.7,1.8,3.2,3.8,4.4,5.9,0,.1,0,.4.4.3-.2-.8-.6-1.5-1-2.2-.9-1.8-1.8-3.6-3.3-5-.4-.4-.6-.9-.9-1.2,2.4,1.3,3.6,3.7,4.9,5.9,1.7,3.8,2.8,7.7,4.3,11.5-.6-3.5-1.6-6.9-3-10.1,0,0,.2,0,.2,0l1.2,1.8c0,0,.1,0,.2-.1-.4-1.6-1.4-2.9-2-4.4,1.2.8,1.7,2.2,2.4,3.3-.4-2.1-1.9-3.6-3.3-5.4,1.7.6,2.4,1.9,3.3,3-1.1-2.1-2.4-4-4.2-5.6,1.6.8,2.8,1.9,3.9,3.1-1.2-2.2-3.1-3.7-5.2-4.9,0,0,0,0,0,0,0-.2-.2-.3-.3-.3,0,0,0,0,0,0,.6-.3,1.1,0,1.5.3.9.5,2,.8,2.9,1.4-1-1.3-2.5-2-3.7-3h0c1.1,0,1.7,1,2.7,1.2-1.3-1.1-2.7-1.9-4.3-2.5,0,0-.2-.2-.2-.2.2-.3.4,0,.7-.1.8.2,1.7.4,2.5.7-.6-.6-1.2-.8-1.9-.9-.2,0-.3-.2-.5-.3,0,0,0-.1.1-.2,0,0,0,0,.1,0,0,0,0,0,0,0-.2,0-.4-.1-.6-.2h0c-.2-.3-.5-.3-.8-.4-.2,0-.4,0-.4-.3,0-.3.3-.1.5-.1.1,0,.3,0,.4,0-.6-.3-1.2-.6-1.7-.9,0-.3.1-.3.3-.2.4.1.9.2,1.3.4-.6-.6-1.4-.9-2.1-1.3,0-.3.5,0,.5-.5-1.4-1-2.9-1.7-4.5-2.6.4,0,.6,0,.8,0,.3.1.6.2.9.3.6.3,1.3.6,1.9.9,2.5,1,4.9,2.1,6.7,4.2,0,0,.2,0,.3,0-.4-.7-.9-1.3-1.4-1.9-.2-.2-.5-.3-.3-.7.9.7,1.7,1.6,2.4,2.5,0,.2.1.3.3.4,0,0,0,0,0,0,0,.2,0,.2.2.3,0,0,0,0,0,0,.7,1.3,1.4,2.5,2.1,3.8,0,0,.1,0,.2,0-.6-1.3-1.2-2.7-2.1-3.9-.2-.4-.4-.7-.6-1.1.4,0,.4.3.6.4,0,.1.1.2.2.3,2.1,2.6,3.1,5.7,3.9,9,.5,2.1.7,4.1.9,6.3.5-4.5-.6-8.6-2.1-12.6,3.1,4.5,3.1,9.6,2.6,14.8.4-1.2.8-2.5,1.1-3.7.1-.4.2-.7.6-.9,0,.2,0,.4,0,.7-.3,2.2-.4,4.3-1,6.5-.3,1.1-.5,2.1-.6,3.3,1.3-2.8,1.6-6,2.5-8.9.3-.7.5-1.3.8-2,.1,0,.2,0,.2-.2,0,0,0,0,0,0,.5.1.2.4,0,.6-.3.9-.6,1.9-.7,2.9.4-1.1.8-2.2,1.2-3.2.8-2,1.1-2.5,1.8-2.9-.5,1.5-1.3,2.9-1.6,4.7.9-1.4,1.2-2.9,2.1-4,.6-.8,1.1-1.8,2-2.4,0,0,0,0,0,0-.7,1.2-1.6,2.3-2.2,3.7,1.5-1.9,2.6-3.8,4.4-5.3-.3.9-1.3,1.4-1.5,2.6,1.7-1.3,3.1-2.9,5.1-3.4-1.1.9-2.2,1.8-3.3,2.7,0,0,0,.1.1.2,2.2-1.2,4.2-2.9,6.9-3.3-1,.7-2.3,1-3.3,1.8,2.2-.9,4.3-1.9,6.7-1.9-1.1.7-2.5.7-3.5,1.5.3,0,.6-.1,1-.2.1,0,.3,0,.4.2,0,.2-.1.2-.2.2-.2,0-.4,0-.5.1-1.3.3-2.5.7-3.7,1.3.6,0,1.2,0,1.8-.1.6,0,1.2-.2,1.7,0-2,.4-4,.7-6.1,1.8,1.5,0,2.7-.5,4-.4-1.9.7-3.8,1.1-5.6,2,1-.3,1.9-.4,2.9-.4-1.6.7-3.3,1-4.7,2.2,1.3-.5,2.6-.8,3.9-1.1.5-.1,1-.5,1.5,0h0s0,0,0,0c-1.9.5-3.7,1.2-5.5,2.1-.4.2-.9.2-1.1.7.4-.2.8-.4,1.2-.5.7,0,1.3-.2,2-.4-1,.7-2.1.9-3.1,1.7.6,0,1-.3,1.5-.2-.9.9-2,1.4-2.7,2.4.6-.4,1.2-.9,1.8-1.3,1-.7,1.9-1.4,3.1-1.7,0,0,0,0,.1.1-.7.9-1.8,1.3-2.6,2.1,2.6-1.2,5.1-2.4,7.8-3.2h0s0,0,0,0c.1,0,.2-.1.4.1-6.3,2.2-12,5.3-15.8,11.3,2-1.9,3.6-3.8,5.6-5.3,3-2.4,6.2-4.4,9.9-5.4,1.3-.4,2.6-.7,3.9-.7.3,0,.6,0,.8.3-2.2.2-4.3.8-6.4,1.8,5.3-.7,10.5-1,15,2.3-.2,0-.4,0-.6-.1-.5-.6-1.1-.8-1.9-.8.6.2,1.2.7,1.8.8.5.5,1.3.5,1.8.8,0,.3-.4,0-.4.3.5.4,1,.7,1.5,1.1.5.4.9.8,1.2,1.5-1.2-.6-2.2-1.3-3.2-1.9-.3-.2-.7-.4-1.1-.4,0,0,0,0,0,0,0,0,0,0,0,0,0,0,0,0,0,0,0,.6-.3.3-.5.1-.6-.5-1.2-.9-1.8-1,.3.4.7.9,1.1,1.3.4.5,0,.3-.2.4,0,0,0,0,0,0-.6-.5-1.2-1-1.7-1.5-.6-.5-1.3-1-2.1-1.1,0,0,0,0,0,0,0,0,0,0,0,0,0,0,0,0,0,0,.2.1.4.2.5.3.6.6,1.5,1,1.6,1.9-.1,0-.3-.2-.4-.3-.9-.8-1.8-1.6-2.9-2,.3.4.7.7,1,1,.1.1.3.3.1.5-.2.3-.3,0-.4-.1-.4-.2-.8-.6-1.2-.8-.8-.4-1.6-1-2.5-1.1,1,.6,1.9,1.2,2.6,2-1-.3-1.8-1-3-1.2.2.4.5.4.8.6.8.5,1.6,1.1,2.1,2-.2,0-.4-.2-.6-.3-1.3-1.1-2.9-1.7-4.5-2.2,1,.7,2.1,1.2,3,2,.2.2.2.2.1.5h0c-1.8-1.1-3.7-1.7-5.7-2,.7.3,1.4.6,2.1,1,1.3.7,1.4.8,1.6,1.4-2.1-1.2-2.8-1.4-5-1.6,1.4.3,2.6.7,3.7,1.6-1.1,0-2.1-.7-3.2-.7.6.6,1.5.6,2,1.2-.2.2-.5,0-.7,0-.2-.1-.4-.2-.6-.1h0c-1.8-.5-3.6-.6-5.4-.2,1.7.1,3.4.3,5,.8h0c-.3.4-.7.5-1.2.5-1.4-.1-2.7-.2-4.1,0-1.3.1-2.3.4-2.8,1,2.9-.6,5.6-.5,8.4-.4.4,0,.9.2,1.4-.2.2,0,.4.2.7.2-.2.4-.5.3-.8.3-3.6,0-6.9,1-10.2,2.2.5,0,1.1-.2,1.6-.3,3.8-.8,7.5-1.7,11.4-1.1,1.7.2,3.4.6,5,1.3.2,0,.4.1.3.4,0,.3-.3.1-.5,0-1.5-.5-3.1-.9-4.7-1.1-2-.2-4-.4-6.1.2,7.5-.3,14.2,2.2,16.6,5.1-2.2-1.1-4-2.4-6.2-2.9,1.5.9,3.1,1.7,4.6,2.6,0,0,0,0-.1,0-.2,0-.3,0-.7-.2,1.8,1.8,3.5,3.6,4.7,5.7,0,.3.2.5.3.7.6,1.1,1.2,2.2,1.2,3.6-.3-.7-.6-1.2-.9-1.7-.6-1.6-1.7-3.3-2.3-3.7,1.7,3.1,2.5,6.4,2.9,9.8,0,.3,0,.7.2,1,0,.7,0,1.3.1,2-.2,0-.3,0-.5,0,0,0,0-.1-.1-.2,0-.1,0-.2,0-.3.2-.3,0-.6,0-.9-.6-2.5-1.7-4.9-2.4-7.4,0-.1-.1-.2-.2-.3.1,1.4,0,2.7,0,4.1,0,.4-.2.8-.5,1.2-.3-1.8,0-3.5-.9-5.3-.3,1.3-.3,2.5-.7,3.6-.4-.7-.1-1.4-.1-2.2,0-1.7-.2-3.4-.7-5,.1,1.5.3,3,0,4.5,0,.4,0,.9-.4,1.1-.1-1.7,0-3.5-.9-5.3,0,1.3.2,2.4,0,3.5,0,.1,0,.3,0,.3-.2,0-.2-.1-.2-.3-.1-1.3-.5-2.6-.9-3.8-.3-1.3-.7-2.6-1.5-3.7.3,1.3.7,2.4,1,3.6,0,0,0,.2,0,.2,0,.3,0,.6,0,.8,0,.4,0,.7,0,1.1,0,.2,0,.4-.2.4-.2,0-.2-.2-.3-.3-.1-.8-.2-1.5-.5-2.2-.2-1.3-.8-2.3-1.5-3.4,0,.7.3,1.2.5,1.8,0,.1,0,.3,0,.4,0,.2,0,.5.1.7v1.6c-.5-.3-.5-.8-.6-1.3-.3-1.4-1-2.7-2-3.7.7,1.5,1.2,3,1.2,4.7-.2-.3-.2-.6-.5-.6-.3-.6-.3-1.3-.7-1.9-.5-1.4-2.5-3.8-3.7-4.5.4.4.7.8,1,1.2.7.8,1.3,1.7,1.7,2.7.1.3.2.6-.3.4,0,0,0,0,0,0,0,0,0-.1,0-.2l-.8-1.2c-.6-1-1.6-1.5-2.6-2.2.6.8,1.2,1.5,1.8,2.3,0,0,.1,0,.2,0h0c-.2.6.5,1.2.2,1.8-.8-.6-1.1-1.6-1.9-2.2-.2-.3-.5-.7-1.1-.7.3.4.6.7.9,1,0,.2.1.4.2.6,0,0,0,0,0,0-.5,0-.8-.4-1.1-.6-1.4-1.2-2.8-2.3-4.6-2.6,1.2.7,2.4,1.3,3.4,2.4-1,0-1.6-.7-2.5-.6.6.4,1.2.7,1.9,1.1,2.8,1.6,5.4,3.5,7.5,6,.5.6.9,1.2,1.4,1.8.2.3.2.5-.3.3-.6-.7-1.2-1.4-1.8-2.1,0-.1-.2-.3-.4-.1-.1.1,0,.3.1.4.7.8,1.4,1.5,2.1,2.3.5.9,1,1.9,1.6,2.8.2.3.3.7.2,1.1,0,.2-.1-.1-.2-.1,0,0,0,0,0,0h0c-1.1-2.5-2.5-4.7-4.7-6.4,1.1,1.3,2.1,2.7,3,4.2.8,1.3,1.2,2.7,1.9,3.9,0,.1.2.3,0,.4,0,.2-.4-.3-.3.2.2.8.2,1.7.5,2.5,0,0,0,.2,0,.3,0,.7,0,1.3.2,1.9,0,.3,0,.5,0,.8-.2.5-.1,1,0,1.5,0,0,0,.2,0,.3-.3.6,0,1.3-.6,2-.3-2.3-.5-4.4-.7-6.6,0,0,0,0-.1,0v.6c-.3.8-.2,1.6-.2,2.4-.2.2-.3.5-.5,0,0-.3,0-.5-.1-.8v-2.4c-.5.8-.5,1.7-.6,2.6q-.2.7-.6.5c.3-1.2.2-2.4.2-3.6,0-.6,0-1.3-.3-1.9-.3,1.3-.2,2.6-.6,3.9-.4-2.4,0-4.9-.5-7.3,0,.9,0,1.9-.4,2.8-.5-1.6-.3-3.2-1.1-4.7.4,1.9.1,3.7,0,5.6-.3.2,0,.9-.5.9,0,0,0-.2,0-.3,0,0,0,0,0,0,.4-1,.2-2,.1-3-.1-1.4-.5-2.7-1.1-4.2,0,1.1.1,1.9.3,2.8,0,1.1,0,2.2-.4,3.3,0-.1,0-.3-.2-.3h0c0-.5,0-1.1,0-1.6,0,0,0-.2,0-.3,0-.4,0-.8-.1-1.2,0-.5-.1-1-.2-1.5-.2-1.2-.6-2.4-1.3-3.5.3,1.1.4,2.3.6,3.5,0,.9,0,1.8-.2,2.6-.4-.7-.2-1.6-.6-2.4h0c0-.3,0-.6-.1-.8h0c0-1.2-.5-2.2-.9-3.2.1,1.2.5,2.3.4,3.5,0,.2.2.6-.2.6-.1-.7-.3-1.3-.4-2,0-.2,0-.3-.2-.5h0c-.3-1.3-.8-2.6-1.6-3.7.5,1.3.7,2.6.9,3.9,0,.6,0,1.3,0,1.9,0,0,0,0,0,0-.1.1-.2.3-.1.4,0,0,0,.1-.2,0,0-.2,0-.3-.2-.4h0c0-.2,0-.3,0-.5,0,0,0,0,0-.1-.1-1.6-.4-3.1-1-4.6,0,.3,0,.7,0,1,0,.6-.3.2-.5,0-.1-.5-.3-1-.6-1.4,0-.4-.4-.7-.7-1,0,.4,0,.8.3,1.1.1.5,0,1,.3,1.5,0,.1,0,.3-.1.3-.2,0-.2-.3-.4-.4,0,0,0,0-.1-.1-.2-1-.6-1.9-1.2-2.7-.4-.8-1.1-1.4-1.8-2,.4.7.9,1.4,1.3,2,.1.4.5.8.4,1.4-.3-.4-.4-.6-.6-.9-.4-.6-.8-1.1-1.7-1.5.5.7.8,1.3,1.2,1.8.4.7.9,1.2,1.1,2-.4.2-.4-.3-.7-.2.5.7.6,1.5,1.1,2.2.2.5.3,1,.5,1.5,0,.3,0,.6.3.9h0c0,.5,0,1,.3,1.5h0c0,.2,0,.3,0,.5,0,0,0,.1,0,.2-.2.4-.3.3-.3,0-.5-1.8-1.1-3.5-1.8-5.2-.7-1.9-1.5-3.7-2.8-5.3-.2-.3-.4-.6-.9-.7,1.5,2.1,2.6,4.2,3.4,6.6.7,1.9,1.5,3.7,2.2,5.6,0,0,0,.1,0,.2-.3.5.1.9,0,1.4,0,.4.3.7.1,1-.3,0-.2-.3-.3-.5-.2-.7-.2-1.5-.6-2.3,0,.3,0,.6,0,.9.3,1.5.5,2.9.4,4.4,0,.7-.2,1.3-.4,1.9,0,.2-.2.2-.2,0,.4-2.2.2-4.9-.3-5.9,0,2.5-.3,4.9-1,7.3-.3.9-.8,1.7-1,2.6h0c-.3,0-.3.2-.4.5h0c0,0,0,0,0,0-.2,0-.2.2-.3.4-.3-.2,0-.5,0-.7,0-.5.2-.9.3-1.4,0,0,.2-.2,0-.2-.1,0-.1.1-.1.2-.3.3-.4.8-.7,1.1-.2.3-.3.4-.6.1.1-.2.6-.5.3-.7-.3-.3-.4.3-.6.4-.1,0-.3.2-.4.1.2-.5.5-1,.7-1.5.4,0,.4-.5.6-.7.4-.6.8-1.2.9-1.9,0,0,.1-.1,0-.2,0,0,0,0,0,.1-.3.4-.7.8-1,1.2-.3,0-.2-.2-.2-.3,0-.2.3-.3.2-.5,0,0,0-.1.1-.2,0,0,0,0,0,0,0,0,0,.1,0,.2-.3.1-.4-.5-.8-.2.5-.8,1-1.5,1.4-2.3,0-.2.4-.3.2-.5-.2-.2-.3.2-.5.3-.4.4-.6,1-1.3,1.2.6-1,1.1-2,1.4-3h0s0,0,0,0c0-.1,0-.2.1-.3.3-.3.3-.7.4-1.3-.3.6-.6.9-.6,1.3-.6.8-.9,1.9-1.8,2.5-.3-.2,0-.3,0-.5.6-1.4,1.3-2.8,1.5-4.5-.1.7-.7.6-1.2.8.3-1,.6-1.9.9-2.9-.6.3-.5.8-.8,1.1-.3.3-.4.8-1,.7.8-1.2,1.3-2.5,1.6-3.9-.5.8-.5,1.8-1.2,2.7,0-1.4.4-2.6.2-3.8-.3.4-.5.9-.7,1.3-.2.4-.5.9-.7,1.3-.2-.4.1-.8.1-1.3.4-1.1.4-2.3.3-3.4-.4,1-.8,1.9-1.3,2.8,0,.1,0,.6-.5.3.8-2.5.2-5-.4-7.5-.4.1-.6.4-.5.7.3.7,0,1.3,0,2h0c-.1,0-.1.1-.1.2-.5.7-1.1,1.2-1.8,1.4-.2,0-.3,0-.3.3,0,1-.6,1.5-1.3,2.1-.5.5-.8,1.2-1,1.9-.7.9-1,2.2-2,2.9-.2.1-.3.4-.3.6,0,.8-.4,1.4-.7,2.1-.7,1-1.5,2-1.4,3.3h0c-.2.6-.4,1.2-.6,1.8,0,0,0,0,0,.1-.2,0-.2.2-.2.4h0c-.1,0-.2.1-.1.2h0c-.2.1-.3.3-.3.5,0,0,0,0,0,.1-.3.3-.2.6-.2,1,0,.6,0,1.2-.4,1.8-1.1,1.8-1,3.9-1.3,5.9h0c-.2.2-.2.6-.1.9,0,0,0,.1,0,.2-.4,2-.6,4-.5,6,0,.3.1.4.4.3,0,0,.1,0,.2,0,1.5.5,3,.8,4.6,1h0c.4.3.8.3,1.3.3,0,0,.2,0,.3,0,.1,0,.2.2.3.2.3,0,.6.1.5.6-.1.4-.4.3-.7.3-.7-.1-1.3-.2-2-.3-1.4-.2-2.9-.5-4.3-.7-.5,0-.8,0-.7.6.1,1,0,2,.3,2.9.5,2.9,1.2,5.7,2.7,8.3.3.6.7.9,1.3,1.1,2.2.6,4.5,1.2,6.7,1.7,5.1,1.2,10.2,1.7,15.4,1.4.3,0,.6.1.8-.2,0,0,.1,0,.2,0,.7.2,1.5,0,2.2-.1,3.3-.5,6.6-1.3,9.7-2.4,2.5-.9,4.9-1.8,7.2-3.1h0c.2,0,.3-.1.5-.2l.8-.4c.7-.2,1.2-.6,1.4-1.2.6-1.3,1.1-2.6,1.4-4,0-.2.3-.5,0-.7-.2-.2-.5,0-.7.1-4,1.3-8.2,2.1-12.4,2.3-3.6.2-7.2,0-10.8-.7-.9-.2-1.8-.2-2.7-.7,1.2-.2,2.3.1,3.4,0,2.6,0,5.2.2,7.8-.2,2.1-.3,4.2-.4,6.2-1.1,0,0,0,0,.1,0,.2,0,.5,0,.7-.2.1,0,.2,0,.4,0,.1,0,.2,0,.2,0,2.9-.8,5.6-1.9,8.2-3.2.5-.2.8-.6.8-1.1.2-1.5.5-2.9.5-4.4.2-2.9,0-5.7-.2-8.6,0,0,0-.2,0-.2,0-2.4-.7-4.7-1.1-7,0-.3-.2-.5-.4-.7,0-.4-.1-.7-.5-.9.4-.4,0-.8,0-1.1,0-.2-.2-.6.3-.3h0c0,0,0,.1,0,.2,0,0,0,0,0,.1,0,.3.1.5.2.8,1.9,4.8,3.3,9.7,3.6,14.9.4,6.3-.3,12.3-2.8,18.1-3.4,7.9-8.6,14.4-15.8,19.2-6.3,4.2-13.2,7-20.9,7.8-8,.9-15.7,0-23.1-3.3-6.6-2.8-12.4-6.7-17.1-12.2-5.9-6.8-9.4-14.6-10.2-23.6-.2-1.7-.2-3.5-.3-5.2h0c.2-1,.1-2,.2-3.1,0,0,0-.1,0-.2,0-.2.2-.5,0-.7,0-.2,0-.4,0-.6.2-.5.2-1,.2-1.5.3-1.2.5-2.4.8-3.6.4-1.9,1.2-3.7,1.8-5.6,0,0,0,0,0,0,.4-.7.8-1.4,1-2.2,0,0,0,0,0,0,.3-.2.4-.5.5-.9.4-.7.8-1.3,1.1-2,.6.2,0,.5,0,.8,0,0,0,0,0,0-.4.8-.9,1.6-1.2,2.5-.4,1.4-.8,2.9-1.2,4.3-.6,2.7-1,5.5-1.1,8.3,0,0,0,.2,0,.2,0,.2,0,.5,0,.7,0,0,0,.2,0,.2,0,.3,0,.6,0,.9,0,0,0,.1,0,.2,0,0,0,.2,0,.3,0,.1,0,.2,0,.4,0,.2,0,.4,0,.6,0,.1,0,.3,0,.4,0,0,0,.2,0,.2,0,.2,0,.5,0,.7,0,2.8.5,5.6,1.2,8.3.2,1,.3,1,1.2.6,5.4-2.1,10.9-3.2,16.7-3.5,2.3-.1,4.6,0,7,.1.7,0,.8-.2.7-.8-.1-.7-.2-1.4,0-2.1.5-1.1.6-2.3.8-3.6,0-.3,0-.7.3-1,.9-1.4,1.2-2.8,1.1-4.5,0-.4,0-.7.3-1,1.1-1.2,1.7-2.7,1.9-4.3,0-.6.3-1,.7-1.5.8-1,1.5-2.2,1.7-3.4.4-2.3,2.2-3.6,3-5.6,0,0,.1-.1.2-.2.9-1.2,1.7-2.5,2.6-3.7.1-.1.2-.3.2-.5h0c.5-.7,1.1-1.3,1.5-2,.6-1.2,1.1-2.4,1.6-3.7.2-.1.3-.3.3-.5-.3.1-.5.2-.6.5h0c-.4,0-.6.2-.8.5-.9.6-1.7,1.3-2.4,2.2-.3,0-.4.4-.8.3.4-1,1.3-1.7,1.7-2.8-1.5,1.2-2.3,2.8-3.1,4.4,0-.7.3-1.3.5-2,.3-.6.6-1.1.9-1.7-.5.3-1,.7-1.3,1.2-.4.5-.9,1.1-1.3,1.6-.1.2-.2.4-.4,0,.2-.3.3-.7.3-1.2-.2.2-.3.4-.3.6-.1.3-.3.5-.4.8-.2.2-.3.4-.3.7,0,0,0,0,0,0-.2,0-.4,0-.6-.2.1-.5,0-1.1.4-1.5.3-.5.5-1,.8-1.5-.6.4-.9.8-1.2,1.4-.5.6-.7,1.4-1,2.1-.1.2-.3.3-.2.6,0,0,0,0,0,.1q-.5.3-.5,0c-.1-.8.4-1.5.4-2.3.2-.3.2-.6.3-.9-.3.2-.4.4-.6.6-.5.8-1,1.6-1.2,2.5-.1.4-.3.8-.4,1.3,0,.2,0,.5-.3.4-.2,0-.1-.3-.2-.5,0-.4,0-.7,0-1.1.3-1.1.7-2.3,1-3.4-1.2.9-1.1,2.6-1.9,3.7-.2-.3,0-.5-.2-.7,0,0,0-.2,0-.2.2-.3.2-.6,0-1-.4.5-.6.9-.7,1.4-.4,1-.8,2.1-1.2,3.1-.4.4-.3,0-.3-.2.2-1.6.6-3.1,1.4-4.6.1-.2.3-.4.2-.7-.6.8-1,1.5-1.3,2.4-.4,1.4-.8,2.7-.7,4.2,0,.1,0,.1-.3,0-.3-1.2-.2-2.4,0-3.6,0-.4,0-.7-.3-1.1-.9,1.6-1,3.2-1.3,4.9,0,0-.2-.1-.3-.2,0-.1,0-.2,0-.3,0-.1.1-.2,0-.3,0,0,0-.1,0-.2.2-.7.2-1.3,0-2.1-.5.8-.4,1.6-.7,2.3,0,.4,0,.7,0,1.1-.2.4,0,.9-.4,1.4-.5-1.6-.3-3.1-.2-4.5-.4,1.7-.8,3.4-.8,5.2,0,0,0,.2,0,.2,0,.1,0,.2,0,.4h0c0,.2-.1.4,0,.5,0,0,0,.1,0,.2-.2.2,0,.5-.3.7,0,0,0,0,0,0,0,0,0-.2,0-.3,0,0,0-.1,0-.2,0-.1,0-.2,0-.2-.2-.3,0-.7,0-1,.1-.1,0-.2,0-.3,0-.5,0-1,0-1.5.2-.7,0-1.3,0-2-.2.7-.5,1.5-.4,2.3-.2,1.2-.2,2.4-.2,3.8-.5-1.3-.5-2.5-.6-3.7,0-.2,0-.5,0-.8-.3.5-.3,1-.3,1.5-.3.3-.2.8-.2,1.1,0,1.3-.1,2.6-.2,4-.5-.8-.6-1.5-.6-2.2v-2.5c-.6,1.8-.5,3.7-.7,5.6-.1-.3-.2-.4-.3-.6,0-.3-.1-.7-.2-1v-3.2c0,0-.1,0-.2,0-.2,1.1-.6,2.2-.5,3.4,0,0,0,.1,0,.2-.2.4-.1.9-.1,1.4,0,.9,0,1.8,0,2.7-.4-.9-.6-1.9-.8-2.9,0-.7-.1-1.3-.3-1.9-.2.8-.3,1.6-.3,2.4,0,.4,0,.8-.1,1.2-.2.3,0,.6-.1.9,0,.4.2.9-.2,1.2,0-.4,0-.7-.1-1.1,0-.1,0-.2,0-.3,0-.2,0-.3,0-.5.1-.2,0-.5,0-.8,0-1.9,0-3.7.6-5.5.4-1.2.8-2.4,1.2-3.6-2,3-2.5,6.3-2.7,9.8,0,1.4,0,2.7,0,4.1-.1.4,0,.8-.2,1.2h0c0-.4.1-.7-.3-.9,0,0,0-.1,0-.2.1-1.1-.1-2.1-.1-3.2,0-2.5.4-4.9,1-7.3.4-1.4,1.1-2.5,1.7-3.8,0,0,.1-.1.2-.2,3.3-4.5,7.3-8.1,12.5-10.3,1.8-.8,3.7-1.4,5.8-2.1-1.4,0-2.5.3-3.6.6-2.3.6-4.4,1.5-6.3,2.9-3,2.2-5.8,4.6-8.2,7.4-.2.2-.4.5-.8.4.6-.8,1.3-1.5,1.7-2.3,0,0,.2,0,.3-.2,1.2-1.4,2.6-2.5,4-3.7.1-.1.4-.2.3-.6-1.1.9-2.2,1.8-3.3,2.6-.3.3-.6.6-1,.5.8-1.2,2-1.9,3.1-2.8,1.1-.9,2.4-1.5,3.5-2.3,1.3-.3,2.4-1.2,3.7-1.6-1.3,0-2.5.4-3.6.9-.2,0-.5.3-.9,0,2.5-1.3,5.1-1.9,7.7-2.2,2.9-.3,5.7-.2,8.7,0-1.6-.9-6.8-1.2-9.7-.5-.2,0-.5,0-.7,0,1.2-.7,2.5-.9,3.8-1.2.7-.2,1.4-.3,2.1-.5-2.3.1-4.6.4-6.8,1.1,0,0-.2,0-.3,0-.2-.5.3-.5.5-.5.8-.3,1.5-.6,2.3-.9-1.3.1-2.5.5-3.6,1.1-.4.1-.7.3-1.1.4-.1,0-.3.3-.4,0,0-.2,0-.3,0-.4.4-.3.8-.6,1.2-.9.8-.4,1.6-.8,2.4-1.2-.5-.2-.9,0-1.2.1-1.8.5-3.3,1.5-5,2.1,0,0,0-.1-.1-.2,1-1.2,2.6-1.7,3.7-2.7-2.2.7-4.3,1.5-5.9,3.1-.5.4-.9.9-1.7,1.1.5-.9,1.3-1.3,1.8-2,1-.8,2.1-1.7,3.1-2.5-1.5.4-2.8,1.1-3.9,2.1-1.2.9-2.2,2.1-3.3,3.1,0-.7.8-1,.8-1.7,0,0,0,0,0,0,.1,0,.2,0,.2-.2h0s0,0,0,0c1.2-1.1,2.2-2.4,3.7-3.6-1.6.7-3.9,2.6-5,3.9-.2.2-.4.5-.7.7-.1,0-.3.1-.2.3,0,0,0,0,0,0-.4-.3-.2-.5,0-.8.7-1.2,1.6-2.2,2.6-3.1,0,0,.2-.1.2-.2,0,0,.2-.1,0-.2-1.4,1.1-2.8,2.2-3.7,3.8-.5.4-.5,1.1-1.3,1.5.3-.6.5-1.1.7-1.6.5-.9,1.3-1.8,1.7-2.8.1,0,.3-.2.2-.3,0,0,0,0,0,0-.2,0-.1.2-.2.3-1.1.8-1.8,1.8-2.5,2.9-.3.4-.6.8-.9,1.2-.6,0-.3-.4-.2-.6.1-.4.5-.6.5-1.3-.7.9-1.4,1.6-1.7,2.6-.4.5-.7,1.2-1.4,1.7.2-1,.7-1.6,1-2.4.3-.4.5-.8.6-1.4-.5.5-1,1-1.3,1.6,0,0,0,0,0,0,0,0-.1.1-.2.2-.8,1-1.6,2.1-2.2,3.3,0,.1,0,.4-.3.3-.2,0,0-.2-.1-.3.6-1,.9-2.1,1.3-3.2-.7.9-1.4,1.8-1.8,2.8-.3.6-.6,1.2-.8,1.7-.1.3-.1,0-.2,0,.3-.6.5-1.3.3-2-.3.5-.5.9-.8,1.4ZM45.4,102h0s0,0,0,0c0,0,.1,0,.2,0,1.3.1,2.6.3,3.9.4,0-.2-.1-.4-.3-.4-.3-.8-.8-1.5-1.2-2.2v-.5c-.1-.1-.1-.3-.1-.4,0-.5.1-1,.2-1.5.1-.5,0-.6-.5-.6-1.6,0-3.2,0-4.7,0,0,0-.1,0-.2,0h-.5c-1.9,0-3.8.4-5.7.8-1.8.4-3.4,1-5,1.8-.2.1-.7.2-.4.6.8,1,1.5,2.1,2.6,2.7,1.3,1.5,3,1.6,4.5.2.4.3.7,0,1.1-.1.5-.1,1.1-.2,1.6-.3,1.4-.3,2.9-.4,4.4-.6h0ZM46.8,109.6h0s0,0,0,0c.3,0,.5,0,.8,0,3,0,5.8.7,8.6,1.6-2.4-1.4-5-2.2-7.7-2.5-2.3-.5-4.6-.4-6.9,0-.3,0-.5.1-.7.3-.3.3,0,.2.2.3.3.2.7.4,1,.5.4.1.8.5,1.2.2,1-.2,2-.3,2.9-.5.1,0,.3,0,.4,0ZM60.3,56.6c-.7.6-.9,0-1-.5-.2-.6-.2-1.2-.4-2-.5,1.1-.5,2.1-.6,3,0,.5.2.5.6.4.6-.2,1-.5,1.4-.9.5-.3.9-.6,1-1.2-.8-.2-1.3,0-1,.9,0,0,0,.2,0,.2ZM62.5,99.8h0c.5.5,1,.7,1.6.9,6.8,2.2,13.8,3.1,21,2.5,4.2-.4,8.3-1.2,12.1-3,1.2-.6,2.5-1.1,3.4-2.3,0,0,.1-.2.2-.3.4-.4.9-.8,1-1.4h0c-.6.2-1.2.4-1.8.7-5.3,1.9-10.6,3.3-16.2,3.9-4.2.4-8.3.5-12.5-.3-1.4-.2-2.7-.5-4.1-.7-.1-.1-.3-.1-.5-.1-1.9-.5-3.9-1-5.9-1.7.3.8.9,1.2,1.4,1.6,0,0,.2.1.2.2ZM50.5,104.8c0-.2-.3-.2-.5-.2-1.9-.4-3.8-.5-5.8-.3-2,.2-4,.7-5.8,1.8-.2.1-.6.2-.5.5.1.3.5.1.8,0,3.3-.8,6.6-1,9.9-.6,1.8.2,3.5.8,5.2,1.1,1,.4,1.9.8,2.9,1.1,2.9,1.4,5.7,3,8.7,4.2,3.1,1.3,6.3,2,9.7,2-1.2-.2-2.4-.4-3.6-.7-3.6-.9-6.7-2.7-9.9-4.4-1.9-1-3.8-2.1-5.8-2.9-1.7-.8-3.5-1.6-5.4-1.8ZM71.7,105.1c-2-.9-4-1.5-6.1-2.2,0,.2.2.2.3.3.3.2.6.4.8.6,4.2,3.1,9,4.2,14.1,4.4,4.8.2,9.2-1.2,13.5-3.1,1.1-.5,1.9-1.4,2.8-2.2-1.2.2-2.3.4-3.4.7-1.7.5-3.4.8-5.1,1.2.1,0,.3-.2.4-.2-4.8.8-9.5.6-14.3.2.7.3,1.4.6,2.1.7,1.3.5,2.7.7,4.2.9,2.6.3,5.3.2,7.9,0h1.4c-.2.2-.3.3-.5.3-1.6.3-3.2.6-4.9.7-2,.1-3.9,0-5.8-.3-.2,0-.4,0-.5,0-2.3-.4-4.5-1.2-6.7-1.9ZM34.9,95c.1,0,.3-.1.4-.2.2.2.4.2.6.2,3.8-.5,7.6-.5,11.4-.2.5,0,.7,0,.5-.6-.1-.6,0-1.2,0-1.8.3-1.1.3-1.1-.8-1.5-2.9-1.2-5.9-1.5-9-1.4-3.8.2-7.5.9-11,2.6-.6.3-.7.6-.4,1.2.6,1,1.2,1.9,1.7,2.9.3.5.5.5,1,.4,1.6-.6,3.3-1,5-1.4.1,0,.3,0,.3-.3ZM48.2,90.2c-.3-1.1-.3-2.1,0-3.1.2-.6.2-1.1-.1-1.6-.3-.6-.4-1.2,0-1.8.3-.9.3-.9-.6-.9-1.7,0-3.5,0-5.2.2-5.7.5-11,2.1-16,4.8-1.3.7-1.3.7-.7,2.1.6,1.5.4,1.3,1.8.7,6.4-2.9,12.8-3.1,19.4-.8.5.2,1,.4,1.6.5ZM90.6,108.4c-8.8,3.1-17.3,2.1-25.5-2,2.7,2,5.8,3.1,9,3.9,4,1,7.9,1.1,11.9.1,1.6-.4,3.2-1.1,4.6-2.1ZM49.7,96.9c-.7,1.6-.4,2.5.9,3.4,1.1.8,2.3,1.2,3.6,1.5.4,0,.7,0,1.1-.1,1.1-.6,2-1.4,2.7-2.4.8-1.2.5-2.4-.9-3.2-.3,1.4-1.2,2.3-2.4,3.1.2,0,.2.1.3.2.3.1.8-.1.8.4,0,.4-.4.6-.7.8-.3.2-.6.2-1,0-1.8-.8-3.7-1.6-4.5-3.7ZM64.4,107.5c2.3,4,13.6,7.5,17,5.2-6.4.3-11.9-2-17-5.2ZM46.3,112.4c.5.3.8.6,1.1.5,2-.2,3.9-.2,5.8.1,1.1.2,2.3.4,3.4.8,2.6.8,5.2,1.8,7.8,2.3,1.5.3,3,.5,4.5.4-1.8-.4-3.7-.8-5.5-1.3-3.4-.9-6.6-2.2-10.1-2.8-2.3-.4-4.6-.4-7.1,0ZM49.3,92.3c-.4,1.6.2,2.6,1.5,3.3.7.4,1.4.7,2.1.9,1.2.4,3.2-.7,3.6-1.9,0-.2,0-.4,0-.6-.3-.8-.6-1.7-1-2.6-.5.4-.7.9-1.1,1.3-.4.5-.5.9.3,1.1.3,0,.5.2.3.5-.5.7-1.6,1-2.3.6-1.3-.6-2.5-1.4-3.3-2.7ZM54.2,82.6c-.5.6-.9,1.1-1.3,1.5-.4.4-.7.7-.2,1.2.1.1.1.3,0,.4-.1.2-.3.2-.5.1-.2,0-.4-.1-.5-.2-1-.4-1.7-1.1-2.3-2-.5.9-.1,1.6.4,2.2.3.3.7.7,1,1q1.4,1.2,2.8,0c.1-.1.3-.2.4-.4.3-.2.4-.5.3-.9-.2-.9-.3-1.9-.3-3ZM55.7,71.6c-.5.3-1,.6-1.4.9-1.5.8-1.7,1-.5,2.3.2.2.3.3.1.6-.1.2-.4.2-.6.2-.5-.1-.9-.5-1.2-.8-.2-.3-.5-.5-.7-.8-.9.8-.6,1.7-.2,2.5.5.9.5.9,1.3.4.2-.1.5-.1.7-.2.8-.4,1.6-.8,1.8-1.7.2-1,.3-2.1.6-3.2ZM49.3,88c-.2.9,0,1.5.6,2.1.5.4,1,.9,1.5,1.3,1.4,1.1,1.4,1.1,2.7-.1.5-.4.9-.9,1-1.6,0-.5.2-1.2-.3-1.3-.4-.2-.6.5-.8.8,0,0,0,.1,0,.2-.5,1.1-.9,1.2-1.9.6-.9-.5-1.7-1.2-2.6-2ZM54.4,77.4c-.6.3-1.1.7-1.6.9-.5.2-.5.5-.3.9.1.2.3.4.5.6.4.3.7.6.3,1-.4.3-.7.9-1.4.3-.5-.4-1-1-1.4-1.5-.1-.1-.2-.4-.4-.2-.2.1-.1.3-.1.4.2,1.1.6,2.1,1.3,2.9.2.2.4.2.6,0,.7-.5,1.4-1,2-1.6.3-.3.9-.7.7-1.1-.3-.9-.1-1.8-.2-2.7ZM73.3,41.9c.6.2,1,.3,1.4.4,1.8.5,3.6,1,5.4,1.8,2.9,1.2,5.2,3.2,7.6,5.2.2.2.5.6.7.3.2-.3-.2-.5-.4-.7-2.4-2.4-5.1-4.1-8.1-5.6-2-1-4.2-1.5-6.7-1.4ZM55.9,103.3c1,.6,2,.8,2.9,1.2,1,.4,1,.4,1.4-.7,0,0,0,0,.2,0,.4.3.2.8.7,1.1.7-2.4.7-2.6-.8-3.7-1,1.5-2.4,2-4.3,2.1ZM56.9,67.2c-.8.4-1.4.7-2.2.7-.6,0-.5.2-.4.6,0,.4.4.8.3,1.2,0,.3-.1.5-.3.6-.3.1-.4-.1-.6-.3-.4-.5-.4-1.1-.6-1.7,0-.2,0-.6-.4-.5-.3,0-.5.3-.5.6,0,.9.2,1.8.6,2.6,0,.2.2.4.5.3,1.5-.3,3.4-2.4,3.6-4.2ZM55,62.8c0,0-.1,0-.2,0-.6.7-1,2.8-.6,3.6,0,.1.1.3.3.2.8-.1,1.8,0,2.3-.8.6-1,1.1-2.2,1.7-3.4-.6.2-.9.3-1.3.4-1.2.3-1.4.7-.8,1.9.2.3.2.6,0,.8-.3.3-.5.1-.8,0-.4-.3-.6-.8-.6-1.3,0-.5.2-.9.1-1.4ZM57.1,57.3c-.2.2-.3.3-.3.4-.2,1.3,0,2.5,0,3.8,0,.3.2.3.5.3,1-.2,1.7-1,2-2-1.5.6-1.9.1-2.2-2.5ZM61.1,51.5c-.5.6-1.1,2.1-1.1,2.7,0,.4.2.4.5.4,1.2.1,2.1-.5,2.6-2-.4.5-1-.1-1.1.7,0,.3-.2.4-.5.4-.4,0-.4-.3-.4-.6,0-.5,0-1.1,0-1.7ZM62.8,48.9c-.7.8-.6,1.6-.7,2.4,0,.2-.2.5,0,.6.3.1.8.2,1,0,.5-.6,1.3-1,1.7-1.8q-2,.4-2.1-1.3ZM72.6,39.4c.7-.3,1.4-.6,2.1-1.1,1.3-.9,2.8-1.3,4.3-1.7-2.4.3-4.8.5-6.4,2.7ZM64.3,46.9c-.3.6-.3,1.3-.3,1.9,0,.2,0,.5.2.5.3,0,.7,0,.7-.3.1-.9.8-.7,1.3-.8.8,0,.9-.1,1.3-.6-2.1.3-2.8.5-3.3-.8ZM60.2,57.8c-.5.2-1,.3-1.5.5-.2,0-.4.2-.3.5,0,.2.3.3.5.3.7-.1,1.2-.4,1.3-1.3ZM75.3,29.8c.7-.2,1.3-.5,1.8-1-.6.2-1.2.5-1.8,1ZM58.8,11.9s0,0,.1,0c0,0,.2.1.2,0,0,0-.2-.2-.3,0ZM58,45.7c0,0-.1.1-.1.2,0,0,0,.2,0,0,0,0,0-.1,0-.2,0,0,0,0,0,0ZM74,27.6c0,0,0-.1,0-.2,0,0,0,0,0,0,0,0,0,0,0,0,0,0,0,0,0,.2ZM95.8,47.1s0,0,0-.1c0,0,0,0,0,.1,0,0,0,0,0,.1,0,0,0,0,0-.1ZM66.4,17.5h0s0,0,0,0h0ZM74.5,66c0,0,0,.1,0,.2,0,0,0,0,0,0,0,0,0,0,0,0,0,0,0,0,0-.1ZM52.7,36.7s0,0-.1,0c0,0,0,0,0,0,0,0,0,0,.1,0,0,0,0,0,0,0ZM83.8,33h0s0,0,0,0h0Z"/>
  <path class="cls-4" d="M19.8,75.3c.1,1.7.2,3.5.3,5.2.8,9,4.4,16.8,10.2,23.6,4.7,5.4,10.5,9.4,17.1,12.2,7.4,3.2,15.1,4.1,23.1,3.3,7.6-.8,14.5-3.6,20.9-7.8,7.2-4.8,12.4-11.3,15.8-19.2,2.5-5.8,3.2-11.8,2.8-18.1-.4-5.2-1.7-10.1-3.6-14.9,0-.2-.1-.5-.2-.8,1,1.6,1.6,3.4,2.2,5.2.8,2.3,1.4,4.8,1.8,7.2.3,2.5.5,5,.5,7.5,0,.6-.1,1.1,0,1.7,0,0,0,.2,0,.2-.2.8-.3,1.7-.2,2.6,0,0,0,0,0,0-.3.3-.2.7-.2,1-.5,2.2-.9,4.4-1.7,6.6-.4,1.2-.9,2.4-1.5,3.6-1.3,2.6-2.9,5-4.5,7.4-1.7,2.3-3.5,4.6-5.8,6.4-.2.1-.2.3-.2.5,0,0,0,0,0,0-.2,0-.2.2-.2.3,0,0,0,0,0,0-.2,0-.3.1-.4.3-.7.6-1.5,1.3-2.2,1.9-.2,0-.4,0-.5.1-1.1.5-1.9,1.3-2.9,1.9-1.6,1-3.3,2-5,2.8-1.1.5-2.4.9-3.4,1.7-.5,0-.8.5-1.3.4-.5.2-1.2,0-1.4.6-.3,0-.6-.1-.9.2-.9,0-1.6.5-2.4.6-1.5.2-3,.5-4.4.7-.1,0-.3,0-.4,0-.7.3-1.6,0-2.2.5-.3,0-.6,0-.8,0,0,0-.2,0-.3,0-2.3,0-4.7,0-7-.3-.4,0-.7,0-1.1,0-1.3-.3-2.6-.5-3.9-.6-1.1-.3-2.2-.6-3.3-.9-2.5-.6-4.8-1.6-7.1-2.6-2.5-1.1-4.9-2.5-7.2-4-.5-.3-.9-.7-1.4-1-.7-.5-1.2-1.2-2.1-1.4.1-.3,0-.5-.3-.6-.9-.9-1.9-1.8-2.8-2.6-.9-.8-1.6-1.9-2.5-2.6-.6-.8-1.1-1.6-1.7-2.4-1.6-2.2-3.1-4.5-4.1-7-.4-.9-.6-1.9-1.2-2.7,0-.3,0-.5-.1-.7-1-2.2-1.4-4.5-1.8-6.8-.4-2.1-.4-4.2-.6-6.3,0-.9-.1-1.9.3-2.8Z"/>
  <path class="cls-7" d="M104.1,55s0,0-.1,0c0,0,0,0,0,.1,0,0,0,0,.1,0,0,0,0,0,0-.1ZM104.7,54s-.1,0-.1,0c0,0,0,0,0,.1,0,0,0,0,.1,0,0,0,0,0,0-.1Z"/>
  <path class="cls-7" d="M19.8,75.3c-.4.9-.3,1.9-.3,2.8.1,2.1.2,4.2.6,6.3.4,2.3.8,4.6,1.8,6.8,0,.2.2.4.1.7-.1,0-.2,0-.3,0-1.9-5.1-2.8-10.3-2.7-15.7.1-5.3,1.3-10.4,3.3-15.3.1-.3.2-.7.5-.9-.6,1.9-1.3,3.7-1.8,5.6-.3,1.2-.5,2.4-.8,3.6-.3.5-.3.9-.2,1.5,0,.2,0,.4,0,.6,0,.2-.3.4,0,.7,0,0,0,.1,0,.2-.3,1-.2,2-.2,3.1h0Z"/>
  <path class="cls-5" d="M105,56.5c0-.1.1-.2.2-.3,3.2,5.4,5,11.2,5.6,17.4.2,2,.2,3.9.1,5.9,0,.3,0,.7-.2,1-.2-.6,0-1.1,0-1.7,0-2.5-.2-5-.5-7.5-.3-2.5-.9-4.9-1.8-7.2-.6-1.8-1.2-3.6-2.2-5.2,0,0,0,0,0-.1,0,0,0-.1,0-.2,0,0,0,0,0,0-.2-.7-.5-1.4-.9-2Z"/>
  <path class="cls-2" d="M38.2,112.2c2.3,1.5,4.7,2.9,7.2,4,2.3,1,4.7,2.1,7.1,2.6,1.1.3,2.2.6,3.3.9-.4,0-.7,0-1.1,0-3.5-.8-6.9-1.9-10.2-3.4-2.2-1-4.2-2.3-6.3-3.5,0-.2-.1-.4-.2-.6Z"/>
  <path class="cls-5" d="M21.7,91.9c.1,0,.2,0,.3,0,.5.8.8,1.8,1.2,2.7,1,2.5,2.5,4.8,4.1,7,.6.8,1.1,1.6,1.7,2.4,0,.1,0,.3,0,.4-1.1-.9-1.8-2.2-2.6-3.3-2-2.8-3.4-5.9-4.6-9Z"/>
  <path class="cls-5" d="M96.7,108.7c0-.2,0-.4.2-.5,2.3-1.8,4.1-4,5.8-6.4,1.7-2.3,3.2-4.8,4.5-7.4-1.2,3.3-3.1,6.1-5.3,8.9-1.3,1.7-2.7,3.3-4.3,4.8-.3.2-.5.6-.9.6Z"/>
  <path class="cls-5" d="M82,117.7c1-.8,2.2-1.1,3.4-1.7,1.8-.8,3.4-1.8,5-2.8,1-.6,1.9-1.4,2.9-1.9.2,0,.3-.1.5-.1-3.4,2.7-7.2,4.8-11.3,6.4-.2,0-.4,0-.5,0Z"/>
  <path class="cls-7" d="M29,104.2c0-.1,0-.3,0-.4,1,.8,1.6,1.8,2.5,2.6.9.9,1.9,1.8,2.8,2.6.2.2.4.3.3.6,0,0,0,0-.1,0-1-.7-1.9-1.5-2.8-2.4-1-1-2-2-2.8-3.2Z"/>
  <path class="cls-5" d="M54.8,119.8c.4,0,.7,0,1.1,0,1.3.1,2.6.3,3.9.6.4,0,.7,0,1.1,0,2.3.3,4.6.4,7,.3,0,0,.2,0,.3,0-4.4.3-8.8,0-13.1-.9,0,0-.1,0-.2-.1Z"/>
  <path class="cls-5" d="M34.6,109.9s0,0,.1,0c.9.2,1.4.9,2.1,1.4.5.3,1,.7,1.4,1,0,.2.1.4.2.6-1.2-.8-2.3-1.6-3.4-2.5-.2-.1-.2-.3-.4-.5Z"/>
  <path class="cls-2" d="M71.6,120.2c1.5-.2,3-.5,4.4-.7,0,0,0,0-.1.1-1.4.3-2.8.5-4.2.8,0,0-.1-.1-.2-.2Z"/>
  <path class="cls-4" d="M25.5,55.8c0-.3.5-.6,0-.8.3,0,.4-.3.5-.6.2-.6.5-1.1,1-1.5-.1.9-.7,1.6-1,2.4,0,.2.2.7-.4.5Z"/>
  <path class="cls-5" d="M71.6,120.2c0,0,.1.1.2.2-.9.3-1.8.3-2.8.3.7-.6,1.5-.1,2.2-.5.1,0,.3,0,.4,0Z"/>
  <path class="cls-5" d="M75.9,119.6s0,0,.1-.1c.8-.1,1.5-.7,2.4-.6-.8.5-1.6.6-2.5.8Z"/>
  <path class="cls-7" d="M23.9,57.9c-.2.8-.6,1.5-1,2.2.1-.8.5-1.5,1-2.2Z"/>
  <path class="cls-5" d="M79.3,118.7c.3-.7,1-.4,1.4-.6-.3.6-.9.5-1.4.6Z"/>
  <path class="cls-5" d="M110.4,83.2c0-.9,0-1.7.2-2.6,0,.9,0,1.7-.2,2.6Z"/>
  <path class="cls-7" d="M24.3,57c0,.4-.2.6-.5.9,0-.4.2-.6.5-.9Z"/>
  <path class="cls-5" d="M110.3,84.3c0-.4-.1-.7.2-1,0,.3-.1.7-.2,1Z"/>
  <path class="cls-5" d="M96.1,109.3c0-.2.1-.3.4-.3-.1.1-.3.2-.4.3Z"/>
  <path class="cls-5" d="M96.5,109c0-.1,0-.3.2-.3,0,.2,0,.2-.2.3Z"/>
  <path class="cls-4" d="M92.8,16.9h1.7c-.2.9-1,.7-1.5,1-.3.2-.7.3-.9.7-.2,0-.3,0-.2.2,0,0,0,0,0,0-.9,0-1.6.5-2.1,1.3-.3.5-.6,1-1.2,1.1-1.1.2-1.6,1.1-2.2,1.8-.4.4-.7.2-1.1.3-.4.2-1,0-1.1.7,0,.7.7.3.9.7-.3.1-.6.2-.8.2-.5-.4-1,0-1.5,0-1.3.3-2.7.6-3.9,1.1,1.4-1.2,3.1-1.5,4.7-2.2-1,0-2,.2-2.9.4,1.8-.9,3.7-1.3,5.6-2-1.3-.2-2.5.3-4,.4,2-1.1,4.1-1.4,6.1-1.8-.6-.2-1.2-.1-1.7,0-.6,0-1.2.1-1.8.1,1.2-.6,2.4-1,3.7-1.3.2,0,.4,0,.5-.1.1,0,.3,0,.2-.2,0-.2-.2-.2-.4-.2-.3,0-.7.1-1,.2,1-.8,2.4-.8,3.5-1.5-2.4,0-4.5,1-6.7,1.9,1-.8,2.2-1.1,3.3-1.8-2.6.3-4.6,2-6.9,3.3,0,0,0-.1-.1-.2,1.1-.9,2.2-1.8,3.3-2.7-2,.6-3.3,2.1-5.1,3.4.3-1.2,1.2-1.7,1.5-2.6-1.8,1.4-2.9,3.4-4.4,5.3.6-1.4,1.4-2.5,2.2-3.7,0,0,.1-.1.2-.2.1,0,.2-.2.1-.3.2,0,.3,0,.3-.3-.1.1-.2.2-.3.3-.1,0-.2.1-.2.2,0,0-.1.1-.2.2-.9.6-1.4,1.5-2,2.4-.9,1.2-1.2,2.6-2.1,4,.4-1.8,1.1-3.2,1.6-4.7-.7.5-1,1-1.8,2.9-.4,1.1-.8,2.2-1.2,3.2,0-1,.4-2,.7-2.9,0-.2.4-.5,0-.6.4-1.3,1-2.4,2.3-3,.8-.4,1.5-1,2.1-1.6.7-.7,1.5-1.1,2.3-1.6.3-.2.7-.3,1.1-.1.3.2.7,0,1-.1.4-.2.8-.4,1.2-.6.3-.2.7-.3,1-.1.8.6,1.7,0,2.4,0,1.6-.4,3.2-.3,4.7-.6.5,0,.9-.2,1.4-.3Z"/>
  <path class="cls-4" d="M36.9,81c1.5,0,3-.3,4.6-.3,2.1,0,4.3,0,6.4.2.7,0,.8-.2.7-.7-.2-1.1,0-2.2.5-3.2.1-.2.2-.5.2-.8,0-1.6.4-3,1.3-4.3.3-.4.2-1,.2-1.5,0-1.1,0-2.1.8-3,1.1-1.2,1.1-2.9,1.6-4.3.1-.4.3-.6.6-.9.8-1,1.5-2.2,1.8-3.5.3-1.1.5-2.2,1.5-3,.5-.4.3-1.2.8-1.7.2-.2.4-.6.6-.8.5-.4.9-.9,1.2-1.6.3-.8,1.2-1.2,1.6-1.9,0,0,.1,0,.2,0-.9,1.2-1.7,2.5-2.6,3.7,0,0-.1.1-.2.2-.8,2-2.6,3.4-3,5.6-.2,1.3-.9,2.4-1.7,3.4-.4.4-.6.9-.7,1.5-.2,1.6-.8,3-1.9,4.3-.3.3-.3.7-.3,1,.1,1.6-.2,3.1-1.1,4.5-.2.3-.2.6-.3,1-.1,1.2-.3,2.4-.8,3.6-.3.7-.2,1.4,0,2.1.1.6,0,.9-.7.8-2.3-.2-4.6-.3-7-.1-5.7.3-11.3,1.4-16.7,3.5-1,.4-1,.4-1.2-.6-.7-2.7-1.2-5.5-1.2-8.3.1.1,0,.4.3.4,0,0,0,.2,0,.3-.2.2-.2.4,0,.6,0,0,0,0,0,.1-.1.8.2,1.5.3,2.3,0,.5,0,1,.3,1.4,0,.3,0,.5,0,.8-.1.7.3,1.2.4,1.9,0,.4.4.4.7.4.7-.1,1.5-.2,2.2-.5.4-.2,1,0,1.3-.4.2,0,.4,0,.6-.1,1.6-.6,3.3-.8,5-1.2,1.2-.3,2.4-.3,3.6-.7Z"/>
  <path class="cls-4" d="M60,17.5c2.2,1.2,4.1,2.7,5.2,4.9-1.1-1.3-2.3-2.4-3.9-3.1,1.9,1.5,3.2,3.4,4.2,5.6-1-1.1-1.7-2.5-3.3-3,1.4,1.8,2.9,3.2,3.3,5.4-.8-1.1-1.3-2.5-2.4-3.3.6,1.5,1.6,2.9,2,4.4,0,0-.1,0-.2.1l-1.2-1.8c0,0-.2,0-.2,0,1.4,3.3,2.4,6.6,3,10.1-1.5-3.8-2.7-7.8-4.3-11.5.5-.4.5-.9.2-1.5h0c.2,0,.3-.1.2-.4-.2-.3-.3-.7-.5-1-.1-.2-.2-.5,0-.7.7-.6,0-.9-.2-1.2-.6-.5-.7-1.5-1.5-1.8,0,0,0,0,0,0,1-.8-.5-.6-.4-1.1,0,0,0-.2,0-.3Z"/>
  <path class="cls-4" d="M71.6,25.7c-.4.2-.5.5-.6.9-.3,1.2-.7,2.5-1.1,3.7.5-5.2.5-10.3-2.6-14.8,1.5,4,2.6,8.1,2.1,12.6-.2-2.2-.5-4.3-.9-6.3-.7-3.2-1.8-6.4-3.9-9,0-.1-.1-.2-.2-.3.6.2.9.7,1.3,1.1.3.4.5.9,1.2.7.2,0,.4.1.5.3.9,1,1.4,2.2,1.9,3.4.9,2.2,1.4,4.5,1.3,6.8,0,.2,0,.5.3.6.3,0,.3-.1.4-.3,0-.2,0-.6.4-.5.3,0,.2.4.2.6,0,.1,0,.3-.1.4Z"/>
  <path class="cls-4" d="M55.7,29c1.9,1.1,3.8,2.2,5.5,3.8-.9-.5-1.8-1.1-2.8-1.6-.2-.1-.4-.3-.5-.1-.3.3.2.4.3.5,2.2,2.2,4.3,4.3,6.5,6.5.3.3.5.6.8,1.1-.6,0-.7-.4-.9-.6-2.5-2.3-5.3-4-8.3-5.6-2-1-4.1-2-6.3-2.6-.6-.2-1.2-.3-1.7-.4-.2,0-.4,0-.4-.3,1.7-.2,3.3.4,4.9.8,0,.3.3.3.5.4,2.2,1,4.4,2,6.5,3.3.2.1.4.3.9.3-.3-.3-.5-.5-.7-.7-.8-.9-1.9-1.2-2.8-1.9,0,0,.2-.1.2-.2-.5-.2-.5-.8-.7-1.1-.3-.5-1-.8-1-1.5Z"/>
  <path class="cls-4" d="M38.4,52.4c.4,0,.6-.2.8-.4,2.4-2.8,5.2-5.3,8.2-7.4,1.9-1.4,4-2.3,6.3-2.9,1.1-.3,2.2-.5,3.6-.6-2.1.7-4,1.3-5.8,2.1-5.2,2.2-9.2,5.8-12.5,10.3,0,0-.1.1-.2.2,0,0-.2-.2-.3-.2-.9-.2-.6-.6-.2-1Z"/>
  <path class="cls-4" d="M45.4,29.8c2.7.5,5.3,1.2,7.7,2.3.6.2,1.1.5,1.7.9-.4.1-.6,0-.9-.1-3.4-1.2-6.8-2.2-10.4-2.2-1.4,0-2.8.1-4.2.4-.3,0-.3,0-.3.4-.6.2-1.2.3-2,.3.9-.8,1.9-1.1,2.9-1.2,1.4-.2,2.9-.2,4.3-.3.5,0,.8-.1,1.1-.5Z"/>
  <path class="cls-4" d="M43.9,39.4c1.7-1.6,3.8-2.4,5.9-3.1-1.2,1-2.7,1.5-3.7,2.7-.1,0-.2.1-.2.2,0,.2.2,0,.3,0,1.7-.6,3.3-1.6,5-2.1.3,0,.7-.3,1.2-.1-.9.4-1.7.8-2.4,1.2-.6,0-1.1.2-1.6.4-1.1.5-2.2,1-3.3,1.5-.2-.4.3-.5.2-.9-.5-.2-.9.3-1.4.3Z"/>
  <path class="cls-4" d="M53,40c2.9-.7,8.1-.4,9.7.5-3-.1-5.9-.2-8.7,0-.3-.3-.6-.2-.9-.2-.4-.1.8-.4,0-.4Z"/>
  <path class="cls-4" d="M33.3,35.3c.7.1,1.2-.3,1.7-.5,2.6-1.3,5.3-2.1,8.2-2.2-3.4.9-6.7,2.3-9.9,3.7.2-.3-.4-.7,0-1Z"/>
  <path class="cls-4" d="M22.1,70.9c0-2.8.5-5.6,1.1-8.3.3-1.5.8-2.9,1.2-4.3.3-.9.7-1.7,1.2-2.5,0,1.1-.2,2.1-.7,3-.5.9-.7,2-1,3-.8,2.7-1.2,5.5-1.3,8.3,0,.3,0,.6-.4.8Z"/>
  <path class="cls-4" d="M39.3,31.5c2.2-.4,4.4-.3,6.6,0,.9,0,1.7.3,2.5.6-2.9-.1-5.9-.3-8.8.3-.2-.2,0-.7-.3-.8Z"/>
  <path class="cls-4" d="M60.3,15.9c1.2,1,2.7,1.7,3.7,3-.9-.7-1.9-.9-2.9-1.4-.4-.2-.9-.6-1.5-.3-.3,0-.5,0-.5-.4,0-.3.3-.2.4-.3.4-.2.6-.4,0-.7-.5-.3-.7-.7-.9-1.2,1.6.6,3,1.4,4.3,2.5-1-.2-1.6-1.2-2.7-1.2,0,0,0,0,0,0,0,0,0,0,0,0,0,0,0,0,0,0Z"/>
  <path class="cls-4" d="M58.3,20.7c1.5,1.4,2.4,3.2,3.3,5,.3.7.8,1.4,1,2.2-.3,0-.3-.2-.4-.3-1.2-2.2-2.7-4.1-4.4-5.9.3-.2.7-.4.6-.9Z"/>
  <path class="cls-4" d="M72.5,27.2c-.9,2.9-1.2,6.1-2.5,8.9,0-1.1.3-2.2.6-3.3.5-2.1.7-4.3,1-6.5.5,0,.4.8.9.8Z"/>
  <path class="cls-4" d="M41,21.2c.2.4.5.1.7,0,1.4-.3,2.8-.5,4.3-.4-.9.3-1.9.4-2.8.9,2,0,3.9-.3,6-.2-.6.3-1.1.3-1.6.4-.5.1-1,.2-1.5.4-.5.2,0,.3.1.4-.2,0-.4,0-.5,0-.2,0-.4,0-.4-.1,0-.2.3-.2.3-.5-.6,0-1.2,0-1.8-.2-1-.1-1.9-.6-2.9-.3-.1,0-.3,0-.3-.2,0-.3.2-.3.5-.3Z"/>
  <path class="cls-4" d="M61.2,10.2c-.2.4.1.5.3.7.5.6,1.1,1.2,1.4,1.9-.1.1-.2,0-.3,0-1.8-2.1-4.2-3.2-6.7-4.2-.7-.3-1.3-.6-1.9-.9.4,0,.8,0,1.2.2,1.5.7,3.1,1.3,4.7,2,.1,0,.3.2.4,0,.4-.3.6,0,.8.3Z"/>
  <path class="cls-4" d="M53.2,7.4h-.8c1.7.9,3.2,1.7,4.5,2.6,0,.4-.5.1-.5.5.7.4,1.5.7,2.1,1.3-.4-.1-.9-.2-1.3-.4-.2,0-.4-.1-.3.2-.1,0-.4-.1-.4-.2,0-.9-1.1-1-1.4-1.7-.3-.6-1.1-1.3-1.9-1.6-.7-.2-1-.8-1.5-1.2.6,0,1.2.1,1.6.5Z"/>
  <path class="cls-2" d="M57.1,31.8c.9.7,2,1,2.8,1.9.2.2.4.4.7.7-.4,0-.6-.1-.9-.3-2.1-1.3-4.2-2.3-6.5-3.3-.2,0-.5,0-.5-.4,0,0,.1,0,.1,0,.2.1.4.2.6.1,1.1.4,2.1.8,3.2,1.1,0,.1.2.2.4.2h0Z"/>
  <path class="cls-4" d="M51.8,18.1c1.5.9,2.9,1.9,4.1,3.2,0,0,.2.2.1.3,0,.1-.2.1-.3,0-1.6-1.5-3.6-2.2-5.5-3.3.5,0,1.1.3,1.6-.2Z"/>
  <path class="cls-4" d="M39.6,39.7c1-1.3,3.4-3.2,5-3.9-1.4,1.2-2.5,2.5-3.7,3.6,0,0,0-.1,0-.2-.1,0,0,.1,0,.2,0,0,0,0,0,0,0,0-.1.1-.2.2,0,0,0,0,0,0-.4,0-.7,0-1.1.1Z"/>
  <path class="cls-4" d="M40.3,48.8c.5,0,.7-.2,1-.5,1.1-.9,2.1-1.7,3.3-2.6.1.4-.1.5-.3.6-1.4,1.2-2.8,2.3-4,3.7,0,0-.2.1-.3.2-.4-.6-.6,0-1,.1.2-.7.7-1.1,1.2-1.4Z"/>
  <path class="cls-4" d="M51.4,39.4c2.2-.8,4.5-1,6.8-1.1-.7.2-1.4.3-2.1.5-1.3.3-2.6.5-3.8,1.2-.3-.2-.5-.6-.9-.6Z"/>
  <path class="cls-4" d="M55.2,27.7c1.3.3,2.3,1.2,3.5,1.7.6.2,1,.6,1.5,1.3-1.7-1.1-3.4-1.7-5.3-2.1.3-.2.6-.4.2-.8Z"/>
  <path class="cls-4" d="M37.8,40.2c.9-1.6,2.4-2.6,3.7-3.8.1.1,0,.2,0,.2,0,0-.2.1-.2.2-1,.9-1.9,1.9-2.6,3.1-.2.3-.4.5,0,.8-.2.3-.4.6-.8.8-.1-.4,0-.7.2-.9.4-.5-.2-.3-.3-.4Z"/>
  <path class="cls-4" d="M46.5,17.7c1.4.4,2.9.9,4.1,1.7-1.6-.4-3.1-.7-4.7-1.1.4,0,.3-.5.5-.6Z"/>
  <path class="cls-4" d="M43.1,38.2c1.1-1,2.4-1.7,3.9-2.1-1,.8-2.1,1.7-3.1,2.5-.3-.1-.6-.2-.8-.3Z"/>
  <path class="cls-4" d="M33.9,42.1c.3-1,1-1.6,1.7-2.6,0,.7-.3.9-.5,1.3,0,.2-.4.6.2.6-.2.8-.7,1.4-1.1,2.1-.3-.4-.1-.8,0-1,.3-.5-.2-.4-.4-.4Z"/>
  <path class="cls-4" d="M57.4,21.3c-.6-.3-1.1-.8-1.6-1.2-1.1-.7-2.1-1.4-3.2-2.2.3-.2.4,0,.6.1,1.4.8,2.8,1.7,4,2.8.1.1.2.2.2.4Z"/>
  <path class="cls-4" d="M47.5,23.4c.3.3.7.2,1,.2,1.7.1,3.3.3,5,.9-.7,0-1.3,0-1.9,0,0,0,.3-.2,0-.2-1.3-.2-2.7-.5-4.1-.3-.3,0-.6,0-1-.2.2-.3.5-.3.8-.3Z"/>
  <path class="cls-4" d="M38.9,37.4c-.4,1-1.2,1.8-1.7,2.8-.3-.3-.6.5-.9,0,.7-1.1,1.5-2.1,2.5-2.9,0,0,0,0,0,0Z"/>
  <path class="cls-4" d="M47.1,42.9c1.2-.5,2.3-.9,3.6-.9-1.3.4-2.4,1.3-3.7,1.6,0-.2.1-.3.2-.5.2-.3,0-.2-.2-.2Z"/>
  <path class="cls-4" d="M54.2,25.6c1,0,2,.4,3,.9-1.5,0-2.7-.2-4-.5.2-.4.7-.3,1-.4Z"/>
  <path class="cls-4" d="M39.3,20.4c.6-.3,1.3-.3,1.9-.4-.3.2-.6.3-1,.6.9.1,1.6-.3,2.3-.3-.4.4-1,.5-1.5.8,0-.3,0-.4-.3-.3-.3,0-.7,0-1,.1-.5.1-.4-.3-.4-.5Z"/>
  <path class="cls-4" d="M64.3,13.2c.9,1.2,1.4,2.6,2.1,3.9,0,0-.1,0-.2,0-.7-1.3-1.4-2.5-2.1-3.8,0,0,.1-.2.2-.3Z"/>
  <path class="cls-4" d="M29.4,44.7c.5-1,1.2-1.9,1.8-2.8-.4,1.1-.7,2.2-1.3,3.2,0-.5-.4-.2-.6-.4Z"/>
  <path class="cls-4" d="M32.1,37.7c.8-.7,1.7-1.1,2.6-1.4-.4.7-.9,1-1.5,1.4-.4-.2-.4,0-.4.3,0,0,0,0,0,0-.2,0-.4,0-.6,0,0,0,0,0,0,0,0,0,0-.2,0-.3Z"/>
  <path class="cls-4" d="M46.6,22.7c1.5-.1,3-.1,4.4.1-1.1,0-2.1.3-3.2.4.3-.3.1-.4-.2-.5-.3,0-.7,0-1-.1Z"/>
  <path class="cls-4" d="M50.2,39.1c1.1-.7,2.3-1,3.6-1.1-.8.3-1.5.6-2.3.9-.2,0-.6,0-.5.5-.4.3-.5-.5-.9-.3Z"/>
  <path class="cls-4" d="M42.5,18.7c1-.2,2,.1,3.1.1,0,0,0,.2,0,.2-.9,0-1.8,0-2.7,0,.3-.4-.4,0-.3-.4Z"/>
  <path class="cls-4" d="M59.8,14.1c.7,0,1.4.4,1.9.9-.8-.2-1.7-.4-2.5-.7.2-.1.5.1.6-.3Z"/>
  <path class="cls-4" d="M30.3,38.5c0,.1,0,.3.2.3-.5.6-1,1.1-1.6,1.4.2-.8.9-1.2,1.4-1.7Z"/>
  <path class="cls-4" d="M27.9,45.8c.3-.5.5-.9.8-1.4.2.7,0,1.3-.3,2,0-.4-.3-.5-.6-.6Z"/>
  <path class="cls-4" d="M26.8,47.1c0,.1,0,.3,0,.4,0,.8-.4,1.3-.8,2,0-.9.2-1.7.7-2.4Z"/>
  <path class="cls-4" d="M32.8,41.6c.2-.6.7-1,1.3-1.6,0,.6-.4,1-.6,1.4-.3-.1-.4.2-.7.2Z"/>
  <path class="cls-4" d="M32.6,36.6c-.5.5-1.1.8-1.6,1.2.4-.7.9-1.1,1.6-1.2Z"/>
  <path class="cls-4" d="M53.8,27c.5.1,1.1.2,1.5.6-.6.1-1-.3-1.5-.6Z"/>
  <path class="cls-4" d="M40.6,18.4c.1.3.4.2.6.3-.5.2-1,0-1.5,0,.2-.4.6-.2.9-.3Z"/>
  <path class="cls-4" d="M37.8,20.7c.5-.2,1-.3,1.5-.3-.5.2-1,.3-1.5.3Z"/>
  <path class="cls-2" d="M59.3,13.8c-.2,0-.4,0-.6-.2-.3-.3,0-.2.2-.2,0,0,0,0,0,0,.2,0,.3.2.5.2,0,0,0,.1-.1.2Z"/>
  <path class="cls-4" d="M33.2,36.3c-.2.2-.4.3-.7.4.1-.3.3-.5.7-.4Z"/>
  <path class="cls-4" d="M35.8,20.9c0,0,0,.1.1.2-.2.1-.3.2-.6,0,.1-.2.3-.3.5-.3Z"/>
  <path class="cls-4" d="M22.1,73c0-.3,0-.6,0-.9.2.3.2.6,0,.9Z"/>
  <path class="cls-4" d="M22.1,71.9c0-.2,0-.5,0-.7.1.2.2.5,0,.7Z"/>
  <path class="cls-4" d="M59.7,17.2c.2,0,.3.1.3.3-.2,0-.4,0-.3-.3Z"/>
  <path class="cls-4" d="M30.9,37.8c0,.2-.2.3-.4.4,0-.3.2-.4.4-.4Z"/>
  <path class="cls-4" d="M22.1,74.4c0-.2,0-.4,0-.6.2.2.2.4,0,.6Z"/>
  <path class="cls-4" d="M53.5,30.5c-.2,0-.4,0-.6-.1.2,0,.4,0,.6.1Z"/>
  <path class="cls-2" d="M51.2,17.6c0,0-.3,0-.3-.2,0-.1.3,0,.3.1,0,0,0,0,0,0Z"/>
  <path class="cls-4" d="M32.3,38c0,0,0,.2-.2.2,0,0,0,0,0,0,0-.1.1-.1.2-.2,0,0,0,0,0,0Z"/>
  <path class="cls-4" d="M63.9,13.1c-.2,0-.3-.2-.3-.4.2,0,.3.1.3.4Z"/>
  <path class="cls-4" d="M38.7,40.7c0-.2.1-.3.2-.3,0,.1-.1.3-.2.3Z"/>
  <path class="cls-4" d="M64.1,13.4c-.1,0-.2-.1-.2-.3.2,0,.2.1.2.3Z"/>
  <path class="cls-4" d="M52.4,17.9c-.2,0-.3,0-.4-.2.2,0,.3,0,.4.2Z"/>
  <path class="cls-1" d="M45.7,40.2c0,.1-.2.2-.3.2,0,0,0,0,0,0,0-.1.2-.2.3-.2h0Z"/>
  <path class="cls-4" d="M57.7,21.6c-.1,0-.2-.1-.2-.2.1,0,.3,0,.2.2Z"/>
  <path class="cls-4" d="M62.5,23.9c0,0,0-.1-.1-.2,0,0,0,0,0,0,0,0,0,.1,0,.2,0,0,0,0,0,0Z"/>
  <path class="cls-4" d="M30.5,38.3c0,.1,0,.2-.2.2,0-.2,0-.3.2-.2Z"/>
  <path class="cls-4" d="M57.1,31.8c-.2,0-.3,0-.4-.2.2,0,.3,0,.4.2Z"/>
  <path class="cls-4" d="M22.1,75c0,0,0-.2,0-.2,0,0,0,.2,0,.2Z"/>
  <path class="cls-4" d="M73.5,25c0,.1,0,.2-.2.2,0,0,.1-.1.2-.2Z"/>
  <path class="cls-4" d="M22.1,73.5c0,0,0-.2,0-.3,0,0,0,.2,0,.3Z"/>
  <path class="cls-1" d="M45.7,40.2s0,0,0,0c0,0,0,0,0,0,0,0,0,0,0,0Z"/>
  <path class="cls-4" d="M51.6,17.9c0,0,.1.1.2.2,0,0-.1-.1-.2-.2Z"/>
  <path class="cls-4" d="M52.6,18c-.1,0-.2,0-.3-.1,0,0,.2,0,.3.1Z"/>
  <path class="cls-4" d="M32.6,41.8c0,0,.1-.1.2-.2,0,.1,0,.2-.2.2Z"/>
  <path class="cls-4" d="M82.7,98.8c-.2.3-.5.2-.8.2-5.2.3-10.3-.2-15.4-1.4-2.3-.5-4.5-1.1-6.7-1.7-.6-.2-1-.5-1.3-1.1-1.5-2.6-2.2-5.4-2.7-8.3-.2-1-.2-1.9-.3-2.9,0-.6.2-.7.7-.6,1.4.2,2.9.5,4.3.7.7.1,1.3.2,2,.3.3,0,.6.2.7-.3.1-.4-.1-.5-.5-.6-.1,0-.2-.1-.3-.2.2-.1.6,0,.7-.4.3-1.1.6-2.2.9-3.4.2-.3.4-.6.5-.9.9-1.6,2-2.9,3.4-4,2.5-2,5.3-3,8.5-3,1.9,0,3.7.2,5.4,1,.9.4,1.7,1.1,2.6,1.4,0,0,0,.2.2.3,3,2.2,4.8,5.2,5.6,8.8,0,.2,0,.4.3.4.6,0,1.2.2,1.7-.3.7,0,1.4.1,2-.5.3,0,.6.2.9.1,1-.3,2-.4,2.9-.9.4,0,.8,0,1.1-.2.3-.2.7-.3,1.1-.2-.7.3-1.3.7-2,.9-4.1,1.1-8.2,1.6-12.4,1.5-3.3,0-6.7-.3-10-.5,2,.5,4,.8,6,1,4,.4,8,.6,12.1-.2,2.1-.4,4.1-1.1,6.1-1.9,0,.1,0,.3.1.4-.3.2-.6.3-1,.5,0,0-.1,0-.2,0-.8.3-1.7.3-2.5.7-.6.2-1.2.3-1.8.5-.4.2-1,0-1.3.4-.8-.1-1.6.3-2.4.4-.6,0-1,1-1,1.6,0,.4.3.7.7.5,1.5-.6,3-.4,4.5-.9.3,0,.5,0,.8,0,.3,0,.6,0,.8,0-2,.7-4.1.8-6.2,1.1-2.6.3-5.2.1-7.8.2-1.1,0-2.1-.2-3.4,0,1,.5,1.9.5,2.7.7,3.6.7,7.2.9,10.8.7,4.2-.2,8.4-1,12.4-2.3.2,0,.5-.3.7-.1.2.2,0,.4,0,.7-.4,1.4-.9,2.7-1.4,4-.3.7-.8,1-1.4,1.2-.1-.3,0-.3.3-.5,1-.8,1.6-1.9,1.7-3.2h0c.2,0,.2-.2,0-.3,0-.2.1-.5.2-.7,0-.3,0-.4-.3-.4-.7,0-1.3.2-1.9.7-.6,0-1.1,0-1.6.2-.9,0-1.8.2-2.7.5-1.2.3-2.4.2-3.5.6-1.9-.1-3.7.5-5.6.3-.3,0-.3.1-.5.3-.7.8-1,1.8-1.6,2.6-.2.2-.4.4-.5.7,0,0-.1,0-.2.1h0c-.4.3-.7.6-1,1-.2.1-.4.2-.5.4-2.7,2.4-5.9,3.3-9.5,3.3-1.9,0-3.8-.5-5.6-1.2,0,0,0,0,0,0,0,0,0,0-.1-.1-2-.9-3.7-2.3-5-4.1,0,0-.1-.1-.2-.2h0c0,0-.1-.2-.2-.3,0,0,0,0,0-.1-1.2-2.1-2-4.4-1.9-6.8,0-.4-.2-.5-.5-.6-1.9-.4-3.9-.7-5.8-.9-.6,0-.7.2-.7.7.2,2.2.5,4.3,1.1,6.4.2.8.3,1.7,1,2.3h0c0,.4.1.7.4.9.2.8.4,1.6,1.3,1.8,1,.2,1.9.5,2.9.7,1.2.3,2.4.6,3.6.9,1.1.3,2.2.5,3.3.8,1,0,1.9.1,2.9.3,1.7.2,3.5.6,5.2.7,1.7,0,3.4-.2,5.1-.1Z"/>
  <path class="cls-5" d="M92.2,82.9c-.5.5-1.1.2-1.7.3-.2,0-.3-.2-.3-.4-.8-3.6-2.6-6.6-5.6-8.8,0,0-.1-.2-.2-.3.3-.6-.1-1.2-.6-1.3-.6-.2-.5-.6-.4-.9.1-.4,0-.7-.3-.9-.2-.2-.3.4-.7.2,0-.4,0-.8.2-1.2.2-.8,1.1-1.5.5-2.5,0,0,0-.3.1-.3.7-.6,1-1.5,1.6-2.2.6-.7.4-1.6-.5-2h0c0-.3,0-.6.4-.8.1,0,.4-.3.2-.6-.2-.2-.3.2-.6.1-.2,0-.2.2-.3.3,0,.2-.2.3-.3.1-.1-.1-.3-.3-.1-.4.2-.1.3-.3.5-.4.3-.1.7-.3.8-.7.2-.7.7-.8,1.4-.7,0,0,0,.2,0,.3,0,0,0,.2,0,.2,1,.3,1.8.8,2,2,0,0,0,0,0,0-.1.6.1,1.1.6,1.6.2.2.3.4.4.6q.4.3.6-.5c.3.4.4,0,.6-.2,0,.3,0,.6.1.8.1.5.3.2.5,0,0,0,.2.1.2.2h0c0,.4-.1.7.1,1h0c0,.7,0,1.3.1,1.9v3.6c0,0,.1,0,.2,0,.6-1.3.9-2.7,1.1-4.1.3,0,.5.3.8,0,.3-.3.4.4.7.3-.1.7.8.9.8,1.6,0,.1.2.4.4.4.3,0,.3-.3.3-.6,0-.5-.2-1.1.4-1.5,0,0,0-.2,0-.2-.3-.6-.3-.9.4-1.3.6-.3-.6-.3-.3-.7.2-.2.9.2.5-.6,0-.2-.6-1.1.4-1,.1,0,.2-.1.2-.2,0-.8.7-1.1,1.1-1.6.8-1.1,1.9-1.8,3.3-2,0,.1.2.3.3.4,0,0,0,.1.1.2-.1.3-.5.7,0,1,.3.2.5.2.7-.1.1,0,.1-.2,0-.4-.1-1.5,0-3-.1-4.4,0,0,0-.1.1-.2.3-.1.2-.6.7-.5.4.1.3.5.4.8,0,.2.2.3.3.5,0,.1,0,.3.1.4,0,0-.1.1,0,.2,0,.3.2.6.3.9-.1.7.3,1.3.4,1.9.3.2.5.5.5.9-.2.2,0,.5,0,.8.7,2.3,1,4.8,1.2,7.2,0,.5,0,1,0,1.5,0,.2,0,.5-.2.7-.1,0-.3,0-.3,0,0-.7-1-.9-1.1-1.6,0-.1-.1-.2-.3-.2-.2,0-.2.2-.1.3,0,.2,0,.3.1.4.9,2.1.7,4.3.1,6.5,0,.2-.1.3-.2.5-.3-.4-.2-.8,0-1.1.3-.8.2-1.7.2-2.6,0-.2,0-.5-.2-.5-.3,0-.3.3-.3.5,0,.3.2.7-.1.9-.4.2-.4.5-.6.8-.5-.4-.8-.2-1.1.3,0,.1,0,.6-.4.5-.5-.1-.7.3-.9.7-.2.4,0,.7-.2,1-.8-1.3-.7.3-1.2.4v-1.2c-.4.6-.7,1.2-.9,1.9-.3.8.1,1.8-.8,2.3-.4.3-.8.6-.9,1.1-.9.5-2,.6-2.9.9-.3.1-.6,0-.9-.1,0-.5.4-.9.6-1.2.6-.9,1.4-1.8,1.9-2.8.4-.8,1-1.4,1-2.4.5,0,0,.6.3.8.3,0,.2-.3.4-.5.5-.4,1.1-.6,1-1.5-.1-1-.5-1.9-1.2-2.7,0,.1-.2.2-.2.2-.1.6-.3.8-.9.3-.1,0-.2-.3-.5-.1-.5.3-.9,1.9-.7,2.4,0,0,0,.2.2.2.2,0,.2-.2.2-.3,0-.3-.1-.6.2-.9.4,1.9.2,3.6-1.4,4.9-.4.4-.9.7-1.2,1.4-.2.4-.5.9-.8,1.2-.4.4-1,.5-1.5.8.2.2.4.3.5.6ZM99,66.2c0-.1,0-.3-.3-.2,0,0-.1.1-.1.2,0,.2.2.1.4,0,0,.4-.5.7-.7,1,0,.1-.2.3,0,.4.2.2.4,0,.5,0,.2-.3.4-.7.6-1.1.1-.3-.2-.3-.4-.3ZM100.5,64.1c-.4.1-.6-.8-1.1-.3-.1.1-.4.4-.1.7.6.6.8-.3,1.2-.4ZM91.2,67.1c-.2.3-.6-.2-.7.2,0,.2,0,.6.3.6.3,0,.4-.4.4-.8ZM85.8,60s.1-.1.2-.2c0,0-.1,0-.2,0,0,0-.2,0-.2.1,0,0,0,.1.2.1Z"/>
  <path class="cls-6" d="M60.6,82.3c0-.1,0-.3-.2-.4-.3-.4-.3-.4-.9.2.3-.7-.1-.8-.3-1,.2-.2.3-.1.5,0,.4,0,.6,0,.7-.5,0-.7,0-1.5.6-2.1.5-.6,0-1.1,0-1.7.1-.4.6-1.2,1-1.2.3,0,.3-.2.4-.4.2-1.4.8-2.6,1.5-3.8.5-.8.9-1.6,1.3-2.4-.2-.2-.3,0-.4,0-.4.2-.5,0-.4-.3.6-3,2.5-4.8,5.3-5.9.6-.2,1.3-.2,1.7-.9.2.1.4,0,.6,0,.6.2.1.6.1.9-.1.2-.3.3-.4.5-.2.3-.9.5-.5,1,.2.3.8,0,1.2,0,.1,0,.3,0,.3,0,0,.7.5,1.4.3,2.2-.2.5-.5,1-.7,1.5,0,.3.2.5.2.8-.5.9-1.3,1.5-2,2.5.9-.3,1.4-.8,1.8-1.3.5-.5.9-1,1.4-1.7,0,.4,0,.5,0,.7.1.4.2,0,.4,0,.3,0,.3-.2.3-.5h0c0,0,0,0,0,0,.3,0,.4-.2.4-.5,0,0,0,0,0,0,.9-.6,1.6-1.5,2.1-2.5.8-.8.9-1.9,1.1-3,0-.2.1-.5.3-.7.3-.6.3-1.4.9-1.9.8-.7,1.3-1.6,2.4-1.9.8-.3,1.4-.8,2.2,0,0,0,.2,0,.3,0,.4,0,.6.3.6.6,0,.6.3.4.6.2,0,0,.2,0,.3,0,.5.1.9.4,1,.9,0,0,0,0,0,0-.6,0-1.1,0-1.4.7-.1.4-.5.6-.8.7-.2,0-.3.3-.5.4-.2.2,0,.3.1.4.2.1.3,0,.3-.1,0-.2,0-.3.3-.3.2,0,.4-.3.6-.1.2.2,0,.5-.2.6-.3.2-.3.5-.4.8,0,0,0,0,0,0,0,0,0,0,0,0,.9.4,1.2,1.2.5,2-.6.7-.9,1.5-1.6,2.2,0,0-.2.3-.1.3.6,1-.3,1.7-.5,2.5,0,.4-.1.8-.2,1.2.3.1.4-.4.7-.2.2.2.4.5.3.9,0,.3-.2.7.4.9.4.1.8.7.6,1.3-1-.3-1.7-1-2.6-1.4-1.8-.7-3.6-1-5.4-1-3.2,0-6,1-8.5,3-1.4,1.1-2.5,2.5-3.4,4-.2.3-.4.6-.5.9-.2.1-.4.3-.5.6-.3.7-.4,1.5-.7,2.3,0,0,0,.2-.3.2-.7.3-1.3-.3-1.9,0Z"/>
  <path class="cls-5" d="M103.2,88c.5-.5,1.2-.7,1.9-.7.3,0,.4.1.3.4,0,.2-.1.5-.2.7,0,.1,0,.2,0,.3,0,0,0,0,0,0-.4.2-.7.6-1.1,1-1.2,1-2.4,2-3.6,2.9-.7.6-1.6,1-2.2,1.7-1.3.7-2.7,1.1-4.1,1.6-1.5.5-3,1-4.5,1.3-1.3.3-2.6.6-3.9.9-.9.3-1.9,0-2.8.5,0,0-.1,0-.2,0-1.7,0-3.4.2-5.1.1-1.8,0-3.5-.5-5.2-.7-1-.1-1.9-.2-2.9-.3.5-.2.9-.6,1-1.2,1.8.7,3.6,1.1,5.6,1.2,3.6,0,6.8-.9,9.5-3.3.2-.1.3-.2.5-.4,2.1-.7,4.3-1.1,6.2-2.2-.4,0-.8.3-1.4.2.6-.3,1-.5,1.4-.7,0,0,0,0,0,0-.3,0-.7,0-1,.1,0-.2.2-.4.4-.5.6-.2,1.2-.4,1.8-.7.7-.3,1.5-.6,2-1.3,1.1-.3,2.3-.2,3.5-.6.9-.3,1.7-.5,2.7-.5,0,.2,0,.4-.2.6-2,1.9-4.3,3.5-6.8,4.6-2.7,1.2-5.4,2.3-8.2,3-.1,0-.2.2-.3.2.4,0,.7,0,1.1-.1,3.2-.8,6.2-2.1,9.1-3.5,2.6-1.3,4.8-3.2,7-5.1ZM88.6,94.5s0,0,0,.1c0,0,.2,0,.2,0,3.4-.8,6.3-2.5,9.2-4.3.2-.1.3-.3.1-.5-.1-.2-.3,0-.4.1-1.6.9-3.1,2-4.8,2.7-1.5.6-2.9,1.2-4.4,1.8ZM94.3,91c-.5.3-1,.5-1.6.8.7,0,1.2-.3,1.6-.8Z"/>
  <path class="cls-7" d="M94.2,49.7c0,0,0-.2-.2-.2-.1,0-.2,0-.2.2,0,.1,0,.2.2.2.1,0,.2-.1.2-.2Z"/>
  <path class="cls-5" d="M48,98.8c0,.1,0,.3,0,.4,0,.2-.2.4.1.5.4.7.9,1.4,1.2,2.2-.2,0-.4,0-.7,0-.6-.4-1.4-.2-2-.3.2-.3.6-.4.9-.5.2,0,.3,0,.4-.2,0-.2-.1-.3-.2-.4-.4-.5-.9-.1-1.3,0,0-.4.4-.5.3-1-.8.6-1.9.5-2.6,1.3-.3.4-1,.5-.8,1.2-.5,0-1.1,0-1.6,0,0,0,0-.2,0-.2-.6-.3-1.4-.3-1.8-1,0,0-.1,0-.2,0-.8-.2-1.7-.3-2.5-.5-.2,0-.3-.1-.4,0,0,.2,0,.3.3.3.4,0,.9,0,1.2.4h0c0,.3-.2.4-.5.4-.5-.2-1.2.1-1.7-.3-.3-.3-.8-.4-1.2-.4-.7,0-1.5,0-2.2.2-.5.2-.8-.3-1-.6,0-.1-.3-.3,0-.5,1-.6,2-1.1,3.1-1.2,1.4.4,2.9.6,4.3.7,0,0,0-.2,0-.2-1.2-.2-2.5-.4-3.7-.6,0,0,0-.2.2-.2,2-.4,3.9-.9,6-1,.3,0,.6,0,.9,0,1.6,0,3.1-.1,4.7,0,.3,0,.7-.1.5.5-.7,0-1.5-.1-2.2-.2-.8,0-1.6.2-2.1.7.2,0,.3,0,.5,0,.5,0,1-.5,1.4-.5.6,0,1.4-.1,1.9.5,0,.1.3.2.4,0,0,.2.1.3.2.5Z"/>
  <path class="cls-4" d="M98,28.6c.8-.1,1.1.6,1.6,1,.4.4.8.8,1.3,1,.9.4,1.4,1.3,2,1.9.2.2.4.4.7.5.3.8,1.2,1.1,1.5,1.9.2.5.9.9.6,1.6-.9-.7-1.8-1.4-2.9-1.8-.6-.2-1.1-.4-1.7-.5-1-.2-2.1-.4-2.9-1.2.2,0,.7,0,.2-.4-.4-.5-.8-.9-1.1-1.3.6,0,1.2.6,1.8,1,.2.1.5.5.5-.1h0c.4,0,.8.1,1.1.4,1,.7,2,1.3,3.2,1.9-.2-.7-.7-1.2-1.2-1.5-.5-.4-1-.7-1.5-1.1,0-.3.4,0,.4-.3-.6-.3-1.3-.2-1.8-.8,0,0,0,0,0,0,.2,0,.4,0,.6.1-4.5-3.4-9.7-3-15-2.3,2.1-1,4.1-1.5,6.4-1.8-.3-.3-.6-.3-.8-.3-1.3,0-2.6.3-3.9.7-3.7,1-6.9,3-9.9,5.4-2,1.6-3.6,3.5-5.6,5.3,3.8-6.1,9.5-9.1,15.8-11.3-.2-.2-.3,0-.4-.1,0,0-.1,0-.2-.1h0c0-.1.1-.3.3-.3,1.5,0,2.9,0,4.4,0,.3,0,.5.1.8.3.8.5,1.6.7,2.5.6.8.3,1.6.7,2.4,1,.3,0,.3.2.1.4-.2,0-.4,0-.6,0-1.9-.6-3.8-1-5.8-.8-.5,0-1,0-1.5.3.3.2.6.2.8.2,1.9,0,3.7.1,5.5.5.7.2,1.4.3,2.2.5.3,0,.3,0,.2-.3Z"/>
  <path class="cls-4" d="M86.6,35.8c.2-.3.6-.2.7,0,.5.7,1.2.7,1.9.8,2.8.4,5.6,1,7.6,3.3.4.5,1.1.7,1.7,1.2.6.5,1.2,1,1.3,2,0,.3.4.7.7.9,1,.8.9,2,1.3,3,0,0,0,.1,0,.2,0,.1-.1,1-.2,1-1.3-2.1-2.9-3.9-4.7-5.7.3,0,.5.1.7.2,1.1,1.2,2.3,2.2,3.4,3.5-.6-1.6-1.7-2.8-3.3-3.5-1.5-.9-3.1-1.7-4.6-2.6,2.2.5,4,1.8,6.2,2.9-2.5-2.9-9.1-5.3-16.6-5.1,2.1-.6,4.1-.4,6.1-.2,1.6.2,3.2.6,4.7,1.1.2,0,.4.2.5,0,0-.2-.2-.3-.3-.4-1.6-.7-3.3-1-5-1.3-3.9-.6-7.7.4-11.4,1.1-.5.1-1,.2-1.6.3,3.3-1.2,6.7-2.2,10.2-2.2.3,0,.7,0,.8-.3Z"/>
  <path class="cls-5" d="M35.4,94.9c-.1,0-.3.1-.4.2-.5.2-1,0-1.5.2-1.2.3-2.5.6-3.7,1.1-.3.1-.7.2-.9-.2-.5-.9-1.1-1.9-1.6-2.8-.1-.2-.2-.5,0-.6.7-.3,1.3-.8,2.1-.8.9,0,1.7-.5,2.6-.6,1-.1,1.9-.6,2.9-.4.2,0,.2-.5.4,0,.2.3-.2.3-.3.4-.5.3-1.1.1-1.7.2.2.3.6,0,.7.5h-2.1c0,0,0,.2,0,.3,1.6,0,3.2,0,4.8.4-2.5,0-5.1-.3-7.6.4,1.9.1,3.8,0,5.8.2.7,0,1.4,0,1.8.8h0c-.3.4,0,.4.2.6-.3.6-1,0-1.4.4Z"/>
  <path class="cls-5" d="M88.5,104.9c1.7-.4,3.4-.7,5.1-1.2,1.1-.3,2.2-.5,3.4-.7-.9.8-1.7,1.7-2.8,2.2-.3,0-.6,0-.9,0-1.3.4-2.6.9-4,.9-.2,0-.5-.2-.6.2-2.6.2-5.3.3-7.9,0-1.4-.2-2.8-.4-4.2-.9.4,0,.7,0,1.1,0,3.6,0,7.2.3,10.7-.6Z"/>
  <path class="cls-4" d="M48.2,90.2c-.6,0-1.1-.3-1.6-.5-6.6-2.3-13-2.2-19.4.8-1.3.6-1.1.8-1.8-.7-.6-1.4-.6-1.4.7-2.1,5-2.7,10.4-4.3,16-4.8,1.7-.2,3.5-.3,5.2-.2.9,0,1,0,.6.9-.3.6-.2,1.2,0,1.8.3.5.3,1,.1,1.6-.3,1-.3,2,0,3.1ZM47.8,87.5c.3-.7.2-1.4-.2-2-.3-.6-.3-1.2-.1-1.8.2-.6,0-.7-.5-.7-1.7,0-3.4,0-5,.2-1.6.1-3.2.3-4.7.7-.7.2-1.5,0-2.1.6-.1,0-.3,0-.4,0-1.9.7-3.7,1.3-5.5,2.1-.6.3-1.1.7-1.7.9-.6.2-1.3.5-1.8,1-.3.2-.4.5-.2.9.5,1.1.5,1.1,1.7.6.3-.1.6-.2.9-.3,1.2-.5,2.4-.9,3.7-1.2,1.1-.3,2.2-.4,3.3-.6.5.3,1.1,0,1.6,0,1.3,0,2.5.2,3.8.1,1.3.2,2.6.4,3.9.7,1.1.3,2.1.8,3.2.9.4-.7.2-1.4.2-2.1Z"/>
  <path class="cls-4" d="M90.6,108.4c-1.4,1-2.9,1.7-4.6,2.1-4,1-8,.8-11.9-.1-3.2-.8-6.3-1.9-9-3.9,8.2,4.1,16.7,5.1,25.5,2Z"/>
  <path class="cls-4" d="M101.9,96.3c-.2.6-.6,1-1,1.4,0,0,0,0,0,0-.8-.3-1.3.2-1.9.6-.3,0-.6.4-1,.4-.8.4-1.7.2-2.4.6-.8.2-1.7.4-2.5.6-1.5.3-3,.9-4.6,1.1-1.3.2-2.7.3-4,.5-.2,0-.4,0-.6,0-1.1,0-2.1.4-3.2.3-1.9,0-3.9.2-5.8-.3-1.2-.3-2.5-.3-3.8-.6-1-.2-1.9-.4-2.9-.6,0,0-.2,0-.3,0l-.5-.3s0,0,0,0c1.4.2,2.7.5,4.1.7,4.1.7,8.3.7,12.5.3,5.6-.6,11-2,16.2-3.9.6-.2,1.2-.4,1.8-.6h0Z"/>
  <path class="cls-4" d="M49.7,96.9c.8,2.1,2.7,2.9,4.5,3.7.3.1.7.1,1,0,.3-.2.7-.4.7-.8,0-.5-.6-.2-.8-.4,0,0-.1,0-.3-.2,1.2-.8,2.1-1.7,2.4-3.1,1.4.7,1.7,2,.9,3.2-.7,1-1.7,1.8-2.7,2.4-.3.2-.7.2-1.1.1-1.3-.3-2.5-.7-3.6-1.5-1.3-.9-1.6-1.9-.9-3.4Z"/>
  <path class="cls-4" d="M35.4,94.9c.4-.4,1,.1,1.4-.4,3.1,0,6.1,0,9.2,0,1.5,0,1.5,0,1.8-1.5,0-.2,0-.4.2-.6.2-.5,0-.9-.5-1.1-1.8-.7-3.6-1.2-5.6-1.3-2.1,0-4.2,0-6.3.2-1.4.2-2.8.6-4.2.8-.7.1-1.5.2-1.9.9-.8,0-1.4.5-2.1.8-.2,0-.2.4,0,.6.5,1,1.1,1.9,1.6,2.8.2.4.6.3.9.2,1.2-.5,2.4-.7,3.7-1.1.5-.1,1,0,1.5-.2,0,.2-.2.2-.3.3-1.7.3-3.4.8-5,1.4-.5.2-.7.1-1-.4-.5-1-1.1-2-1.7-2.9-.4-.6-.3-.9.4-1.2,3.5-1.7,7.2-2.5,11-2.6,3.1-.1,6.1.2,9,1.4,1,.4,1,.4.8,1.5-.1.6-.2,1.2,0,1.8.1.6,0,.6-.5.6-3.8-.3-7.6-.3-11.4.2-.2,0-.5,0-.6-.2Z"/>
  <path class="cls-4" d="M55.9,106.6c2,.8,3.9,1.9,5.8,2.9,3.2,1.7,6.4,3.5,9.9,4.4,1.2.3,2.4.5,3.6.7-3.4,0-6.6-.7-9.7-2-3-1.2-5.8-2.8-8.7-4.2.4,0,.9,0,.8-.6,0-.3-.4-.5-.8-.5-.5,0-.7-.3-1-.6,0,0,0-.1,0-.2Z"/>
  <path class="cls-4" d="M88.7,106.4c0-.4.4-.2.6-.2,1.4,0,2.7-.4,4-.9.3,0,.6,0,.9,0-4.3,1.9-8.7,3.3-13.5,3.1-5.1-.2-9.9-1.3-14.1-4.4-.3-.2-.6-.4-.8-.6-.1,0-.2-.2-.3-.3,2.1.6,4.1,1.3,6.1,2.2,0,0,0,0,0,0-1.2,0-2.2-1-3.5-.8,2,1.4,4.3,2.4,6.8,2.7,0,0,0,.2,0,.2,1.3.3,2.6.2,3.9,0,0,0,0-.2.1-.3,1.9.2,3.9.4,5.8.3,1.6,0,3.2-.4,4.9-.7.2,0,.3-.1.5-.3h-1.4Z"/>
  <path class="cls-4" d="M100.7,97.9c-.9,1.2-2.1,1.7-3.4,2.3-3.8,1.8-7.9,2.6-12.1,3-7.2.6-14.2-.3-21-2.5-.6-.2-1.2-.5-1.6-.9,0,0,.1,0,.2,0,.7.3,1.5.6,2.3.8,1.5.4,2.9,1,4.5,1.1,0,.4.3.3.5.3.8,0,1.6.3,2.4.4,1.7.2,3.4.7,5.1.5.4,0,.7,0,1.1,0,3,.1,6,0,9-.5,1.2-.2,2.4-.2,3.6-.6.6-.2,1.3-.3,1.7-.7h0c1,.1,1.9-.4,2.8-.7.2,0,0-.2,0-.3h0c.9.1,1.6-.4,2.4-.7.4,0,.6-.3.8-.6.2-.1.3-.2.5-.3.4-.2.8-.4,1.3-.7h0Z"/>
  <path class="cls-4" d="M64.4,107.5c5.2,3.2,10.6,5.5,17,5.2-3.4,2.3-14.8-1.2-17-5.2Z"/>
  <path class="cls-4" d="M46.3,112.4c2.5-.3,4.8-.3,7.1,0,3.5.6,6.7,1.9,10.1,2.8,1.8.5,3.7.9,5.5,1.3-1.5.1-3,0-4.5-.4-2.7-.6-5.2-1.5-7.8-2.3-1.1-.3-2.2-.6-3.4-.8-2-.3-3.9-.3-5.8-.1-.3,0-.6-.2-1.1-.5Z"/>
  <path class="cls-4" d="M49.3,92.3c.8,1.3,2,2.1,3.3,2.7.7.4,1.9,0,2.3-.6.3-.4,0-.5-.3-.5-.8-.2-.7-.6-.3-1.1.4-.4.6-.9,1.1-1.3.3.9.7,1.7,1,2.6,0,.2,0,.4,0,.6-.4,1.2-2.4,2.2-3.6,1.9-.7-.2-1.4-.5-2.1-.9-1.3-.7-1.9-1.7-1.5-3.3Z"/>
  <path class="cls-4" d="M41.9,97.2c-2,0-4,.6-6,1-.1,0-.1.1-.2.2-.2,0-.4,0-.6,0-1.2.1-2.1.7-3.1,1.2-.3.2,0,.4,0,.5.2.3.5.8,1,.6.7-.3,1.5-.2,2.2-.2.5,0,.9,0,1.2.4.5.5,1.2.1,1.7.3-.2,0-.4.1-.7.2.5,0,.8.1,1.1.2h0c0,.2.1.4.2.6-.4.2-.7.3-1.1.1.1,0,.3-.2.5-.3-1.2,0-2.3,0-3.4.2.9.3,1.8,0,2.6.2-.3.3-.7.1-1,.2-.8,0-1.7-.2-2.5.2-1.1-.7-1.8-1.8-2.6-2.7-.3-.4.2-.5.4-.6,1.6-.8,3.3-1.4,5-1.8,1.9-.4,3.8-.8,5.7-.8,0,.3-.5,0-.5.4Z"/>
  <path class="cls-4" d="M54.2,82.6c0,1.2,0,2.1.3,3,0,.4,0,.7-.3.9-.1.1-.3.2-.4.4q-1.4,1.2-2.8,0c-.4-.3-.7-.6-1-1-.6-.6-.9-1.3-.4-2.2.6.9,1.3,1.5,2.3,2,.2,0,.3.1.5.2.2,0,.4,0,.5-.1,0-.1,0-.3,0-.4-.5-.5-.2-.8.2-1.2.4-.4.8-.9,1.3-1.5Z"/>
  <path class="cls-4" d="M55.7,71.6c-.3,1.2-.4,2.2-.6,3.2-.2.9-1,1.4-1.8,1.7-.2.1-.5.1-.7.2-.9.5-.9.5-1.3-.4-.4-.8-.7-1.7.2-2.5.2.3.4.5.7.8.3.4.7.7,1.2.8.2,0,.4,0,.6-.2.2-.2,0-.4-.1-.6-1.2-1.3-1-1.5.5-2.3.5-.2.9-.5,1.4-.9Z"/>
  <path class="cls-4" d="M84.2,24.9c0,.4-.2.4-.5.6-.7.3-1.6.6-2.1,1,.6,1.4,1.6.7,2.4.5.9-.2,1.8-.4,2.7-.6,0,0,0,0,0,0,0,0,0,.1,0,.2-2.7.9-5.2,2.1-7.8,3.2.8-.8,1.9-1.2,2.6-2.1,0,0,.2-.1.1-.2,0,0-.2,0-.2,0-1.2.2-2.1,1-3.1,1.7-.6.4-1.2.9-1.8,1.3.7-1,1.9-1.5,2.7-2.4-.5-.1-.9.2-1.5.2,1-.8,2.1-1,3.1-1.7-.7.2-1.4.4-2,.4,0,0,0,0-.1-.1,1.8-.9,3.6-1.6,5.5-2.1Z"/>
  <path class="cls-4" d="M89.5,64.1c-.1-.2-.2-.4-.4-.6-.4-.4-.7-.9-.6-1.6,0-.6,0-1.1,0-1.7,0-.5-.2-.7-.6-.4-.1,0-.3.1-.4.2-.3-.4,0-1-.6-1.2,0-1.9.4-3.7,0-5.6.7,1.5.6,3.2,1.1,4.7.4-.9.3-1.9.4-2.8.5,2.4.1,4.9.5,7.3.4-1.3.3-2.6.6-3.9.3.6.3,1.3.3,1.9,0,1.2,0,2.4-.2,3.6Z"/>
  <path class="cls-4" d="M49.3,88c.9.8,1.7,1.5,2.6,2,1,.6,1.4.4,1.9-.6,0,0,0-.2,0-.2.2-.3.5-1,.8-.8.5.2.4.9.3,1.3-.1.7-.6,1.1-1,1.6-1.3,1.3-1.3,1.3-2.7.1-.5-.4-1-.9-1.5-1.3-.6-.5-.8-1.2-.6-2.1Z"/>
  <path class="cls-4" d="M54.4,77.4c0,1,0,1.8.2,2.7.2.4-.4.8-.7,1.1-.6.6-1.3,1-2,1.6-.2.2-.4.2-.6,0-.7-.8-1.2-1.8-1.3-2.9,0-.2,0-.3.1-.4.2-.2.3,0,.4.2.4.5.9,1.1,1.4,1.5.7.5,1,0,1.4-.3.4-.4.1-.7-.3-1-.2-.2-.4-.4-.5-.6-.3-.4-.3-.7.3-.9.5-.2,1-.6,1.6-.9Z"/>
  <path class="cls-4" d="M53.9,107.3c-1.8-.4-3.5-.9-5.2-1.1-3.3-.4-6.6-.2-9.9.6-.3,0-.6.3-.8,0-.1-.3.3-.4.5-.5,1.7-1.2,3.7-1.6,5.8-1.8,1.9-.2,3.9-.1,5.8.3.2,0,.4,0,.5.2,0,0,0,.1,0,.2-.4,0-.7-.1-1.1-.2-.5-.4-1-.3-1.6-.3-1.8,0-3.6-.1-5.3.4-.6.2-1.4.3-2,.9,1.2.4,2.3-.2,3.5,0,1.2.2,2.4,0,3.6,0,.7,0,1.4,0,2.1.2,1.2.3,2.4.7,3.6.8,0,.4.6.2.7.5,0,0,0,0,0,0Z"/>
  <path class="cls-4" d="M73.3,41.9c2.5-.2,4.7.4,6.7,1.4,2.9,1.5,5.7,3.2,8.1,5.6.2.2.6.4.4.7-.2.3-.5-.1-.7-.3-2.4-2-4.7-3.9-7.6-5.2-1.8-.7-3.6-1.2-5.4-1.8-.4-.1-.8-.2-1.4-.4Z"/>
  <path class="cls-7" d="M107.3,70.3c0-.5,0-1,0-1.5,0,0,.2,0,.2,0,.3,2.9.4,5.7.2,8.6,0,1.5-.3,2.9-.5,4.4,0,.5-.4.9-.8,1.1-2.6,1.3-5.3,2.4-8.2,3.2,0,0-.2,0-.2,0-.1,0-.2,0-.4,0-.2,0-.5,0-.7.2,0,0,0,0-.1,0-.3,0-.6,0-.8,0,.2-.3.4-.3.7-.3.7,0,1.3-.3,2-.5,1.6-.4,3.1-1.1,4.6-1.7,1-.4,2-.8,3-1.4.3-.2.5-.5.6-.9.2-1.3.4-2.6.5-3.9.2-2.5.4-4.9,0-7.4Z"/>
  <path class="cls-4" d="M55.9,103.3c1.8-.1,3.3-.6,4.3-2.1,1.5,1.1,1.5,1.3.8,3.7-.4-.3-.3-.8-.7-1.1,0,0-.1,0-.2,0-.3,1-.3,1-1.4.7-.9-.3-1.9-.6-2.9-1.2Z"/>
  <path class="cls-4" d="M56.9,67.2c-.2,1.8-2.1,3.9-3.6,4.2-.3,0-.4-.1-.5-.3-.4-.8-.5-1.7-.6-2.6,0-.3.2-.6.5-.6.4,0,.3.3.4.5.2.6.2,1.2.6,1.7.1.2.3.4.6.3.2-.1.3-.3.3-.6,0-.4-.2-.8-.3-1.2,0-.4-.1-.7.4-.6.8,0,1.4-.3,2.2-.7Z"/>
  <path class="cls-4" d="M72,61.6c-.2,0-.4.1-.6,0,0-.7.5-1.2.8-1.8.3-.6.6-1.2.3-1.9-.4,0-.5.8-1.1.5.3-.4.5-.8.7-1.2,0-.2.2-.4.1-.5-.2-.2-.4,0-.6,0-.2,0-.4.3-.6.1-.3-.2,0-.5,0-.7.2-.6.3-1.2,0-1.8,0-.2-.2-.3-.5-.2,0,0-.1,0-.2,0,.2-.4.5-.9.7-1.3.2-.4.4-.9.7-1.3.1,1.3-.3,2.5-.2,3.8.7-.9.7-1.9,1.2-2.7-.2,1.4-.7,2.7-1.6,3.9.6,0,.7-.5,1-.7.3-.3.2-.8.8-1.1-.3,1-.6,1.9-.9,2.9.5-.2,1.1-.1,1.2-.8-.1,1.7-.9,3-1.5,4.5,0,.1-.3.3,0,.5,0,0,0,.1,0,.2Z"/>
  <path class="cls-4" d="M55,62.8c.1.5-.1.9-.1,1.4,0,.5.2,1,.6,1.3.2.2.5.3.8,0,.2-.2.2-.5,0-.8-.6-1.1-.4-1.6.8-1.9.4,0,.7-.2,1.3-.4-.6,1.2-1,2.4-1.7,3.4-.5.8-1.5.6-2.3.8-.2,0-.2-.1-.3-.2-.4-.8,0-2.9.6-3.6,0,0,0,0,.2,0Z"/>
  <path class="cls-4" d="M82.9,98.8c.9-.5,1.9-.3,2.8-.5,1.3-.4,2.6-.6,3.9-.9,1.5-.4,3-.8,4.5-1.3,1.4-.5,2.8-.9,4.1-1.6.3,0,.6-.2.9-.2,1-.3,1.7-1.1,2.8-1-2.3,1.3-4.7,2.2-7.2,3.1-3.2,1.1-6.4,1.9-9.7,2.4-.7.1-1.4.3-2.2.1Z"/>
  <path class="cls-4" d="M90.6,33.4c-.3,0-.6,0-.9,0-.4,0-.6,0-.5.4,0,.1,0,.2,0,.3,0,0-1.4,0-1.4,0-.4,0-.7,0-1,.3-.2.2-.3.5-.6.2,0,0,.2-.1,0-.2,0,0,0,0,0,0-.5-.7-1.4-.7-2-1.2,1.1,0,2.1.6,3.2.7-1-.9-2.3-1.3-3.7-1.6,2.2.2,3,.5,5,1.6-.3-.6-.4-.7-1.6-1.4-.7-.4-1.4-.6-2.1-1,2,.3,4,.9,5.7,2Z"/>
  <path class="cls-7" d="M101.9,93.1c-1.1-.1-1.9.7-2.8,1-.3,0-.5.3-.9.2.6-.7,1.5-1.1,2.2-1.7,1.2-1,2.4-1.9,3.6-2.9.4-.3.6-.7,1.1-1,0,1.3-.6,2.4-1.7,3.2-.2.1-.4.2-.3.5-.3.1-.5.3-.8.4-.2,0-.4,0-.5.2h0Z"/>
  <path class="cls-4" d="M96,32.5c-.2,0,.3.6-.3.3-.3-.2-.7-.1-1-.3,0,0-.3,0-.3,0-.1.8-.8.5-1.2.4-.3,0-.4,0-.3.3,0,.3,0,.3-.3.2-.4-.9-1.2-1.5-2.1-2-.2-.1-.5-.2-.8-.6,1.2.2,2,1,3,1.2-.8-.8-1.7-1.4-2.6-2,1,0,1.7.7,2.5,1.1.4.2.8.5,1.2.8.1,0,.2.4.4.1.2-.2,0-.3-.1-.5-.3-.3-.7-.6-1-1,1.1.5,2,1.2,2.9,2ZM93,32.2s0,0,0,.1c0,0,0,0,0,0,0,0,0,0,0-.1,0,0,0,0-.1,0Z"/>
  <path class="cls-4" d="M78.2,56.1c0,.4.3.8-.3.9-.7-1.9-1.6-3.7-2.2-5.6-.8-2.3-1.9-4.5-3.4-6.6.5.1.7.5.9.7,1.4,1.5,2.1,3.4,2.8,5.3.7,1.7,1.3,3.5,1.8,5.2,0,.3.2.5.3,0Z"/>
  <path class="cls-7" d="M76.8,65.5c-.5,1-1.2,1.9-2.1,2.5.1-.9.7-1.7,1-2.6.7-2.4,1-4.8,1-7.3.5,1.1.6,3.7.3,5.9-.1.4-.3.9-.4,1.3,0,.3.1.2.3.2Z"/>
  <path class="cls-4" d="M93.2,66.9c-.3,1.4-.6,2.8-1.1,4.1,0,0-.1,0-.2,0,0-1.2,0-2.4,0-3.6,0-.6.2-1.3-.1-1.9,0,0,0,0,0,0,0-.3.1-.7-.1-1,0,0,0,0,0,0,0-.9,0-1.7-.1-2.6v-.6c0,0,.1,0,.2,0,.2,2.1.5,4.3.7,6.6.5-.7.2-1.5.6-2,.2.2,0,.5.3.6-.1.2,0,.3,0,.5Z"/>
  <path class="cls-4" d="M88.5,104.9c-3.5.9-7.1.6-10.7.6-.4,0-.7,0-1.1,0-.7,0-1.4-.4-2.1-.7,4.8.4,9.6.6,14.3-.2-.1,0-.3.2-.4.2Z"/>
  <path class="cls-7" d="M83.9,57.8c.2-.4.7-.8-.2-1-.4,0-.3-.7-.4-1,0-.4,0-.8-.6-.8-.3,0-.2-.3-.2-.5.1,0,.1.3.3.2.2-.1.2-.3.2-.5-.1-.5-.1-.9.2-1.3,0,0,0,0,0,0,0,.3,0,.6.1.8,0,0,0,0,0,0,0,.8.2,1.7.3,2.5,0,.1,0,.3.2.2,0,0,0-.2.1-.4.2-.9.2-1.7.2-2.6,0,0,0-.3.1-.2.1.3.3.1.5.2,0,.5.1,1,.2,1.5,0,.4-.2.8.1,1.2,0,0,0,.2,0,.3-.1.5-.3,1.1,0,1.6,0,0,0,0,0,0,0,.2-.2.4,0,.6-.3.2-.5.5-.6-.2,0-.3-.2-.6-.6-.6Z"/>
  <path class="cls-4" d="M48.7,108.7c2.7.3,5.3,1.1,7.7,2.5-2.8-.9-5.7-1.5-8.6-1.6.1-.3.4-.3.7-.3.5,0,.5-.3.3-.6h0Z"/>
  <path class="cls-7" d="M38.5,101.8c-.3,0-.6,0-1.1-.2.3-.1.5-.2.7-.2.3,0,.4,0,.5-.4,0,0,0,0,0,0,0,0,0,0,0,0-.3-.3-.8-.3-1.2-.4-.2,0-.3-.1-.3-.3,0-.2.2-.1.4,0,.8.2,1.7.3,2.5.5,0,0,.1,0,.2,0,.4.7,1.2.7,1.8,1,0,0,0,.1,0,.2-.5.1-.9.3-1.4.4-.4,0-.9.1-1.1.5-.4,0-.7.4-1.1.1.2-.2,1,0,.5-.7,0-.2-.1-.4-.2-.5,0,0,0,0,0,0,0,0,0,0,0,0ZM39.1,101.2c0,0,0,.2,0,.2,0,0,0,.2.1,0,0,0,0-.1,0-.2,0,0,0,0-.1,0Z"/>
  <path class="cls-4" d="M37.6,63.6c-.3,0-.1-.5-.2-.4-.2.2-.5,0-.6.4.2-3.5.7-6.8,2.7-9.8-.4,1.2-.8,2.4-1.2,3.6-.5,1.8-.7,3.6-.6,5.5,0,.3,0,.5,0,.8Z"/>
  <path class="cls-4" d="M84.3,34.8c.6.1,1.1.5,1.7.8-.4.4-.9.2-1.4.2-2.8-.1-5.6-.3-8.4.4.5-.5,1.5-.8,2.8-1,1.4-.1,2.7,0,4.1,0,.5,0,.9,0,1.2-.4Z"/>
  <path class="cls-5" d="M38.8,102.3c.5.7-.3.4-.5.7-1.5,1.4-3.2,1.3-4.5-.2.8-.3,1.7,0,2.5-.2.3,0,.7.1,1-.2,0,0,.2.2.3,0,.4.2.8,0,1.1-.1Z"/>
  <path class="cls-4" d="M57.1,57.3c.3,2.7.7,3.1,2.2,2.5-.3,1-1,1.7-2,2-.3,0-.5,0-.5-.3,0-1.3-.1-2.5,0-3.8,0-.1.1-.2.3-.4Z"/>
  <path class="cls-5" d="M43.5,110.1c-.5.3-.8,0-1.2-.2-.4-.1-.7-.3-1-.5.9-.3,1.8-.5,2.7-.6.5,0,1.1.1,1.6,0,0,0,.1,0,.2,0,.3.2.7.1,1,.1.2,0,.4.1.4.3,0,.2-.2.2-.4.2-.4.1-.8-.2-1.1.3-.8-.2-1.5,0-2.2.5Z"/>
  <path class="cls-4" d="M103.4,55.8c0,0,0,.1-.1.2-.3.6,0,1.2-.2,1.8-.2-.3-.2-.7-.2-1-.4-3.4-1.2-6.8-2.9-9.8.6.4,1.7,2.1,2.3,3.7-.3,0-.4.3-.3.6.5,1.4,1,2.8,1.2,4.3,0,.1.1.2.3.3Z"/>
  <path class="cls-4" d="M101.6,56.9c-.2-1.2-.7-2.2-1-3.4-.6.3-.3,1-.6,1.4,0-1.4,0-2.7,0-4.1,0,.1.1.2.2.3.7,2.5,1.9,4.8,2.4,7.4,0,.3.2.6,0,.9,0-.1,0-.3-.3-.3-.4-.7-.2-1.5-.7-2.2Z"/>
  <path class="cls-7" d="M77.9,49.4c-.4.1-.8.2-.6.8.1.3-.2.3-.4.2,0,0,0,0,0,0h0c.1.4.3.7,0,1-.4-.7-.6-1.5-1.1-2.2.3-.1.4.4.7.2-.2-.7-.8-1.3-1.1-2,.3,0,.2-.4.5-.3.2.3.4.5.6.9,0-.6-.3-1-.5-1.4.2,0,.4,0,.5,0,.7.8,1,1.7,1.2,2.7Z"/>
  <path class="cls-4" d="M61.1,51.5c0,.6,0,1.1,0,1.7,0,.3,0,.5.4.6.3,0,.4-.1.5-.4,0-.8.8-.2,1.1-.7-.5,1.5-1.3,2.1-2.6,2-.3,0-.5,0-.5-.4,0-.6.6-2.2,1.1-2.7Z"/>
  <path class="cls-4" d="M92.4,56.3c-.1.5.3,1.1,0,1.6-.7-1.3-1.2-2.7-1.9-3.9-.9-1.5-1.9-2.8-3-4.2,2.2,1.7,3.6,3.9,4.7,6.4,0,0,0,0,0,0h0s0,0,0,0Z"/>
  <path class="cls-4" d="M92.5,48c.3.4.2.9,0,1.3,0,.1-.1.3-.3.3-.2,0-.2-.2-.2-.3-.1-.6-.2-1.2-.4-1.9,0-.3,0-.6-.5-.7-.2.3,0,.7,0,1,0,.2,0,.5-.2.5-.2,0-.2-.2-.3-.4,0-.3-.1-.5-.2-.8.3,0,.3.4.5.6,0-1.7-.5-3.2-1.2-4.7,1,1.1,1.7,2.3,2,3.7.1.5,0,1,.6,1.3Z"/>
  <path class="cls-7" d="M61.6,49.3c0-.2,0-.3,0-.5,1.1-1.3,1.2-3.1,2.4-4.3-1.2.3-1.8,1.3-2.7,1.9,0,0,0-.1,0-.2.7-.9,1.5-1.5,2.4-2.2.5.2.6-.2.8-.5,0,0,0,0,0,0,.1,0,.3-.1.3,0-.5,1.2-1,2.5-1.6,3.7-.4.7-1,1.4-1.5,2Z"/>
  <path class="cls-7" d="M71.6,105.2s0,0,0,0c2.2.7,4.4,1.5,6.7,1.9.2,0,.4,0,.5,0,0,0,0,.3-.1.3-1.3.2-2.6.2-3.9,0,0,0,0-.1,0-.2.3,0,.6,0,1-.1-.7-.6-1.5-.6-2.2-.9-.7-.2-1.5-.4-2-.9Z"/>
  <path class="cls-4" d="M62.8,48.9q0,1.6,2.1,1.3c-.5.7-1.2,1.1-1.7,1.8-.2.3-.7.1-1,0-.3,0-.1-.4,0-.6,0-.8,0-1.6.7-2.4Z"/>
  <path class="cls-7" d="M41.9,97.2c0-.3.4-.1.5-.4.2,0,.3,0,.5,0,0,0,.1,0,.2,0,1.6-.2,3.1-.1,4.7,0,.5,0,.7.1.5.6-.1.5-.2,1-.2,1.5,0-.2-.1-.3-.2-.5,0-.2,0-.4,0-.6.3-.6-.2-.4-.5-.5-1.6-.1-3.1,0-4.7,0-.3,0-.6,0-.9,0Z"/>
  <path class="cls-4" d="M84.3,43.6c-.5.3-1,.2-1.4,0-.2,0-.6-.3-.5.2-.6-.4-1.2-.7-1.9-1.1.9-.1,1.5.7,2.5.6-1-1.1-2.2-1.7-3.4-2.4,1.8.4,3.3,1.4,4.6,2.6Z"/>
  <path class="cls-7" d="M62.7,99.7c0,0-.1,0-.2,0,0,0,0,0,0,0,0-.1-.1-.2-.2-.2-.5-.4-1.1-.8-1.4-1.6,2,.7,4,1.1,5.9,1.7,0,0,0,0,0,.1-1,0-1.9-.3-2.8-.5-.4,0-.8-.1-1.2-.1-.4,0-.5.2,0,.3,0,0,0,.2,0,.3Z"/>
  <path class="cls-7" d="M69,52.7c-.5-.1-.1-.4-.1-.6.3-1.3.3-2.7.2-4,0-.4,0-1-.8-.6,0-.6.2-1.3,0-2-.1-.3.1-.5.5-.7.6,2.5,1.2,4.9.4,7.5-.1.1-.1.3-.1.4Z"/>
  <path class="cls-4" d="M107.6,68.7c0,0-.2,0-.2,0-.2-2.4-.5-4.8-1.2-7.2,0-.2-.2-.5,0-.8.2.2.3.4.4.7.5,2.3,1.1,4.6,1.1,7,0,0,0,.2,0,.2Z"/>
  <path class="cls-4" d="M72.6,39.4c1.6-2.3,4-2.5,6.4-2.7-1.5.4-3,.8-4.3,1.7-.7.5-1.4.8-2.1,1.1Z"/>
  <path class="cls-4" d="M61.3,46.2c0,0,0,.1,0,.2-.6.7-1.3,1.4-2,2.1-.1,0-.2.3-.4.2-.2-.1,0-.3,0-.5,0,0,.1,0,.2,0,.8-1.6,1.6-3.2,3.1-4.4-.4,1-1.4,1.7-1.7,2.8.4.1.6-.2.8-.3Z"/>
  <path class="cls-7" d="M97.9,54.3c0,.1,0,.2,0,.3-.2,0-.3,0-.3-.2,0-.4,0-.7,0-1.1,0-.3,0-.9-.6-.3-.2.2-.4.1-.4-.2,0,0,.1,0,.2,0,.4-.3.4-.7.4-1.1.2-1.5,0-3,0-4.5.5,1.6.8,3.3.7,5,0,.7-.2,1.5.1,2.2Z"/>
  <path class="cls-4" d="M74.1,68.9c-.1,0-.2.4-.4,0,0-.2,0-.4,0-.7-.5.6-.9,1.2-1.4,1.7-.5.5-1,.9-1.8,1.3.7-1,1.5-1.6,2-2.5.2-.2.4-.4.6-.7.3.3.4.1.6-.1.2-.4.3-.8.7-1.1,0,0,0,0,0,0,0,.5-.2.9-.3,1.4,0,.2-.3.5,0,.7,0,0,0,0,0,.1Z"/>
  <path class="cls-4" d="M60.3,56.6c-.4.4-.9.7-1.4.9-.4.1-.7,0-.6-.4.1-.9,0-1.9.6-3,.2.8.2,1.5.4,2,.1.4.3,1.1,1,.5h0Z"/>
  <path class="cls-4" d="M89.9,45.2c-.3,0-.6-.1-.5.3,0,.3,0,.6-.2.9-.3-.4-.4-.8-.4-1.3.5.1.4-.2.3-.4-.4-1-1-1.9-1.7-2.7-.3-.4-.7-.8-1-1.2,1.2.6,3.2,3.1,3.7,4.5Z"/>
  <path class="cls-4" d="M52.6,49.6c-.5,0-.5.4-.6.8,0,.4-.2.8-.3,1.1-.2.2-.2.4-.2.6,0,0,0,0,0,0-.1,0-.2.2-.3.3,0,0,0,0-.1,0,.1-1,0-2.1.4-3.1,0,.2,0,.4.2.7.8-1.2.7-2.8,1.9-3.7-.3,1.1-.7,2.3-1,3.4Z"/>
  <path class="cls-4" d="M80.7,53c-.2,0,0-.7-.6-.3-.3.2-.3-.2-.3-.4-.2-.8-.3-1.6-.5-2.4,0-.2,0-.3,0-.5.2.2.4.5.5,0,0-.3,0-.7,0-1,.6,1.5.8,3,1,4.6Z"/>
  <path class="cls-4" d="M76.8,65.5c-.2,0-.3,0-.3-.2.1-.4.3-.9.4-1.3,0,.2.2.3.2,0,.2-.6.4-1.3.4-1.9,0-1.5,0-2.9-.4-4.4,0-.3-.1-.5,0-.9.4.8.5,1.5.6,2.3,0,.2,0,.4.3.5-.4,1-.3,1.9-.1,2.9-.2,1-.3,2.2-1.1,3Z"/>
  <path class="cls-4" d="M84.7,34.2c-.3,0-.4.3-.4.6-1.6-.5-3.3-.7-5-.8,1.8-.4,3.6-.3,5.4.2Z"/>
  <path class="cls-7" d="M86.3,59.4c0-.5-.5-.8-1-.9,0,0,0-.2,0-.2.4-1.1.4-2.2.4-3.3,0-.2,0-.3.2,0,.2.5,0,1.1.6,1.4,0,1,.2,2-.1,3Z"/>
  <path class="cls-4" d="M64.3,46.9c.5,1.3,1.2,1.1,3.3.8-.5.5-.6.5-1.3.6-.5,0-1.2-.1-1.3.8,0,.3-.5.3-.7.3-.3,0-.2-.3-.2-.5,0-.6,0-1.3.3-1.9Z"/>
  <path class="cls-4" d="M92.1,33.1c-.3,0-.6-.2-.8.4-.1.4-.5.3-.7-.1.1-.3.1-.3-.1-.5-.9-.8-2-1.3-3-2,1.6.5,3.2,1.1,4.5,2.2Z"/>
  <path class="cls-7" d="M51.6,49.2c-.4,1-.3,2.1-.4,3.1-.2,0-.1-.6-.5-.4-.4.2-.8.4-.7.9,0,.4-.1.4-.3.5,0-.3,0-.6.1-.8.4-1,.8-2.1,1.2-3.1.4,0,.3-.6.7-.4,0,0,0,.2,0,.2Z"/>
  <path class="cls-4" d="M69,52.7c0-.2,0-.3.1-.4.4.3.4-.1.5-.3.5-.9.9-1.8,1.3-2.8.1,1.2,0,2.3-.3,3.4,0-.2-.1-.5-.4-.4-.4.2-.7.7-1.2.5Z"/>
  <path class="cls-4" d="M46.2,54.2v2.5c-.7-.6-.6-1.3-.9-2-.4.5-.2,1.2-.5,1.6,0-1.8.4-3.5.8-5.2,0,1.5-.3,2.9.2,4.5.4-.5.2-1,.4-1.4Z"/>
  <path class="cls-4" d="M72.3,64c-.4,0-.9.4-1.2,0-.3-.4.3-.6.5-1,.1-.2.3-.4.4-.5.1,0,.2-.1.3-.2.7-.1.8-.8,1.3-1.2.1-.1.2-.5.5-.3.2.2,0,.3-.2.5-.5.8-1,1.5-1.4,2.3,0,.1-.1.2-.2.3Z"/>
  <path class="cls-4" d="M58.1,65.5c.2,1,0,2-.4,2.9-.5,1-.5,2.2-.8,3.2-.2.9-.3,1.8-.7,2.6.3-2,.2-4.1,1.3-5.9.3-.6.3-1.2.4-1.8,0-.3,0-.7.2-1Z"/>
  <path class="cls-4" d="M49.7,52.6c0,.3,0,.6-.1.8,0,.1,0,.2,0,.3-.2.3-.1.6-.1.9,0,0,0,0,0,0-.7,0-.6-.6-.6-1,.3.2.3.2.3,0,0-1.5.3-2.8.7-4.2.2-.9.7-1.6,1.3-2.4.1.4,0,.5-.2.7-.8,1.4-1.3,3-1.4,4.6,0,.2-.1.6.3.2Z"/>
  <path class="cls-7" d="M59.1,48.1c0,0-.1,0-.2,0-.1-.4,0-.8-.2-1.1-.6.6-1.2,1.3-1.9,1.8,0-.2,0-.3,0-.5,0,0,0,0,0,0,.2-.2.3-.4.3-.7.1-.3.3-.5.4-.8,0,.2,0,.4,0,.5.2.3.2,0,.4,0,.4-.6.9-1.1,1.3-1.6,0,.2.2.4.4.5-.2.7-.5,1.3-.5,2Z"/>
  <path class="cls-7" d="M50.5,105c0,0,0-.1,0-.2,1.9.2,3.7.9,5.4,1.8,0,0,0,.1,0,.2-.5.2-.9-.3-1.4-.3-.2-.2-.5-.3-.8-.4-1.1-.4-2.1-.7-3.2-1.1Z"/>
  <path class="cls-1" d="M60.6,82.3c.6-.2,1.2.4,1.9,0,.2,0,.2-.2.3-.2.3-.7.4-1.5.7-2.3.1-.3.2-.4.5-.6-.3,1.1-.6,2.2-.9,3.4-.1.4-.5.2-.7.4,0,0-.2,0-.3,0-.3-.4-.8-.3-1.3-.3,0,0,0,0,0,0,0,0-.1-.2-.2-.3,0,0,0,0,0,0Z"/>
  <path class="cls-4" d="M41.6,58.7c-.4-.2-.3.1-.3.3,0,1,0,2,0,2.9,0,.3,0,.6-.1.9-.4-.5-.6-1.1-.5-1.7,0,.2.2.4.3.6.2-1.9,0-3.8.7-5.6v2.5Z"/>
  <path class="cls-7" d="M86.9,58.9c.6.2.3.8.6,1.2.1,0,.3-.1.4-.2.5-.3.6,0,.6.4,0,.6,0,1.1,0,1.7,0,0,0,0,0,0-.2-1.1-.9-1.7-2-2,0,0,0-.1,0-.2.6,0,.3-.7.5-.9Z"/>
  <path class="cls-4" d="M83.2,52.9c-.4.4-.4.8-.2,1.3,0,.2,0,.4-.2.5-.2,0-.2-.1-.3-.2,0-.1,0-.2,0-.3,0-.1,0-.2,0-.4.4,0,.2-.4.2-.6,0-1.2-.3-2.3-.4-3.5.5,1,.9,2.1.9,3.2Z"/>
  <path class="cls-4" d="M96.7,52.7c0,0-.1,0-.2,0,0,0,0,0,0,0,0-.1,0-.2,0-.3,0,0,0-.2,0-.3,0-.5.1-1.1-.6-1.3.1-1.1,0-2.2,0-3.5.9,1.8.8,3.6.9,5.3Z"/>
  <path class="cls-4" d="M44,108.6c-.9,0-1.8.3-2.7.6-.1,0-.5,0-.2-.3.2-.2.5-.3.7-.3,2.3-.5,4.6-.5,6.9,0,0,0,0,0,0,0-1,0-1.9-.3-2.9-.1,0,0-.1,0-.2,0-.5,0-1.1-.2-1.6,0Z"/>
  <path class="cls-4" d="M81.2,51.5c-.3-1.3-.4-2.6-.9-3.9.8,1.1,1.2,2.4,1.6,3.7-.2-.1-.4-.2-.6-.4,0,.2,0,.4,0,.6Z"/>
  <path class="cls-7" d="M54.3,49.6c-.3-.3-.7.2-.9-.2.2-.9.7-1.7,1.2-2.5.1.1.2.2.3.3,0,.8-.6,1.5-.4,2.3,0,0,0,0-.1,0Z"/>
  <path class="cls-7" d="M53.9,107.3s0,0,0,0c.4,0,.9.2,1.3.3.5.2,1.1.5,1.5-.2.4,0,.8.2.8.5,0,.5-.5.5-.8.6-1-.4-1.9-.8-2.9-1.1Z"/>
  <path class="cls-7" d="M81.2,51.5c0-.2,0-.3,0-.6.2.1.4.3.6.4,0,0,0,0,0,0,0,.2,0,.3.2.5.1.7.3,1.3.4,2,0,.1,0,.2,0,.4,0-.2-.2-.4-.2-.6-.2-.5-.5-.6-.9-.2,0-.6,0-1.3,0-1.9Z"/>
  <path class="cls-7" d="M45.8,108.6c1-.2,1.9.1,2.9.1.3.3.2.6-.3.6-.3,0-.5,0-.7.3-.3,0-.5,0-.8,0,0,0,0,0,0,0-.1,0-.3,0-.4,0-.3,0-.5,0-.8,0,.2-.5.7-.2,1.1-.3.1,0,.3,0,.4-.2,0-.2-.1-.3-.4-.3-.3,0-.7,0-1-.1Z"/>
  <path class="cls-4" d="M56,75.2c.4.8,0,1.6-.1,2.5-.1,1.3-.1,2.6,0,3.9-.3,0-.4,0-.4-.3-.2-2,0-4.1.5-6Z"/>
  <path class="cls-4" d="M94.7,47.1c-.5.9-.2-.5-.5-.1-.3-1.2-.6-2.3-1-3.6.8,1.2,1.2,2.5,1.5,3.7Z"/>
  <path class="cls-7" d="M46.7,101.6c.7,0,1.4,0,2,.3-1,.1-2-.2-3,0,0,0-.1,0-.2,0,0,0,0,0-.1,0,0,0,0,0,0,0-.6,0-1.3,0-1.9,0-.3-.7.4-.9.8-1.2,0,.1.1.2.2.4-.2.1-.5.3-.4.6.1.2.4,0,.6,0,.3,0,.6,0,.9,0,.4,0,.8,0,1.1,0Z"/>
  <path class="cls-4" d="M43.5,101.9c.6,0,1.3,0,1.9,0-1.5.2-2.9.2-4.4.6-.5.1-1.1.2-1.6.3.3-.4.8-.5,1.1-.5.5,0,.9-.3,1.4-.4.5,0,1.1,0,1.6,0Z"/>
  <path class="cls-7" d="M72.5,62.4c-.1,0-.2.1-.3.2,0-.3.5-.7-.1-.9,0,0,0-.1,0-.2.9-.6,1.1-1.7,1.8-2.5,0,0,.1,0,.2,0,0,.1,0,.2-.1.3,0,0,0,0,0,0-.4,1.1-.9,2.1-1.4,3Z"/>
  <path class="cls-4" d="M84.7,53.4c-.2,0-.4.1-.5-.2,0,0,0,.1-.1.2-.2-1.2-.3-2.3-.6-3.5.6,1.1,1,2.2,1.3,3.5Z"/>
  <path class="cls-4" d="M93.3,46.9c-.1,0-.3.4-.3,0,0-.6-.4-1.1-.7-1.6-.2-.6-.6-1.1-.5-1.8.7,1,1.3,2.1,1.5,3.4Z"/>
  <path class="cls-4" d="M60.2,57.8c0,.9-.6,1.1-1.3,1.3-.2,0-.4,0-.5-.3-.1-.3,0-.4.3-.5.5-.2,1-.3,1.5-.5Z"/>
  <path class="cls-4" d="M87.7,43.7c-.2,0-.4,0-.6,0,0,0,0,0,0,0-.1-.2-.1,0-.2,0-.6-.8-1.2-1.5-1.8-2.3.9.7,1.9,1.2,2.6,2.2Z"/>
  <path class="cls-4" d="M86.5,56.4c-.5-.3-.4-.9-.6-1.4-.1-.3-.1-.2-.2,0-.2-.9-.3-1.7-.3-2.8.5,1.5,1,2.8,1.1,4.2Z"/>
  <path class="cls-7" d="M56,49.3c-.1-.4-.4-.6-.8-.3,0,0,0-.2,0-.2.2-.8.4-1.5,1-2.1.1,0,.3-.1.4,0-.4.4-.3,1-.4,1.5-.2.4,0,.7,0,1.1Z"/>
  <path class="cls-7" d="M103,57.8c.3-.6,0-1.2.2-1.8,0,1.5,0,3,.1,4.4,0,.1,0,.3,0,.4-.4-.3,0-.7-.2-1,0-.7-.2-1.3-.1-2Z"/>
  <path class="cls-7" d="M79.3,49.5c0,.2,0,.3,0,.5-.2,0-.4,0-.6,0,0,0-.1-.2-.2-.2-.3-.5-.1-1-.3-1.5,0-.1.2-.4.4-.2.3.4.5.9.6,1.4Z"/>
  <path class="cls-4" d="M90.7,63.4c-.2.1-.3.6-.6.2.1-.9.2-1.7.6-2.6v2.4Z"/>
  <path class="cls-4" d="M40.5,60.1c-.3-.2,0-.6-.3-1,0,.5-.2.9-.3,1.2,0-1.2.2-2.3.5-3.4,0,0,.1,0,.2,0v3.2Z"/>
  <path class="cls-7" d="M93.2,66.4c-.3-.1-.1-.4-.3-.6,0,0,0-.2,0-.3.3-.5,0-1,0-1.5,0-.3,0-.5,0-.8,0-.3,0-.7,0-1,.5,1.4.3,2.8.1,4.2Z"/>
  <path class="cls-4" d="M60.6,82.3c0,0,.1.2.2.3-1.6-.2-3.1-.5-4.6-1,1.1,0,2.1.3,3.2.5.4,0,.8.2,1.2.2Z"/>
  <path class="cls-4" d="M91,52c0,.2,0,.3,0,.5-.7-.8-1.4-1.5-2.1-2.3-.1-.1-.3-.3-.1-.4.2-.2.3,0,.4.1.6.7,1.2,1.4,1.8,2.1Z"/>
  <path class="cls-4" d="M76.7,46.7c-.2,0-.4,0-.5,0-.4-.7-.9-1.4-1.3-2,.7.6,1.4,1.2,1.8,2Z"/>
  <path class="cls-7" d="M72.3,64c0-.1.1-.2.2-.3.3-.4.5.3.8.2h0c0,.2-.2.4-.2.5,0,.1-.1.4.2.3,0,.3.1.5.2.8-.2.3-.2.6-.6.7.2-.8-.3-1.4-.3-2.2,0,0-.2,0-.3,0Z"/>
  <path class="cls-4" d="M45.7,102c1-.2,2,.1,3,0,.2,0,.4,0,.7,0,.1,0,.2.2.3.4-1.3-.1-2.6-.3-3.9-.4Z"/>
  <path class="cls-7" d="M70.2,52.3c.3,0,.3.2.4.4,0,.4-.3.8-.1,1.3,0,0,.1,0,.2,0,.1.4-.2.6-.5.6-.4,0-.3-.4-.2-.6.3-.6-.2-1.2.2-1.7Z"/>
  <path class="cls-4" d="M104.9,57c0-.1,0-.3-.1-.4.1,0,.2,0,.3,0,.4.6.7,1.3.9,2-.5-.3-.3.2-.3.3-.2-.2,0-.6-.4-.8-.1-.3-.3-.5-.3-.9,0,0,0-.1,0-.2Z"/>
  <path class="cls-4" d="M60.3,56.6c0,0,0-.2,0-.2-.3-1,.2-1.1,1-.9-.2.6-.6.9-1,1.2,0,0,0,0,0,0Z"/>
  <path class="cls-4" d="M46.9,52.8c0,0,0-.2,0-.2,0,0-.1,0-.1,0,0,.2-.2.3-.4.3.3-.7.2-1.6.7-2.3.2.8.1,1.4,0,2.1Z"/>
  <path class="cls-4" d="M76,47.2c-.3,0-.2.4-.5.3-.4-.5-.7-1.1-1.2-1.8.9.3,1.3.9,1.7,1.5Z"/>
  <path class="cls-4" d="M60.8,59c-.3,1.2-1,2.2-1.4,3.3,0-1.3.7-2.3,1.4-3.3Z"/>
  <path class="cls-7" d="M64.8,51.5c-.2.7,0,1.6-1,1.9.2-.7.5-1.4,1-1.9Z"/>
  <path class="cls-4" d="M45.7,109.5c.3,0,.5,0,.8,0-1,.2-2,.3-2.9.5.7-.4,1.3-.7,2.2-.5Z"/>
  <path class="cls-4" d="M75.3,29.8c.6-.5,1.2-.8,1.8-1-.5.5-1.1.8-1.8,1Z"/>
  <path class="cls-4" d="M92.7,59.3c-.3.6.4,1.1,0,1.7-.3-.8-.3-1.7-.5-2.5-.1-.5.3,0,.3-.2,0,0,0,0,0,0-.2.4.2.7.1,1Z"/>
  <path class="cls-4" d="M44.1,54.7c-.1.1-.2.2-.4.3,0-.8.2-1.6.4-2.3,0,.7.2,1.3,0,2Z"/>
  <path class="cls-4" d="M59.6,46.1c-.2,0-.4-.2-.4-.5.3-.5.8-.9,1.3-1.2-.3.6-.6,1.1-.9,1.7Z"/>
  <path class="cls-4" d="M38.9,61.7c-.3,0-.2.5-.6.5,0-.8,0-1.6.3-2.4.2.6.4,1.3.3,1.9Z"/>
  <path class="cls-4" d="M73.5,65.5c0-.3-.1-.5-.2-.8.3-.4.7-.8,1-1.2,0,0,0,0,0,0,0,.7-.5,1.3-.9,1.9Z"/>
  <path class="cls-7" d="M91.4,61.9c.2.9.2,1.7.1,2.6,0,0-.2-.1-.2-.2,0-.8-.2-1.6.1-2.4Z"/>
  <path class="cls-7" d="M105.2,58c.3.2.2.6.4.8,0,.4.4.8,0,1.1,0-.7-.5-1.2-.4-1.9Z"/>
  <path class="cls-4" d="M83.9,56.1c0,.1,0,.3-.1.4-.2,0-.2-.1-.2-.2-.1-.8-.3-1.7-.3-2.5.4.7.2,1.6.6,2.4Z"/>
  <path class="cls-4" d="M56.5,46.6c-.1-.2-.2,0-.4,0,.2-.6.6-1.1,1.2-1.4-.3.5-.5,1-.8,1.5Z"/>
  <path class="cls-4" d="M99.7,30.9c-.7-.2-1.2-.6-1.8-.8.7,0,1.4.1,1.9.8,0,0,0,0,0,0Z"/>
  <path class="cls-7" d="M72.9,68c-.2.2-.4.4-.6.7,0-.3,0-.6-.2-.8.2,0,.3,0,.4-.1.2-.1.3-.7.6-.4.2.2-.2.5-.3.7Z"/>
  <path class="cls-4" d="M56,49.3c0-.4-.1-.7,0-1.1.2.1.4.3.6.2,0,.2,0,.3,0,.5-.1.2-.2.4-.3.6-.1,0-.2-.1-.3-.2h0Z"/>
  <path class="cls-4" d="M103.2,59.8c.1.3-.2.7.2,1-.2.3-.4.3-.7.1.2-.3,0-.7,0-1h0c.2,0,.3,0,.5,0Z"/>
  <path class="cls-4" d="M38.2,63.3v2.7c-.4,0-.3-.4-.4-.5.4-.3.2-.8.2-1.2,0-.3,0-.6.1-.9Z"/>
  <path class="cls-4" d="M74,59c0,0-.1,0-.2,0,0-.4.3-.8.6-1.3,0,.6-.1,1-.4,1.3Z"/>
  <path class="cls-4" d="M78.7,48c-.2-.2-.3,0-.4.2-.2-.3-.2-.7-.3-1.1.3.3.6.6.7,1Z"/>
  <path class="cls-4" d="M51.6,49c-.4-.1-.3.5-.7.4.1-.5.4-1,.7-1.4.2.4.1.7,0,1Z"/>
  <path class="cls-4" d="M19.8,75.3c0-1-.2-2,.2-3.1,0,1,0,2-.2,3.1Z"/>
  <path class="cls-4" d="M85.5,43.4c0,0-.2.2-.3.3-.3-.3-.5-.6-.9-1,.6,0,.9.4,1.1.7Z"/>
  <path class="cls-4" d="M78.6,49.7c0,0,.1.2.2.2,0,.3,0,.7-.2,1-.3-.5-.6-.9-.6-1.4.2.1.2.4.4.4.2,0,0-.2.1-.3Z"/>
  <path class="cls-4" d="M59.4,62.3c0,.7,0,1.4-.6,1.9.2-.6.4-1.2.6-1.9Z"/>
  <path class="cls-4" d="M54.3,49.6s0,0,.1,0q0,.3.5,0c0,0,0,.2,0,.2,0,.3,0,.7-.5.7-.4,0-.2-.5-.2-.8Z"/>
  <path class="cls-4" d="M36.8,67.6c.2.7.3,1.4,0,2.1,0-.3-.3-.6-.2-1,.3-.4,0-.8.2-1.2Z"/>
  <path class="cls-4" d="M47.1,53.8c0,.4,0,.9-.2,1.4,0-.7-.1-1.1,0-1.6,0,0,.2.1.3.2Z"/>
  <path class="cls-4" d="M93.1,62.2c0,.3,0,.7,0,1-.2-.6-.2-1.3-.2-1.9.1.1,0,.4.3.5,0,.1,0,.3,0,.4Z"/>
  <path class="cls-4" d="M78.8,27.1c-.4.2-.8.4-1.2.5.3-.4.7-.5,1.1-.7,0,0,0,0,.1.1Z"/>
  <path class="cls-4" d="M43,55c-.4,0-.1.5-.4.6,0-.5,0-.9.3-1.5.2.4.1.6,0,.8Z"/>
  <path class="cls-4" d="M64.8,43.6c0-.2-.2,0-.3,0,.1-.3.4-.4.6-.5,0,.3-.1.4-.3.5Z"/>
  <path class="cls-4" d="M54.9,47.2c-.1-.1-.2-.2-.3-.3.1-.2.3-.4.6-.6,0,.3,0,.6-.3.9Z"/>
  <path class="cls-4" d="M77.8,53.9c.3.5.4,1,.3,1.5-.3-.5-.3-1-.3-1.5Z"/>
  <path class="cls-4" d="M60.8,82.6c.5,0,.9,0,1.3.3-.5,0-.9,0-1.3-.3Z"/>
  <path class="cls-4" d="M77.9,57.1c.2.5.4.9,0,1.4,0-.5-.3-.9,0-1.4Z"/>
  <path class="cls-4" d="M44.7,57.6c0,.4,0,.8,0,1.2-.3-.1-.2-.4-.2-.5.3-.2,0-.5.3-.7Z"/>
  <path class="cls-4" d="M20.1,70.7c-.1-.5,0-1,.2-1.5,0,.5,0,1-.2,1.5Z"/>
  <path class="cls-4" d="M85.1,58c-.3-.5-.2-1,0-1.6,0,.5,0,1.1,0,1.6Z"/>
  <path class="cls-4" d="M93,64c0,.5.2,1,0,1.5,0-.5,0-1,0-1.5Z"/>
  <path class="cls-4" d="M57.4,47.4c0-.2,0-.4,0-.5,0-.2,0-.4.3-.6,0,.5-.1.8-.3,1.2Z"/>
  <path class="cls-4" d="M64.4,43.5c-.2.3-.3.7-.8.5.2-.3.4-.5.8-.5Z"/>
  <path class="cls-4" d="M85,56.1c-.4-.4,0-.8-.1-1.2.2.4.2.8.1,1.2Z"/>
  <path class="cls-4" d="M39.8,60.5c0,.5,0,.9-.1,1.4,0-.5-.1-.9.1-1.4Z"/>
  <path class="cls-7" d="M102.3,59.1c.2,0,.2.2.3.3,0,.1,0,.2,0,.3,0,0,0,0,0,0,0-.1-.2-.3-.3-.4,0,0,0-.2,0-.2Z"/>
  <path class="cls-4" d="M58.8,11.9c.1,0,.3,0,.3,0,0,.1-.1,0-.2,0,0,0,0,0-.1,0Z"/>
  <path class="cls-7" d="M59.4,13.6c-.2,0-.3-.2-.5-.2.2,0,.4.1.6.2,0,0,0,0,0,0,0,0,0,0-.1,0Z"/>
  <path class="cls-4" d="M36.7,68.8c-.2-.3-.4-.5-.3-.9.4.2.4.5.3.9Z"/>
  <path class="cls-4" d="M85.3,58.3c0,0,0,.2,0,.2-.1,0-.2,0-.3,0-.1-.2,0-.4,0-.6.2,0,.1.2.2.3Z"/>
  <path class="cls-7" d="M32.9,38c0-.2,0-.5.4-.3-.1.1-.3.2-.4.3Z"/>
  <path class="cls-4" d="M77.5,53c.3.2.3.5.3.9-.3-.2-.3-.6-.3-.9Z"/>
  <path class="cls-4" d="M58,45.7s0,0,0,0c0,0,0,.1,0,.2-.1,0-.1,0,0,0,0,0,0-.1.1-.2Z"/>
  <path class="cls-7" d="M48.1,99.8c-.3-.1-.2-.3-.1-.5,0,.2,0,.3.1.5Z"/>
  <path class="cls-4" d="M38.8,37.3c0-.1,0-.3.2-.3,0,0,0,0,0,0,0,.2-.1.3-.2.3,0,0,0,0,0,0Z"/>
  <path class="cls-4" d="M94.2,47.2c.2.3.1.5,0,.8,0-.3-.1-.5,0-.8Z"/>
  <path class="cls-4" d="M83.3,53.7c-.2-.2-.2-.5-.1-.8.2.2.2.5.1.8Z"/>
  <path class="cls-4" d="M57,47.7c0,.3-.1.5-.3.7,0-.3.1-.5.3-.7Z"/>
  <path class="cls-4" d="M56.2,74.2c0,.3.1.6-.1.9,0-.3,0-.6.1-.9Z"/>
  <path class="cls-4" d="M74,27.6c0,0,0-.1,0-.2,0,0,0,0,0,0,0,0,0,0,0,0,0,0,0,0,0,.2Z"/>
  <path class="cls-7" d="M74.7,68c0,.3,0,.4-.4.5,0-.2,0-.5.4-.5Z"/>
  <path class="cls-4" d="M20,72c-.3-.3,0-.5,0-.7,0,.2,0,.5,0,.7Z"/>
  <path class="cls-7" d="M61.4,49.7c0,0-.1,0-.2,0,0-.2,0-.4.3-.5,0,.2,0,.3-.2.5Z"/>
  <path class="cls-7" d="M74.1,68.9s0,0,0-.1c0-.1.1-.3.3-.4,0,.2,0,.4-.3.5Z"/>
  <path class="cls-4" d="M92.4,45.7c.2.2.1.5.1.7-.1-.2-.1-.5-.1-.7Z"/>
  <path class="cls-4" d="M85.3,34.4c-.2,0-.4,0-.6-.1.2,0,.4,0,.6.1Z"/>
  <path class="cls-4" d="M96.9,86.4c.2-.2.4-.2.7-.2-.2.2-.4.2-.7.2Z"/>
  <path class="cls-4" d="M55.2,48.7c0,0,0,.2,0,.2,0,.1-.1.3-.2.4-.2-.3,0-.4.2-.6Z"/>
  <path class="cls-4" d="M82,51.8c-.1-.1-.2-.3-.2-.5.1.1.2.3.2.5Z"/>
  <path class="cls-4" d="M95.8,47.1s0,0,0,.1c0,0,0,0,0-.1,0,0,0,0,0-.1,0,0,0,0,0,.1Z"/>
  <path class="cls-4" d="M66.8,99.8s0,0,0-.1c.2,0,.4,0,.5.1,0,0,0,0,0,0-.2,0-.3,0-.5,0h0Z"/>
  <path class="cls-4" d="M101.9,93.1c0-.2.3-.2.5-.2-.2,0-.3.1-.5.2Z"/>
  <path class="cls-4" d="M58.4,64.9c0,.2,0,.4-.3.5,0-.2,0-.4.3-.5Z"/>
  <path class="cls-4" d="M62.3,99.6c.1,0,.2,0,.2.2,0,0-.2-.1-.2-.2Z"/>
  <path class="cls-7" d="M81.2,53.5c0,.2,0,.3-.1.4,0-.2,0-.3.1-.4Z"/>
  <polygon class="cls-4" points="66.4 17.5 66.4 17.5 66.4 17.5 66.4 17.5"/>
  <path class="cls-4" d="M78.1,55.4c.2.1.2.3,0,.4-.1-.1-.1-.3,0-.4Z"/>
  <path class="cls-4" d="M98,86.1c0,0,.2,0,.2,0,0,0-.1.1-.2,0Z"/>
  <path class="cls-4" d="M80.8,53.6c-.1-.2-.2-.3,0-.5,0,.2,0,.3,0,.5Z"/>
  <path class="cls-4" d="M100.8,97.6c0,0-.1.2-.2.3,0,0,0,0,0,0,0-.1.1-.2.2-.3,0,0,0,0,0,0Z"/>
  <path class="cls-4" d="M44.8,56.5c0,.1,0,.3,0,.4,0-.1,0-.2,0-.4Z"/>
  <path class="cls-7" d="M40.8,39.5c0,0,0-.2,0-.2,0,0,0,.1,0,.2,0,0,0,0,0,0Z"/>
  <path class="cls-7" d="M73.3,63.9c0,0,0-.1,0-.2,0,0,0,0,0,0,0,0,0,.1-.1.2,0,0,0,0,0,0Z"/>
  <path class="cls-4" d="M74.5,66c0,0,0,0,0,.1,0,0,0,0,0,0,0,0,0,0,0,0,0,0,0,0,0-.2Z"/>
  <path class="cls-4" d="M58.7,64.3c0,.2,0,.3-.2.4,0-.2,0-.3.2-.4Z"/>
  <path class="cls-4" d="M44.7,57c0,.2,0,.3,0,.5,0-.2,0-.3,0-.5Z"/>
  <path class="cls-4" d="M80.9,54c-.2,0-.2-.2-.2-.4.1,0,.2.2.2.4Z"/>
  <path class="cls-4" d="M52.7,36.7s0,0,0,0c0,0,0,0-.1,0,0,0,0,0,0,0,0,0,0,0,.1,0Z"/>
  <path class="cls-4" d="M94.3,30.5s0,0,0,0c0,0,0,0,0,0,0,0,0,0,0,0,0,0,0,0,0,0Z"/>
  <path class="cls-4" d="M74.2,66.7c0,0,0-.2.1-.2,0,0,0,.2,0,.2,0,0,0,0,0,0Z"/>
  <path class="cls-4" d="M99.5,32.3s0,0,0,0c0,0,0,0,0,0,0,0,0,0,0,0,0,0,0,0,0,0Z"/>
  <polygon class="cls-4" points="83.8 33 83.7 33 83.7 33 83.8 33"/>
  <path class="cls-4" d="M45.4,102c0,0,0,0,.1,0,0,0,0,0,0,0h0Z"/>
  <path class="cls-4" d="M46.8,53.3c0-.1,0-.2,0-.3,0,.1,0,.2,0,.3Z"/>
  <path class="cls-4" d="M37.8,64.4c0,0,0-.2,0-.3,0,0,.1.2,0,.3Z"/>
  <path class="cls-7" d="M68.3,47.5c0,.1,0,.2-.1.2,0,0,0-.2.1-.2Z"/>
  <path class="cls-4" d="M44.4,58.2c0,0,0-.2,0-.3,0,0,0,.2,0,.3Z"/>
  <path class="cls-4" d="M106,58.5c0,0,0,.1,0,.2,0,0,0-.1,0-.2Z"/>
  <path class="cls-7" d="M86.7,26.6c0,0,0-.1,0-.2,0,0,.1,0,.2.1,0,0,0,0,0,0h0Z"/>
  <path class="cls-7" d="M40.6,39.6c0,0,.1-.1.2-.2,0,0,0,.2-.2.2Z"/>
  <path class="cls-4" d="M58.5,64.7c0,.1,0,.2-.1.2,0-.1,0-.2.1-.2Z"/>
  <path class="cls-4" d="M43,96.8c0,0,0,0-.2,0,0,0,.1,0,.2,0Z"/>
  <path class="cls-4" d="M74.3,63.5s0-.1,0-.1c0,0,0,.1,0,.2,0,0,0,0,0,0Z"/>
  <path class="cls-4" d="M101.9,96.3s0,0,0,0c0,0,0,0,0,0Z"/>
  <path class="cls-4" d="M88.6,45c0,0,0-.1,0-.2,0,0,0,.1,0,.2Z"/>
  <path class="cls-4" d="M46.8,109.6s0,0,0,0c0,0,0,0,0,0h0Z"/>
  <path class="cls-4" d="M44.3,57.8c0,0,0-.2,0-.2.2,0,.2.1,0,.2Z"/>
  <polygon class="cls-7" points="92.4 56.2 92.3 56.2 92.4 56.2 92.4 56.2"/>
  <polygon class="cls-4" points="73.9 59.4 73.9 59.3 74 59.3 73.9 59.4"/>
  <path class="cls-7" d="M86.9,43.8c0,0,0-.2.2,0,0,0-.1.1-.2,0Z"/>
  <path class="cls-4" d="M102.5,59.7s0,0,0,0c0,0,0,.1.1.2,0,0,0,0,0,0,0,0,0,0,0,0,0,0,0-.1-.1-.2Z"/>
  <path class="cls-4" d="M44.2,56.5c0-.1,0-.2,0-.3.1.1.1.2,0,.3Z"/>
  <path class="cls-5" d="M104.1,55s0,0,0,.1c0,0,0,0-.1,0,0,0,0,0,0-.1,0,0,0,0,.1,0Z"/>
  <path class="cls-1" d="M104.7,54s0,.1,0,.1c0,0,0,0-.1,0,0,0,0-.1,0-.1,0,0,0,0,.1,0Z"/>
  <path class="cls-1" d="M104.1,53.6c0,.1,0,.2,0,.3,0,0,0,0,0,0,0-.1,0-.2.1-.3,0,0,0,0,0,0Z"/>
  <path class="cls-2" d="M86,34.4c.2,0,0,.1,0,.2,0,0,0,0,0-.1,0,0,0,0,0,0Z"/>
  <path class="cls-7" d="M91.8,18.8c0-.2,0-.3.2-.2,0,.2,0,.3-.2.2Z"/>
  <path class="cls-2" d="M98,28.6c.1.2.2.3-.2.3-.7-.2-1.4-.3-2.2-.5-1.8-.4-3.7-.6-5.5-.5-.2,0-.5,0-.8-.2.5-.3,1-.3,1.5-.3,2-.1,3.9.2,5.8.8.2,0,.4.2.6,0,0,0,0,0,0,0,.2.3.4.3.7.3h0Z"/>
  <path class="cls-4" d="M98,28.6c-.3,0-.6,0-.7-.3.3,0,.6,0,.7.3Z"/>
  <path class="cls-6" d="M36.9,81c-1.2.4-2.4.4-3.6.7-1.7.4-3.4.6-5,1.2-.2,0-.4,0-.6.1-.3,0-.3-.3-.5-.4-.9-.2-1.7,0-2.6,0-.6,0-1-.4-.9-1,.4,0,1,.5,1.3-.2,0,0,.2.1.3,0,.8,0,1.5.2,2.4-.2-1.6-.2-3-.3-4.5-.4-.3-.4-.3-.9-.3-1.4,2,.4,4.1.8,6.2.6,1,0,2,0,3,0,.4,0,.8,0,1.2.2.6.2.4-.8.9-1,.1,0,.3-.4,0-.7,0,0-.1-.1-.2-.1-.4.2-.6-.1-.9-.2-1.1-.3-2.2.2-3.4.1-.4,0-.7-.2-.9-.4-.4-.3.2-.4.1-.7-2,.2-3.9.9-5.9.7,0,0,0-.1,0-.2.3,0,.6-.1.9-.2,0-.3-.3,0-.3-.3.2,0,.4,0,.8-.1-.4,0-.6,0-.8-.1,1.3-.2,2.5-.5,3.8-.7.6-.1,1.1-.5,1.8-.5.1,0,.3-.2.2-.3-.4-.4,0-.3.1-.2.5.1.9.2,1-.5,0-.1.1-.1.2-.2,1.3-.6,2.5-1.5,3.6-2.4.6-.5,1.1-.7,1.8-.2.3.2.8.4,1.3.4.4,0,.8.2,1.3.4.8.4,1.6.9,2.5.5,0,.4-.4.7-.2,1,.3.4.5-.2.9,0,0,.3.2.7-.2,1.1-.2.2-.4.4-.8.1-.4-.3-.7-.2-1.1.3-.6.7-1,1.3-.6,2.2-.5.3-.6,1-1,1.4-.4.3-.7.8-1.2,1-.4.2-.5.5-.2.9ZM35.6,76.9c0-.2-.2-.2-.3-.2-.3,0-.5.2-.5.5,0,.1.1.2.3.2.2,0,.4-.3.5-.5ZM35.9,79.9c-.3.1-.6-.3-.9,0,0,.1,0,.3.1.3.4.2.6-.1.8-.4ZM40,73.8c-.1.4-.6.5-.3.9,0,0,.2.1.3,0,.3-.3.2-.6,0-1Z"/>
  <path class="cls-5" d="M23.6,77c.2,0,.4,0,.8.1-.4,0-.6,0-.8.1,0,.2.3,0,.3.3-.3,0-.6.1-.9.2,0,0,0,.1,0,.2,2,.2,3.9-.5,5.9-.7.1.3-.5.4-.1.7.3.2.5.3.9.4,1.1,0,2.2-.4,3.4-.1.3,0,.5.3.9.2,0,0,.1,0,.2.1.2.3,0,.7,0,.7-.5.2-.2,1.2-.9,1-.4-.1-.8-.2-1.2-.2-1,0-2,0-3,0-2.1.1-4.1-.3-6.2-.6-.1-.8-.4-1.5-.3-2.3.3,0,.7-.1,1-.2Z"/>
  <path class="cls-7" d="M49.3,54.7c0-.3,0-.6.1-.9,0,.3.2.7-.1.9Z"/>
  <path class="cls-7" d="M22.5,77c-.2-.2-.2-.4,0-.6,0,.2.1.4,0,.6Z"/>
  <path class="cls-7" d="M51.6,52.1c0-.2,0-.4.2-.6,0,.2,0,.5-.2.6Z"/>
  <path class="cls-7" d="M56,49.3c.1,0,.2.1.3.2-.3.2-.3,0-.3-.2Z"/>
  <path class="cls-7" d="M51.3,52.4c.1,0,.2-.2.3-.3,0,.2,0,.4-.3.3Z"/>
  <path class="cls-7" d="M47.8,57.1s0,0,.1,0h0c0,0,0,0-.1,0,0,0,0,0,0,0Z"/>
  <path class="cls-2" d="M78.7,20.2c0,0,.2-.2.3-.3,0,.3-.1.3-.3.3h0Z"/>
  <path class="cls-2" d="M78.7,20.2c0,.2,0,.3-.1.3,0,0,0,0,0,0,0-.1.1-.2.2-.2,0,0,0,0,0,0Z"/>
  <path class="cls-2" d="M78.6,20.6c0,0-.1.1-.2.2,0,0,0,0,0,0,0,0,.1-.1.2-.2,0,0,0,0,0,0Z"/>
  <path class="cls-7" d="M23.6,81.7c-.1.7.3,1.1.9,1,.9-.1,1.7-.3,2.6,0,.3,0,.3.4.5.4-.3.5-.8.3-1.3.4-.7.3-1.5.3-2.2.5-.3,0-.6,0-.7-.4,0-.7-.5-1.2-.4-1.9.2,0,.3,0,.5,0Z"/>
  <path class="cls-5" d="M23.6,81.7c-.2,0-.3,0-.5,0,0-.3,0-.5,0-.8,1.4.1,2.9.3,4.5.4-.9.4-1.6.2-2.4.2,0,0-.3,0-.3,0-.3.8-.9.2-1.3.2Z"/>
  <path class="cls-2" d="M46.2,39.2c0,0-.2.2-.3,0,0,0,0-.2.2-.2,0,0,0,.1.1.2Z"/>
  <path class="cls-2" d="M60.3,15.9s0,0,0,0c0,0,0,0,0,0,0,0,0,0,0,0,0,0,0,0,0,0Z"/>
  <path class="cls-6" d="M58,92.9c.8-.9,2.1-.6,3.1-1.1.7-.3,1.5-.4,2.1-.8.4-.2.9-.3,1.1.3,0,.2.2.5.5.5,0,0,0,0,0,.1,0,.1,0,.3.2.3,0,0,0,0,0,0,0,.1,0,.2,0,.3,0,0,.1,0,.2-.1,1.3,1.8,3,3.2,5,4.1,0,0,0,0,.1.1,0,0,0,0,0,0,0,.6-.4,1-1,1.2-1.1-.3-2.2-.5-3.3-.8-1.2-.3-2.4-.6-3.6-.9-1-.2-1.9-.5-2.9-.7-.9-.2-1.1-1-1.3-1.8,0-.4.2-.8-.4-.9h0Z"/>
  <path class="cls-6" d="M107.3,70.3c.4,2.5.2,4.9,0,7.4-.1,1.3-.4,2.6-.5,3.9,0,.4-.3.7-.6.9-.9.6-1.9,1-3,1.4-1.5.6-3,1.3-4.6,1.7-.7.2-1.3.5-2,.5-.3,0-.5,0-.7.3-.3,0-.5,0-.8,0,0-.1-.4-.5.2-.4,0,.2.1.3.4.2,0,0,0-.1,0-.2-.2,0-.3,0-.5,0,0-.6.6-.8,1.1-.9.9-.2,1.5-.8,2.3-1.2.3-.2.4-.4.3-.7.3-.2.6-.3,1-.5.6.5,1.1,0,1.6-.3-.3.5-.6,1-.9,1.5,0,0,.1,0,.2.1.7-.9,1.6-1.6,2.1-2.6.9-.3,1.1-1.3,1.8-1.9.5-.4.9-1,1.3-1.6.5-.6.9-1.2.9-2.1.3-.9.4-1.7-.1-2.6-.1.6-.2,1.1-.2,1.7,0,.5-.1,1.2-.9,1.3.6-2.2.7-4.3-.1-6.5,0-.1-.1-.3-.1-.4,0-.1,0-.3.1-.3.2,0,.3,0,.3.2.1.7,1,.9,1.1,1.6,0,0,.2.2.3,0,.2-.2,0-.4.2-.7Z"/>
  <path class="cls-7" d="M98,81.7c.2-.5.5-.9.9-1.1.9-.6.5-1.6.8-2.3.2-.7.5-1.3.9-1.9v1.2c.5,0,.4-1.7,1.2-.4.3-.3,0-.7.2-1,.2-.4.4-.8.9-.7.5,0,.4-.3.4-.5.3-.5.6-.7,1.1-.3-.2,1.8-.7,3.5-1.8,4.9.2.2.4,0,.6,0,0,0,0,0,0,0l-.7.5c-.8.4-1.6.7-2.4,1.1-.4-.1-.8,0-1.1.2-.3.2-.8.1-1.1.2Z"/>
  <path class="cls-2" d="M100.2,81.4c.8-.4,1.6-.7,2.4-1.1,0,.1,0,.2,0,.3-.2.1-.5.2-.7.4-.7.4-1.4.8-2.1,1.2-2,.9-4,1.5-6.1,1.9-4,.8-8,.6-12.1.2-2-.2-4-.5-6-1,3.3.2,6.7.5,10,.5,4.2,0,8.4-.4,12.4-1.5.7-.2,1.3-.6,2-.9Z"/>
  <path class="cls-6" d="M92.2,82.9c0-.3-.3-.3-.5-.6.5-.3,1.1-.4,1.5-.8.3-.3.7-.8.8-1.2.2-.6.7-1,1.2-1.4,1.6-1.3,1.8-3,1.4-4.9-.3.3-.2.6-.2.9,0,.1,0,.3-.2.3-.1,0-.2,0-.2-.2-.2-.5.2-2.1.7-2.4.2-.2.4,0,.5.1.5.4.7.2.9-.3,0,0,0-.1.2-.2.6.8,1,1.7,1.2,2.7.1.8-.5,1.1-1,1.5-.2.1-.2.4-.4.5-.3-.2.2-.7-.3-.8,0,.9-.7,1.6-1,2.4-.5,1-1.3,1.9-1.9,2.8-.2.3-.6.7-.6,1.2-.5.6-1.3.5-2,.5Z"/>
  <path class="cls-5" d="M99,83.1c.1.3,0,.5-.3.7-.8.4-1.4,1-2.3,1.2-.4.1-1,.3-1.1.9h0c-.6,0-.1.3-.2.4-1.5.5-3.1.4-4.5.9-.4.2-.6,0-.7-.5,0-.6.4-1.5,1-1.6.8-.1,1.5-.5,2.4-.4,1,.3,2,.1,2.8-.5,0,.1,0,.2.1.5,0-.3,0-.5,0-.7,0,0,.2,0,.3,0,.7.2,1.9-.3,2.3-.9,0,0,.1,0,.2,0Z"/>
  <path class="cls-7" d="M95.4,89.3c-.5.7-1.2,1-2,1.3-.6.2-1.2.5-1.8.7-.2,0-.3.2-.4.5-.2,0-.5,0-.6.2-.3,0-.6,0-1,.2-.6.2-1.2.7-1.9.5.6-.9.9-1.8,1.6-2.6.1-.2.2-.3.5-.3,1.9.3,3.7-.4,5.6-.3Z"/>
  <path class="cls-6" d="M86,96.7c0,0,.2-.2.3-.2,2.8-.7,5.5-1.8,8.2-3,2.5-1.2,4.8-2.7,6.8-4.6.2-.2.2-.4.2-.6.5-.2,1-.3,1.6-.2-2.2,1.9-4.4,3.8-7,5.1-2.9,1.4-5.9,2.7-9.1,3.5-.4,0-.7.1-1.1.1h0Z"/>
  <path class="cls-7" d="M99.8,82.2c.7-.4,1.5-.8,2.1-1.2.2-.1.4-.3.7-.4.3-.1.6-.3.8-.6.2-.2,0-.2-.2-.3,0,0,0,0,0,0,.3-.4.9-.6,1.2-1.2,1.2-.5,2-1.5,2.5-2.6,0,.8-.4,1.5-.9,2.1-.4.5-.9,1.2-1.3,1.6-.7.6-.9,1.6-1.8,1.9,0,0,.2-.2.2-.2-.1-.2-.3,0-.4,0-.4.4-.8.8-1.2,1.2-.5.3-1,.8-1.6.3,0-.1,0-.3-.1-.4Z"/>
  <path class="cls-6" d="M90.6,91.8c.2-.1.4-.2.6-.2.3,0,.7,0,1-.1,0,0,0,0,0,0-.4.2-.8.4-1.4.7.6,0,1-.2,1.4-.2-1.9,1.1-4.1,1.5-6.2,2.2.3-.4.6-.7,1-1,0,0,0,0,0,0,0,0,.1,0,.2-.1,1-.2,1.9-.6,2.9-.9.2,0,.4-.2.5-.5Z"/>
  <path class="cls-5" d="M90.6,91.8c0,.2-.3.4-.5.5-1,.3-1.9.7-2.9.9,0-.3.3-.5.5-.7.7.2,1.3-.3,1.9-.5.3,0,.6-.2,1-.2Z"/>
  <path class="cls-6" d="M96.1,84.3c-.9.6-1.8.8-2.8.5.3-.5.8-.2,1.3-.4.5-.3,1.2-.4,1.8-.5,0,0,.2.1.3.2,0,0-.2,0-.3,0,0,0-.1.2-.2.3Z"/>
  <path class="cls-7" d="M96.6,84c0,0-.2-.1-.3-.2.8-.4,1.7-.4,2.5-.7-.4.6-1.5,1.1-2.3.9Z"/>
  <path class="cls-1" d="M58,92.9c.5.1.4.5.4.9-.3-.2-.4-.5-.4-.9Z"/>
  <path class="cls-1" d="M65.3,92.5c0,0-.1,0-.2.1,0-.1,0-.2,0-.3,0,0,.1.1.2.2Z"/>
  <path class="cls-1" d="M65.1,92.3c-.1,0-.2-.2-.2-.3,0,.1.1.2.2.3Z"/>
  <path class="cls-7" d="M105,88.8c0-.1,0-.2,0-.3.1.1,0,.3,0,.3Z"/>
  <path class="cls-5" d="M70.4,96.7s0,0-.1-.1c0,0,0,0,.1.1Z"/>
  <path class="cls-5" d="M87.1,93.4s0,0,0,0c0,0,0,0,0,0Z"/>
  <path class="cls-6" d="M102.3,59.1c0,0,0,.2,0,.2-1.4.2-2.5.9-3.3,2-.4.5-1.1.9-1.1,1.6,0,.1,0,.2-.2.2-1,0-.5.9-.4,1,.4.8-.4.4-.5.6-.3.5.9.4.3.7-.7.4-.7.8-.4,1.3,0,0,0,.2,0,.2-.6.4-.4,1-.4,1.5,0,.2,0,.5-.3.6-.3,0-.4-.2-.4-.4,0-.7-.9-.9-.8-1.6-.3.1-.3-.5-.7-.3-.3.2-.5,0-.8,0,0-.2,0-.3,0-.5.1-1.4.3-2.8-.1-4.2,0-.1,0-.3,0-.4,0-.1.1-.3.2-.4,0,0,.1,0,.2.1,0,0,0-.2,0-.3,0,0,0-.1,0-.2.1-.2.3-.3.2-.6-.2-.7.5-.6.8-.9,0,0,.3,0,.3.1.1.1,0,.3,0,.4-.4.3-.2.8-.6,1.2-.1.1,0,.3,0,.4.1.2.3,0,.4,0,.2,0,.4-.4.6,0,.1.3.3.7,0,1,0,.1-.3.2-.4.2-.4.2-.4.6-.6.9-.1.2.2.2.4.3.2,0,.5-.2.6.2,0,.2,0,.5-.3.3,0,0-.1-.2-.2-.2-.6-.1-.3.3-.3.5,0,0-.2,0-.2.1,0,0,0,0,0,0,.2,0,.1-.1.1-.2.2.2.3.3,0,.6-.4.4-.2.8.2.9.7.1.7.5.5,1.1.5-.2.5-.6.5-.8,0-.6,0-1,.6-1.4.2-.1,0-.2,0-.3-.2-.2,0-.4.1-.4.6,0,.5-.3.5-.7,0-.4,0-1,.5-1.2.1,0,0-.5,0-.8,0-.8.8-1.1,1.2-1.6.2-.3.9-.3.3-.9-.1-.1,0-.5,0-.7.5,0,1,.4,1.2-.3,0,0,0,0,0,0,0-.3-.6-.8.3-.7.5,0,.6-.6,1.2-.5.5.7.3,1.5.7,2.2Z"/>
  <path class="cls-6" d="M104.4,78.5c-.3.5-.9.7-1.2,1.2-.2,0-.4.1-.6,0,1.1-1.5,1.6-3.1,1.8-4.9.2-.3.2-.6.6-.8.3-.1.2-.6.1-.9,0-.2,0-.5.3-.5.3,0,.2.3.2.5,0,.9,0,1.7-.2,2.6-.1.4-.2.8,0,1.1-.2.7-.8,1.1-1.1,1.8Z"/>
  <path class="cls-1" d="M104.4,78.5c.3-.6.9-1.1,1.1-1.8,0-.2.1-.3.2-.5.8,0,.8-.8.9-1.3,0-.6.1-1.1.2-1.7.5.8.4,1.7.1,2.6-.6,1.2-1.4,2.1-2.5,2.6Z"/>
  <path class="cls-6" d="M100.5,64.1c-.4.1-.6,1-1.2.4-.3-.3,0-.6.1-.7.5-.6.7.4,1.1.3Z"/>
  <path class="cls-6" d="M99,66.2c.2,0,.5,0,.4.3-.2.4-.4.7-.6,1.1,0,.1-.3.3-.5,0-.1-.1,0-.3,0-.4.2-.4.6-.6.7-1h0Z"/>
  <path class="cls-6" d="M91.2,67.1c0,.4,0,.8-.4.8-.3,0-.3-.4-.3-.6,0-.5.5,0,.7-.2Z"/>
  <path class="cls-7" d="M91.7,65.5c.4.6.2,1.3.1,1.9,0-.6-.2-1.3-.1-1.9Z"/>
  <path class="cls-7" d="M102.6,59.9s0,0,0,0c0,.3.2.7,0,1-.5-.3-.1-.7,0-1Z"/>
  <path class="cls-7" d="M91.6,64.5c.2.3.2.7.1,1-.2-.3-.2-.7-.1-1Z"/>
  <path class="cls-6" d="M99,66.3c-.1,0-.3.1-.4,0,0,0,0-.2.1-.2.2,0,.3,0,.3.2,0,0,0,0,0,0Z"/>
  <path class="cls-6" d="M85.8,60c-.1,0-.2,0-.2-.1,0,0,.1-.1.2-.1,0,0,.1,0,.2,0,0,0-.1.1-.2.2Z"/>
  <path class="cls-7" d="M104.9,57c0,0,0,.1,0,.2-.1,0-.1-.1,0-.2Z"/>
  <path class="cls-5" d="M84.3,62.6s0,0,0,0c0,0,0,0,0,0,0,0,0,0,0,0Z"/>
  <path class="cls-6" d="M88.6,94.5c1.5-.6,2.9-1.2,4.4-1.8,1.7-.7,3.2-1.8,4.8-2.7.1,0,.3-.3.4-.1.2.2,0,.4-.1.5-2.9,1.8-5.8,3.5-9.2,4.3,0,0-.2,0-.2,0,0,0,0,0,0-.1Z"/>
  <path class="cls-6" d="M94.3,91c-.4.5-.9.9-1.6.8.5-.3,1-.5,1.6-.8Z"/>
  <path class="cls-1" d="M43.1,66.3s0,0,0,0c0,0,0,0,0,0,0,0,0,0,0,0h0Z"/>
  <path class="cls-6" d="M97,56.8c0,0-.1,0-.1,0,0-.4-.2-.8.3-1.1,0,0,.2,0,.3,0,0,.4,0,.8-.5,1.1Z"/>
  <path class="cls-7" d="M96.4,52.4c0,.1,0,.2,0,.3-.2,0-.2-.2,0-.3Z"/>
  <path class="cls-2" d="M92.7,59.3c0-.3-.4-.6-.1-1,.5.4.5.9.6,1.4-.3,0-.3-.3-.4-.4Z"/>
  <path class="cls-1" d="M93.5,61.2c0,0,0,.2,0,.3,0,0-.1,0-.2-.1,0-.2.1-.1.2-.2Z"/>
  <path class="cls-2" d="M94.2,49.7c0,.1,0,.2-.2.2-.1,0-.2-.1-.2-.2,0-.1,0-.2.2-.2.2,0,.1.1.2.2Z"/>
  <path class="cls-2" d="M85.4,44.2s0,0,0,0c0,0,0,0,0,0,0,0,0,0,0,0,0,0,0,0,0,0Z"/>
  <path class="cls-6" d="M44.4,101c0-.1-.1-.2-.2-.4.7-.8,1.7-.7,2.6-1.3,0,.5-.4.6-.3,1,.4,0,.9-.4,1.3,0,0,.1.3.2.2.4,0,.2-.2.2-.4.2-.4,0-.7.2-.9.5-.4,0-.8,0-1.1,0-.2-.1-.2-.5-.5-.3-.4.2-.4,0-.6-.3Z"/>
  <path class="cls-6" d="M47.9,97.7c0,.2,0,.4,0,.6-.2.1-.3,0-.4,0-.5-.6-1.2-.4-1.9-.5-.5,0-.9.4-1.4.5-.2,0-.3,0-.5,0,.5-.5,1.3-.7,2.1-.7.7,0,1.5.1,2.2.2Z"/>
  <path class="cls-6" d="M35.1,98.5c.2,0,.4,0,.6,0,1.2.2,2.5.4,3.7.6,0,0,0,.2,0,.2-1.4-.2-2.9-.3-4.3-.7Z"/>
  <path class="cls-2" d="M97.6,42.4c1.5.8,2.6,2,3.3,3.5-1.1-1.2-2.3-2.3-3.4-3.5,0,0,0,0,.1,0Z"/>
  <path class="cls-6" d="M29.4,91.8c.5-.7,1.3-.7,1.9-.9,1.4-.2,2.8-.6,4.2-.8,2.1-.3,4.2-.3,6.3-.2,1.9,0,3.8.6,5.6,1.3.5.2.7.5.5,1.1,0,.2-.1.4-.2.6-.3,1.5-.3,1.5-1.8,1.5-3.1,0-6.1,0-9.2,0-.2-.1-.5-.2-.2-.5,0,0,0,.2.2.2,0,0,0,0,0,0,0-.2,0-.1-.2-.2-.4-.7-1.1-.7-1.8-.8-1.9-.3-3.8,0-5.8-.2,2.5-.6,5-.4,7.6-.4-1.6-.3-3.2-.4-4.8-.4,0,0,0-.2,0-.3h2.1c-.1-.5-.5-.2-.7-.5.6,0,1.2,0,1.7-.2.2,0,.5,0,.3-.4-.2-.4-.2.1-.4,0-1-.2-1.9.3-2.9.4-.9,0-1.7.6-2.6.6Z"/>
  <path class="cls-6" d="M35.1,87.9c-1.1.2-2.2.3-3.3.6-1.3.3-2.5.7-3.7,1.2-.3.1-.6.2-.9.3-1.1.5-1.1.5-1.7-.6-.2-.4,0-.6.2-.9.5-.4,1.2-.7,1.8-1,.6-.2,1.1-.7,1.7-.9,1.8-.9,3.7-1.5,5.5-2.1.1,0,.3,0,.4,0,.2,0,.2.5.5.3.9-.5,1.4-.4,2,.4,0,0,.2.2.2.2.4,0,.5.1.3.5,0,.2-.1.4.1.4.1,0,.4,0,.4-.3,0-.4.5-.5.6-.9.2-.4.7.2,1-.1.2.2,0,.3,0,.4-.2.2,0,.4,0,.5.2.2.4,0,.5,0,.4-.5.9-.4,1.4-.2.4.1.8.2,1.2.2,1.1.2,2.2.2,3.2.8.5.3,1,.4,1,1.1,0,.6,0,1.3,0,1.9-1.1-.1-2.2-.6-3.2-.9-1.3-.4-2.6-.6-3.9-.7,0-.3-.3-.3-.6-.3-1.5,0-2.9,0-4.4,0-.2,0-.4,0-.5.2ZM36.2,86.9c.4,0,.5-.1.5-.5.4-.2,0-1,.8-1-.5-.2-.9-.5-1.2.2-.2,0-.3-.1-.3.1,0,0,0,.2,0,.2.2,0,.2-.2.2-.3.6,0,.3.5.5.8-.2.2-.3.3-.5.5,0,0,0,0,0,0,0,0,0,0,0,0ZM36.2,85c0,0,0-.3-.2-.2-.1,0-.1.2-.1.2,0,0,.1.2.2.2.1,0,.2,0,.1-.2ZM35.6,86.3c0,0,0-.1,0-.1,0,0-.1,0-.2,0,0,0,0,.1,0,.1,0,0,.1,0,.2,0ZM36.1,86.5c0,0,0-.1.1-.2,0,0,0,0-.1,0,0,0,0,0,0,.1,0,0,0,0,.1,0Z"/>
  <path class="cls-1" d="M47.7,87.8c0-.7-.6-.8-1-1.1-1-.6-2.1-.6-3.2-.8-.4,0-.8-.1-1.2-.2-.5-.1-1-.2-1.4.2-.1.1-.3.3-.5,0-.1-.1-.2-.3,0-.5.1-.1.3-.3,0-.4-.3.4-.8-.3-1,.1-.2.3-.6.5-.6.9,0,.4-.3.3-.4.3-.3,0-.2-.3-.1-.4.2-.4.2-.5-.3-.5,0,0-.2,0-.2-.2-.6-.8-1-.9-2-.4-.4.2-.4-.2-.5-.3.6-.6,1.4-.4,2.1-.6,1.5-.4,3.1-.6,4.7-.7,1.7-.1,3.3-.3,5-.2.5,0,.7,0,.5.7-.2.6-.2,1.2.1,1.8.4.6.5,1.3.2,2,0,0,0,.2-.1.2ZM37.9,84.9h0c0,0,0,0,0,0h0Z"/>
  <path class="cls-7" d="M35.1,87.9c.1-.2.3-.2.5-.2,1.5,0,2.9,0,4.4,0,.2,0,.5,0,.6.3-1.3,0-2.5-.2-3.8-.1-.5,0-1.1.4-1.6,0Z"/>
  <path class="cls-7" d="M47.7,87.8c0,0,0-.2.1-.2,0,.7.2,1.4-.2,2.1,0-.6,0-1.3,0-1.9Z"/>
  <path class="cls-5" d="M92.9,101.1c-.5.5-1.1.5-1.7.7-1.2.4-2.4.4-3.6.6-3,.5-6,.7-9,.5,1.2-.1,2.3-.5,3.4-.8.8-.2,1.7-.3,2.5-.8,1.3-.2,2.7-.4,4-.5,1.6-.2,3.1-.8,4.6-1.1.8-.2,1.7-.4,2.5-.6,0,.1,0,.2,0,.3-1.3.6-2.7.9-4.1,1.7.6,0,1,0,1.4,0Z"/>
  <path class="cls-7" d="M84.4,101.3c-.7.5-1.6.5-2.5.8-.1-.2-.3-.1-.5-.2-1.7-.2-3.4,0-5.1,0-1.1,0-2.1,0-3.2-.2-.8-.2-1.7.1-2.5-.4,0-.5-.8-.5-.8-.5-.9.4-1.1-.5-1.7-.8,1,.2,2,.4,2.9.6,1.2.3,2.5.3,3.8.6,1.9.5,3.9.2,5.8.3,1.1,0,2.1-.4,3.2-.3.2,0,.4,0,.6,0Z"/>
  <path class="cls-6" d="M68.1,100.1c.6.3.8,1.2,1.7.8,0,0,.8,0,.8.5-.4,0-.7.3-1.1.3-1.6,0-3-.7-4.5-1.1-.8-.2-1.5-.5-2.3-.8,0-.1,0-.3,0-.3-.4-.2-.4-.3,0-.3.4,0,.8,0,1.2.1.9.2,1.8.6,2.8.5,0,0,0,0,0,0,.2.5.6.3,1,.3,0,0,.2,0,.3,0Z"/>
  <path class="cls-7" d="M95.6,99.4c0-.1,0-.2,0-.3.7-.5,1.6-.3,2.4-.6,0,.2-.2.4,0,.6.2.2.4,0,.5-.2.1-.1.3,0,.4,0-.2.3-.5.5-.8.6-.8-.6-1.7-.4-2.5,0h0Z"/>
  <path class="cls-7" d="M100.8,97.5c0,.1-.1.2-.2.3-.4.2-.8.4-1.3.7,0-.3-.3-.3-.5-.4.6-.3,1.1-.9,1.9-.6Z"/>
  <path class="cls-5" d="M98.9,98.1c.2,0,.5,0,.5.4-.2.1-.3.2-.5.3-.1,0-.3-.1-.4,0-.1.1-.3.3-.5.2-.2-.2,0-.4,0-.6.4,0,.6-.3,1-.4Z"/>
  <path class="cls-7" d="M67.8,100c-.3,0-.8.2-1-.3.2,0,.3,0,.5,0,.2,0,.3.2.5.3Z"/>
  <path class="cls-5" d="M56.8,107.4c-.4.7-1,.4-1.5.2-.4-.2-.9-.3-1.3-.3-.1-.3-.7,0-.7-.5.3-.4.8,0,1.1-.3.5,0,.9.5,1.4.3.3.3.5.6,1,.6Z"/>
  <path class="cls-5" d="M71.6,105.2c.6.6,1.3.7,2,.9.7.2,1.5.3,2.2.9-.4,0-.7,0-1,.1-2.5-.3-4.7-1.3-6.8-2.7,1.3-.3,2.3.7,3.5.8Z"/>
  <path class="cls-5" d="M69.5,101.7c.4,0,.7-.4,1.1-.3.8.5,1.7.2,2.5.4,1,.3,2.1.2,3.2.2.3.3.8,0,1,.4-.1.2-.4,0-.5.2.1.3.5,0,.6.3-1.7.1-3.4-.3-5.1-.5-.8,0-1.6-.5-2.4-.4-.2,0-.5.2-.5-.3Z"/>
  <path class="cls-6" d="M77.4,102.9c-.1-.2-.5,0-.6-.3,0-.2.4,0,.5-.2-.2-.4-.8,0-1-.4,1.7,0,3.4-.2,5.1,0,.2,0,.4,0,.5.2-1.1.4-2.2.7-3.4.8-.4,0-.7,0-1.1,0Z"/>
  <path class="cls-6" d="M92.9,101.1c-.4,0-.9,0-1.4,0,1.4-.8,2.8-1.1,4.1-1.7,0,0,0,0,0,0,0,.2,0,.5.1.7,0,0,0,0,0,0-1,.2-1.9.5-2.8,1h0Z"/>
  <path class="cls-5" d="M95.7,100.1c0-.2,0-.5-.1-.7.8-.4,1.7-.6,2.5,0-.8.3-1.5.8-2.4.7Z"/>
  <path class="cls-5" d="M92.9,101.1c.9-.5,1.8-.8,2.8-1,0,.1.2.2,0,.3-.9.3-1.8.8-2.8.7Z"/>
  <path class="cls-7" d="M37.6,102.5c0,.2-.2,0-.3,0-.9-.2-1.8.2-2.6-.2,1.1-.3,2.2,0,3.4-.2-.3.2-.4.2-.5.3Z"/>
  <path class="cls-2" d="M81.4,27.6c0,0,.2-.2.2,0,0,.1,0,.1-.1.2,0,0,0,0-.1-.1Z"/>
  <path class="cls-7" d="M47.6,105.8c-1.2,0-2.5.2-3.6,0-1.2-.2-2.3.3-3.5,0,.6-.6,1.3-.7,2-.9,1.7-.5,3.5-.4,5.3-.4.5,0,1.1-.1,1.6.3-.4,0-.7.3-1.1.3-.2,0-.9-.1-1-.1-.2,0-.3.2,0,.4.2.1.3.3.5.4ZM44.5,105.5c.5,0,1,0,1.5,0,.3,0,.4-.2.4-.4,0-.3-.3-.2-.4-.2-.6,0-1.1.2-1.5.6Z"/>
  <path class="cls-6" d="M47.6,105.8c-.2-.1-.3-.3-.5-.4-.2-.2-.2-.3,0-.4,0,0,.8.1,1,.1.4,0,.7-.3,1.1-.3.4,0,.7.1,1.1.2,1.1.4,2.1.8,3.2,1.1.3,0,.5.2.8.4-.3.4-.8-.1-1.1.3-1.2,0-2.4-.5-3.6-.8-.7-.2-1.4-.1-2.1-.2Z"/>
  <path class="cls-2" d="M93,32.2s0,0,.1,0c0,0,0,0,0,.1,0,0,0,0,0,0,0,0,0,0,0-.1Z"/>
  <path class="cls-5" d="M39.1,101.2s.1,0,.1,0c0,0,0,.2,0,.2-.1.1-.1,0-.1,0,0,0,0-.1,0-.2Z"/>
  <path class="cls-4" d="M38.5,101.8s0,0,0,0c0,0,0,0,0,0,0,0,0,0,0,0Z"/>
  <path class="cls-5" d="M38.6,101s0,0,0,0c0,0,0,0,0,0,0,0,0,0,0,0Z"/>
  <path class="cls-7" d="M44,108.6c.5-.3,1.1-.2,1.6,0-.5.2-1.1,0-1.6,0Z"/>
  <polygon class="cls-1" points="77 50.5 76.9 50.5 77 50.5 77 50.5"/>
  <path class="cls-5" d="M44.4,101c.2.2.2.5.6.3.3-.2.4.2.5.3-.3,0-.6,0-.9,0-.2,0-.5.2-.6,0-.1-.3.2-.4.4-.6Z"/>
  <path class="cls-1" d="M35.6,76.9c0,.2-.3.4-.5.5-.1,0-.3,0-.3-.2,0-.3.2-.4.5-.5.1,0,.3,0,.3.2Z"/>
  <path class="cls-1" d="M35.9,79.9c-.2.2-.4.6-.8.4-.1,0-.2-.2-.1-.3.3-.4.6.1.9,0Z"/>
  <path class="cls-1" d="M40,73.8c.2.5.3.8,0,1,0,0-.2,0-.3,0-.3-.4.2-.5.3-.9Z"/>
  <path class="cls-1" d="M101.6,82.3c.4-.4.8-.8,1.2-1.2,0,0,.3-.2.4,0,0,0-.1.2-.2.2-.5,1.1-1.4,1.7-2.1,2.6,0,0-.1,0-.2-.1.3-.5.6-1,.9-1.5Z"/>
  <path class="cls-5" d="M95.4,85.9c.2,0,.3,0,.5,0,0,0,0,.1,0,.2-.2.1-.3,0-.4-.2h0Z"/>
  <path class="cls-4" d="M103.3,79.7c.2,0,.3,0,.2.3-.2.2-.5.5-.8.6,0-.1,0-.2,0-.3.2-.2.5-.3.7-.5Z"/>
  <path class="cls-7" d="M96.1,84.3c0,0,.1-.2.2-.3,0,.2,0,.4,0,.7,0-.2,0-.4-.1-.5Z"/>
  <path class="cls-1" d="M94.4,64.8c0,0,0,.2-.1.2,0,0,0,0,0,0,0-.2.1-.1.2-.1,0,0,0,0,0,0Z"/>
  <path class="cls-5" d="M36.5,93.9c0,0,.2,0,.2.2,0,0,0,0,0,0-.2,0-.1-.1-.2-.2,0,0,0,0,0,0Z"/>
  <path class="cls-1" d="M36.2,85.6c.3-.6.7-.4,1.2-.2-.8,0-.4.7-.8,1,0,0,0,0,0,0-.1-.3.1-.8-.5-.8h0Z"/>
  <path class="cls-1" d="M36.2,85c0,.1,0,.3-.1.2,0,0-.2-.1-.2-.2,0,0,0-.2.1-.2.2,0,.2.1.2.2Z"/>
  <path class="cls-1" d="M36.2,85.6c0,.2,0,.3-.2.3,0,0,0-.1,0-.2,0-.3.2-.2.3-.1,0,0,0,0,0,0Z"/>
  <path class="cls-1" d="M36.2,86.9c.2-.2.3-.3.5-.5,0,0,0,0,0,0,0,.4-.1.5-.5.5h0Z"/>
  <path class="cls-1" d="M35.6,86.3c0,0-.1,0-.2,0,0,0-.1,0,0-.1,0,0,.1,0,.2,0,0,0,0,0,0,.1Z"/>
  <path class="cls-1" d="M36.1,86.5c0,0,0,0-.1,0,0,0,0,0,0-.1,0,0,0,0,.1,0,0,0,0,.1-.1.2Z"/>
  <path class="cls-1" d="M36.2,86.9s0,0,0,0c0,0,0,0,0,0,0,0,0,0,0,0Z"/>
  <polygon class="cls-6" points="37.9 84.9 38 84.9 37.9 84.9 37.9 84.9"/>
  <path class="cls-5" d="M44.5,105.5c.5-.4.9-.7,1.5-.6.2,0,.4,0,.4.2,0,.2-.1.4-.4.4-.5,0-1,0-1.5,0Z"/>
</svg>