<?xml version="1.0" encoding="UTF-8"?>
<svg id="Capa_1" data-name="Capa 1" xmlns="http://www.w3.org/2000/svg" version="1.1" viewBox="0 0 128 128">
  <defs>
    <style>
      .cls-1 {
        fill: #2395e2;
      }

      .cls-1, .cls-2 {
        stroke-width: 0px;
      }

      .cls-2 {
        fill: #fff;
      }
    </style>
  </defs>
  <circle class="cls-1" cx="63.9" cy="63.8" r="63.7"/>
  <path class="cls-2" d="M97.1,35.2c6.6-1.3,17.1,10.4,17.1,10.4,1.1-6.4-4.9-11.2-4.9-11.2,7-.6,8.9.4,8.9.4-1.7-6.8-13.5-7.4-13.5-7.4,4.7-4.4,10.8-6.8,10.8-6.8-10-4.2-20.1,5.3-20.1,5.3-11.4-10.4-22.2-6.1-22.2-6.1,7-.4,13.3,8.3,13.3,8.3-8-1.7-13.3,6.4-13.3,6.4,3.6-1.3,8.3.4,8.3.4-3.8,2.7-6.3,11.4-6.3,11.4,2.5-3.4,17.6-11.4,17.6-11.4l-.4,45.7h-11.1v-33.9c0,0-8.8,4.2-8.8,4.2l1.3-13.1-63.3,15.7h17.6v27.1c0,0-10,0-10,0v33.2c0,0,99.2-27.5,99.2-27.5l-.4-5.7h-19.7l-.4-45.5ZM36.5,54.7h17v26.5h-17v-26.5ZM70.3,81.3h-15.5v-26.5h15.5v26.5Z"/>
</svg>